<svg width="412" height="400" viewBox="0 0 412 400" fill="none" xmlns="http://www.w3.org/2000/svg">
<g filter="url(#filter0_f_2099_194)">
<path d="M96.8144 322.141C80.3268 317.787 82.1021 318.451 81.1228 316.269L80.2978 314.431L80.9668 311.026C81.6724 307.436 81.6333 306.528 80.693 304.654C80.3736 304.018 79.4734 302.224 78.6927 300.668C77.9119 299.112 76.9795 296.963 76.6208 295.893C76.2621 294.823 75.567 293.339 75.0761 292.594C74.5853 291.85 74.0921 290.741 73.9801 290.13C73.8681 289.519 73.3804 288.564 72.8962 288.007C72.4121 287.45 72.016 286.848 72.016 286.668C72.016 286.489 71.728 285.937 71.3761 285.443C71.0059 284.923 70.6125 283.671 70.4427 282.472C70.2579 281.167 69.8741 280 69.4056 279.318C68.9965 278.724 68.5207 277.86 68.3481 277.4C68.1756 276.94 67.5458 276.247 66.9485 275.86C65.8781 275.167 65.4825 274.037 66.1629 273.616C66.3324 273.511 66.471 272.656 66.471 271.715C66.471 270.042 68.4915 264.241 82.2358 226.456L83.4785 223.04L90.3005 225.308C94.0525 226.556 99.7563 228.349 102.975 229.292C106.195 230.235 111.868 231.896 115.582 232.983C119.297 234.07 122.37 234.994 122.412 235.036C122.615 235.239 121.496 239.761 121.192 239.964C121 240.093 120.508 240.286 120.099 240.395C119.326 240.6 116.092 243.797 116.077 244.371C116.072 244.551 116.563 244.935 117.168 245.224C118.226 245.728 118.301 245.724 119.152 245.119C119.638 244.772 120.126 244.205 120.236 243.858C120.347 243.51 120.5 243.29 120.578 243.368C120.656 243.445 120.174 245.778 119.506 248.551C117.931 255.097 116.234 262.188 113.91 271.922C112.879 276.242 111.702 281.164 111.294 282.858C109.237 291.401 107.406 299.033 106.415 303.189C101.187 325.135 101.629 323.384 101.337 323.324C101.222 323.3 99.1864 322.768 96.8144 322.141Z" fill="#C8C3FF"/>
<path d="M31.3528 306.036C29.3854 304.784 26.4239 300.911 26.4239 299.589C26.4239 298.854 26.2419 298.6 25.5194 298.328C24.6047 297.982 23.9046 296.784 23.501 294.872C23.3936 294.364 22.9931 293.463 22.6108 292.87C22.2286 292.277 21.6733 291.168 21.3769 290.405C21.0805 289.643 20.2754 288.081 19.5877 286.934C18.833 285.676 18.183 284.089 17.9479 282.93C17.7336 281.874 17.3725 280.555 17.1454 279.999C16.75 279.032 16.7716 278.957 17.6504 278.239C18.1553 277.827 18.835 277.484 19.1607 277.478C19.7699 277.467 21.6057 279.232 24.5756 282.684C25.5074 283.767 26.4105 284.804 26.5823 284.988C26.7542 285.172 27.3744 285.946 27.9606 286.709C28.5468 287.471 29.1065 288.164 29.2042 288.249C29.6349 288.622 30.4174 291.341 30.6127 293.143C30.7995 294.868 31.0144 295.36 32.3493 297.124C34.1263 299.472 34.2773 299.818 34.5729 302.226C34.6951 303.22 34.9803 304.559 35.2067 305.201C35.4332 305.843 35.5367 306.45 35.4367 306.55C34.9741 307.013 32.3737 306.685 31.3528 306.036Z" fill="#C8C3FF"/>
<path d="M80.1794 317.648C79.8984 317.566 73.5529 315.594 68.6273 314.057C66.9286 313.528 48.9284 306.779 41.5185 303.894C40.2478 303.399 38.7923 302.842 38.284 302.656C37.107 302.226 36.9082 301.914 36.9024 300.491C36.8992 299.694 36.696 299.166 36.2507 298.797C34.4599 297.313 33.8172 296.569 33.8172 295.981C33.8172 295.625 33.6975 295.334 33.5511 295.334C32.8041 295.334 31.7272 293.696 31.5384 292.272C31.2325 289.967 30.205 287.961 28.3865 286.12C26.7586 284.471 26.7424 284.437 26.922 282.962C27.0692 281.754 27.0148 281.472 26.6354 281.472C26.3779 281.472 26.1209 281.362 26.0644 281.229C26.008 281.096 25.3033 280.605 24.4985 280.138C23.6937 279.671 23.0247 279.122 23.0117 278.917C22.9987 278.712 22.9307 278.268 22.8606 277.929C22.6886 277.098 22.6722 276.55 22.7199 273.244C22.7598 270.484 22.7861 270.387 23.6969 269.62C24.5581 268.896 24.6059 268.756 24.2961 267.867C24.111 267.336 23.9594 266.355 23.9594 265.687C23.9594 264.766 23.6583 264.043 22.7147 262.698C21.6717 261.211 21.4984 260.754 21.6448 259.877C21.7409 259.301 22.1037 258.591 22.4509 258.299C23.1515 257.71 23.086 257.227 22.0221 255.133C21.4865 254.079 21.3974 253.324 21.4056 249.91C21.4148 246.05 21.4408 245.894 22.1999 245.135C22.6316 244.704 23.721 244.074 24.621 243.735C26.8356 242.901 28.5802 241.32 28.5802 240.146C28.5802 238.916 29.246 237.47 30.392 236.209C31.2491 235.266 31.3527 234.948 31.3527 233.256C31.3527 231.54 31.2655 231.283 30.4334 230.541C29.3779 229.601 27.5359 226.117 27.0281 224.1C26.7293 222.913 26.7945 222.261 27.5116 219.262C28.2436 216.2 28.3014 215.592 28.0063 214.054C27.8225 213.097 27.5937 210.996 27.4979 209.387C27.402 207.777 27.2622 206.169 27.1873 205.813C27.1124 205.456 26.9724 204.625 26.8762 203.964C26.7801 203.304 26.2894 201.031 25.7858 198.913C25.2823 196.795 24.8015 194.751 24.7175 194.371C24.622 193.939 24.1405 193.502 23.4329 193.207C21.2726 192.304 20.9899 192.315 20.3956 193.321C19.9963 193.997 19.3396 194.432 17.9758 194.924C16.9463 195.296 15.5582 195.86 14.891 196.178C14.2238 196.496 13.6458 196.757 13.6066 196.757C13.5673 196.757 13.6573 196.306 13.8064 195.755C14.2236 194.215 13.9503 190.505 13.3524 189.592C12.719 188.626 12.804 185.766 13.4618 185.91C13.6867 185.96 16.7992 187.916 20.3784 190.259C30.135 196.643 40.7983 203.129 45.9853 205.836C48.5268 207.162 50.7448 208.344 50.9142 208.464C51.7524 209.055 61.2544 213.866 64.7767 215.483C66.9793 216.495 71.7618 218.47 75.4045 219.872C79.0473 221.275 82.1383 222.518 82.2735 222.635C82.4087 222.752 82.3789 223.18 82.2072 223.587C82.0356 223.994 80.4247 228.417 78.6275 233.415C76.8304 238.413 74.8255 243.958 74.1724 245.737C67.0415 265.159 65.5468 269.554 65.5468 271.102C65.5468 272.029 65.352 272.987 65.0869 273.366C64.4199 274.318 64.7997 275.65 65.9488 276.389C67.3851 277.312 69.247 280.766 69.4693 282.92C69.5909 284.099 69.9434 285.149 70.5258 286.067C71.0066 286.825 71.3998 287.584 71.3998 287.753C71.3998 287.922 71.7261 288.415 72.1247 288.848C72.5235 289.281 73.0276 290.297 73.2452 291.106C73.4627 291.915 73.763 292.653 73.9124 292.745C74.3032 292.987 75.5863 295.633 75.8401 296.72C75.9588 297.228 77.0435 299.644 78.2507 302.088C79.5199 304.657 80.4472 306.931 80.4493 307.479C80.4513 308 80.2109 309.726 79.915 311.314C79.3604 314.291 79.4411 315.574 80.2615 316.826C80.7395 317.555 80.7146 317.804 80.1794 317.648Z" fill="#C8C3FF"/>
<path d="M9.5547 259.517C8.30362 256.621 7.84271 253.176 8.04637 248.245C8.16491 245.375 8.36607 243.657 8.61929 243.352C8.83392 243.093 9.0116 242.658 9.01415 242.384C9.02164 241.582 10.3529 241.615 11.5849 242.448C13.0597 243.445 15.0259 245.399 15.0259 245.869C15.0259 246.072 13.7782 247.537 12.2534 249.126C9.01371 252.501 8.9706 252.676 10.2472 257.292C10.6687 258.815 11.0152 260.304 11.0173 260.601C11.025 261.677 10.2348 261.092 9.5547 259.517Z" fill="#C8C3FF"/>
<path d="M156.49 241.376L156.269 243.321C156.146 244.393 156.006 245.483 155.961 245.737C155.916 245.991 155.777 246.962 155.653 247.894C155.528 248.825 155.391 249.796 155.345 250.05C155.299 250.304 155.022 252.301 154.729 254.488C154.225 258.238 154.223 258.52 154.719 259.359C155.234 260.23 155.227 260.266 154.372 261.342C153.892 261.946 153.342 262.672 153.15 262.95C152.957 263.227 152.698 265.252 152.582 267.455C152.465 269.658 152.327 272.014 152.274 272.692C152.221 273.37 152.085 275.172 151.975 276.697C151.865 278.221 151.723 280.301 151.648 281.317C151.338 285.546 151.201 287.298 151.032 289.635C150.934 290.99 150.796 292.792 150.724 293.64C150.652 294.487 150.511 296.566 150.406 298.26C150.302 299.955 150.166 301.895 150.108 302.573C150.049 303.251 149.913 305.261 149.8 307.04C149.686 308.819 149.547 310.76 149.492 311.353C149.437 311.946 149.292 314.025 149.174 315.974C149.056 317.922 148.923 319.724 148.876 319.978C148.718 320.819 148.296 327.798 148.279 329.836L148.259 331.838L150.108 332.021C153.072 332.322 155.9 332.641 156.731 332.763C157.154 332.825 158.263 332.958 159.195 333.061C160.992 333.26 162.013 333.38 164.74 333.706C165.672 333.817 167.752 334 169.361 334.11C170.971 334.22 173.697 334.348 175.416 334.399L178.535 334.495L178.728 333.013C178.83 332.197 178.983 329.867 179.074 327.834C179.166 325.8 179.302 323.167 179.373 321.981C179.443 320.795 179.582 317.745 179.681 315.203C180.024 306.401 180.122 305.487 180.855 304.258C181.231 303.628 183.415 301.119 185.717 298.684C188.019 296.249 190.515 293.569 191.262 292.725C192.008 291.881 192.758 291.029 192.927 290.838C195.892 287.496 197.318 285.859 198.915 283.946C199.972 282.679 201.795 280.583 202.968 279.286C204.14 277.99 205.575 276.39 206.154 275.734C206.734 275.078 207.906 273.778 208.763 272.846C209.62 271.914 210.33 271.002 210.332 270.824C210.337 270.479 208.721 269.812 207.329 269.582C205.198 269.231 204.612 269.028 204.258 268.524C203.96 268.098 203.47 267.988 202.005 268.023C200.979 268.047 200.047 268.222 199.926 268.408C199.677 268.79 196.114 269.233 195.421 268.966C195.105 268.845 195.043 268.595 195.209 268.148C195.45 267.497 195.396 267.117 194.525 262.988C193.9 260.023 193.739 259.14 193.524 257.443C193.278 255.498 192.489 254.904 189.269 254.228C187.207 253.795 186.51 253.516 186.237 253.015C185.852 252.31 185.86 249.874 186.256 246.584L186.506 244.505L184.86 244.466C183.959 244.445 183.12 244.401 182.993 244.37C182.865 244.34 181.722 244.208 180.451 244.072C179.18 243.936 177.933 243.788 177.679 243.744C177.424 243.701 176.254 243.561 175.079 243.436C173.905 243.312 172.658 243.164 172.307 243.109C171.956 243.054 170.84 242.924 169.823 242.82C168.807 242.716 166.866 242.51 165.51 242.358C164.155 242.206 162.214 242.003 161.198 241.906C160.181 241.809 158.702 241.646 157.915 241.55L156.49 241.376ZM165.299 294.323C166.487 294.333 167.283 294.89 167.879 296.066C168.233 296.766 168.624 297.406 168.745 297.49C169.322 297.893 170.731 301.637 170.468 302.063C170.302 302.332 170.855 304.031 171.46 305.115C171.671 305.494 171.811 306.533 171.777 307.425C171.713 309.137 172.732 312.91 173.703 314.578C174.094 315.249 174.272 316.332 174.338 318.438C174.428 321.324 174.414 321.366 173.684 321.47C173.276 321.529 172.685 321.91 172.365 322.318C171.698 323.165 171.137 323.256 170.497 322.616C169.97 322.089 170.132 319.885 170.767 318.91C170.991 318.565 171.249 317.889 171.335 317.408C171.421 316.927 171.661 316.326 171.874 316.07C172.489 315.329 172.465 314.598 171.816 314.193C171.309 313.876 171.159 313.913 170.834 314.433C170.414 315.106 169.669 315.265 169.669 314.684C169.669 314.484 169.832 313.881 170.025 313.345C170.855 311.051 169.504 309.071 167.571 309.745C166.782 310.02 166.558 309.97 166.04 309.399C165.708 309.032 165.227 308.081 164.962 307.281C164.696 306.48 164.136 305.371 163.72 304.816C163.185 304.103 162.998 303.535 163.094 302.881C163.218 302.039 163.103 301.886 161.727 301.168C159.723 300.121 158.911 300.425 158.849 302.236C158.825 302.93 158.759 304.19 158.704 305.038C158.43 309.271 158.429 309.276 159.686 310.275C162.386 312.419 162.603 312.694 163.036 314.587C163.269 315.604 163.453 316.935 163.45 317.543C163.448 318.15 163.809 319.359 164.249 320.229C165.279 322.26 165.321 323.84 164.355 324.098C163.338 324.371 162.951 324.337 162.709 323.944C162.499 323.604 161.65 319.68 161.053 316.32C160.716 314.421 160.268 313.831 158.117 312.441C156.411 311.337 155.584 310.473 155.672 309.889C155.704 309.678 155.747 309.234 155.768 308.908C155.789 308.581 155.998 308.129 156.23 307.897C156.505 307.622 156.642 306.759 156.635 305.432C156.623 303.396 156.631 303.4 155.451 302.737C154.133 301.996 153.65 301.299 153.65 300.128C153.65 299.493 153.801 299.339 154.411 299.339C155.552 299.339 155.938 298.357 155.181 297.394C154.846 296.968 154.575 296.467 154.575 296.277C154.575 295.872 156.021 295.239 156.856 295.276C157.595 295.309 159.195 296.824 159.195 297.49C159.195 297.768 159.518 298.298 159.908 298.665L160.61 299.329L161.024 298.212C161.712 296.31 162.962 294.731 163.97 294.496C164.462 294.382 164.903 294.32 165.299 294.323Z" fill="#C8C3FF"/>
<path d="M334.039 349.329C333.338 349.15 332.494 348.193 331.99 347.006C331.791 346.538 331.32 346.078 330.943 345.983C329.694 345.67 327.719 340.528 327.7 337.537C327.693 336.511 327.512 335.982 327.003 335.5C325.804 334.366 324.192 333.535 323.185 333.534L322.211 333.533L322.091 331.607C322.025 330.549 322.021 329.578 322.082 329.451C322.143 329.324 323.051 329.21 324.1 329.197C326.365 329.169 327.624 328.751 328.907 327.602C329.488 327.082 330.736 326.513 332.145 326.126C334.273 325.542 334.518 325.532 335.585 325.978C336.681 326.435 336.762 326.427 337.345 325.801C338.597 324.458 342.197 323.388 342.169 324.368C342.163 324.58 341.96 325.1 341.718 325.523C341.066 326.664 341.13 329.284 341.832 330.18C342.148 330.584 342.508 331.372 342.63 331.932C342.766 332.554 343.407 333.48 344.282 334.319C345.655 335.635 345.787 335.689 347.591 335.689C348.625 335.689 349.551 335.769 349.649 335.867C349.747 335.966 349.135 336.763 348.289 337.639C347.443 338.515 346.399 339.973 345.97 340.878C344.872 343.191 341.019 347.087 339.828 347.087C339.154 347.087 338.85 347.293 338.56 347.949C338.002 349.21 335.986 349.825 334.039 349.329Z" fill="#C8C3FF"/>
<path d="M368.402 315.489C367.55 314.406 367.573 313.091 368.466 311.871C369.414 310.577 369.519 309.003 368.676 308.735C367.882 308.483 367.892 307.841 368.71 306.517C369.295 305.571 369.343 305.178 369.164 302.784C368.842 298.474 368.939 293.416 369.442 288.403C369.476 288.064 369.61 286.682 369.739 285.331C370.012 282.484 370.58 281.448 372.793 279.759C374.003 278.835 374.326 278.713 374.715 279.036C375.87 279.995 376.106 281.089 375.969 284.846C375.895 286.85 375.759 288.614 375.665 288.765C375.572 288.917 375.406 289.867 375.297 290.878L375.098 292.715L375.879 291.791C376.309 291.283 376.665 290.773 376.671 290.657C376.695 290.194 377.973 290.078 378.991 290.447C380.134 290.86 380.164 290.916 380.078 292.484L380.023 293.486H381.569C382.419 293.486 383.189 293.366 383.279 293.22C383.37 293.074 384.105 292.771 384.915 292.548C385.724 292.324 387.079 291.821 387.926 291.431C389.457 290.724 390.842 290.7 392.121 291.359C392.792 291.704 393.094 293.358 392.624 294.111C392.311 294.612 392.35 294.812 392.862 295.324C393.39 295.852 393.69 295.903 395.027 295.691C396.995 295.38 397.322 295.499 397.322 296.523C397.322 297.396 396.686 298.512 395.675 299.416C395.343 299.712 395.231 299.955 395.426 299.955C395.625 299.955 395.781 300.418 395.781 301.008C395.781 301.587 395.866 302.28 395.968 302.548C396.185 303.112 396.706 303.205 396.706 302.679C396.706 302.107 398.237 300.263 398.711 300.263C398.951 300.263 399.311 300.815 399.515 301.495C399.935 302.898 400.355 303.009 401.643 302.056C402.143 301.687 402.657 301.491 402.786 301.621C402.915 301.751 403.053 302.781 403.093 303.91C403.132 305.038 403.187 306.479 403.215 307.11C403.288 308.769 402.037 310.575 400.747 310.673C399.973 310.732 399.707 310.591 399.424 309.972C398.981 308.999 398.764 308.998 398.246 309.967C397.408 311.532 396.721 310.562 396.356 307.298C396.089 304.908 395.74 303.959 395.128 303.959C394.979 303.959 394.857 304.466 394.857 305.085C394.857 305.995 394.625 306.433 393.646 307.364C392.549 308.407 392.404 308.73 392.123 310.757C391.71 313.739 390.973 314.531 388.554 314.595C386.469 314.649 386.311 314.152 387.926 312.628C388.805 311.799 389.004 311.386 389.004 310.393C389.004 309.244 388.967 309.195 388.345 309.527C387.177 310.153 385.836 310.431 385.467 310.125C385.097 309.818 384.571 310.054 381.475 311.911C380.539 312.473 379.39 312.992 378.921 313.067C378.452 313.141 377.593 313.281 377.013 313.379C376.432 313.477 374.561 314.116 372.854 314.799C371.147 315.482 369.594 316.104 369.403 316.18C369.211 316.257 368.761 315.945 368.402 315.489Z" fill="#C8C3FF"/>
<path d="M330.111 293.334C330.056 293.283 329.484 293.172 328.838 293.087C328.193 293.002 327.398 292.691 327.072 292.396C326.602 291.97 326.11 291.891 324.703 292.013C322.449 292.208 322.215 292.114 321.994 290.922C321.627 288.943 321.587 288.704 321.564 288.348C321.551 288.148 321.327 287.772 321.067 287.512C320.642 287.086 320.494 287.1 319.604 287.643C319.059 287.975 318.323 288.247 317.968 288.247C317.186 288.249 316.108 287.174 316.591 286.875C316.943 286.658 317.026 284.825 316.733 283.736C316.622 283.322 316.076 282.888 315.274 282.577C313.003 281.697 310.608 277.975 311.382 276.529C311.559 276.197 311.841 275.926 312.009 275.926C312.327 275.926 312.864 274.744 313.024 273.692C313.076 273.356 313.411 272.856 313.77 272.579C314.129 272.302 314.561 271.707 314.729 271.257C315.02 270.475 315.093 270.452 316.362 270.729C317.092 270.889 318.036 271.258 318.46 271.55C319.545 272.297 320.667 272.072 321.393 270.962C321.977 270.07 322.067 270.04 323.543 270.246C324.39 270.365 325.328 270.453 325.627 270.441C326.068 270.423 326.149 270.621 326.054 271.488C325.989 272.077 325.882 272.594 325.817 272.637C324.447 273.557 323.394 274.499 323.257 274.925C323.162 275.222 322.668 275.742 322.159 276.08C321.076 276.802 321.011 277.171 321.836 277.918C322.574 278.585 324.393 278.351 324.997 277.51C325.72 276.503 327.266 275.945 328.388 276.286C329.841 276.728 330.957 276.205 331.598 274.782C332.139 273.581 332.203 271.987 331.729 271.513C331.575 271.36 331.181 271.522 330.813 271.891C330.408 272.296 329.772 272.538 329.113 272.538C326.793 272.538 326.586 271.922 328.009 269.254C328.518 268.302 328.933 267.207 328.933 266.821C328.933 265.891 327.915 263.549 327.281 263.023C327.004 262.793 326.777 262.378 326.777 262.101C326.777 261.242 325.239 258.563 324.243 257.69C323.592 257.119 323.223 256.445 323.062 255.534C322.933 254.805 322.668 253.308 322.472 252.206C322.276 251.105 322.107 249.303 322.096 248.202C322.075 245.882 321.501 244.641 320.335 244.391C319.897 244.298 319.087 243.94 318.537 243.597C317.423 242.904 317.24 241.984 317.999 240.9C318.322 240.439 318.381 240.022 318.195 239.522C317.922 238.787 317.932 238.502 318.297 236.842C318.53 235.78 318.359 235.718 315.555 235.836C314.889 235.865 314.418 235.814 314.507 235.724C314.597 235.634 314.436 234.558 314.149 233.333C313.74 231.585 313.498 231.085 313.029 231.015C312.7 230.965 312.278 230.681 312.092 230.382C311.654 229.681 310.384 225.061 310.577 224.868C310.899 224.546 314.483 227.722 315.731 229.435C316.461 230.438 317.295 231.259 317.584 231.259C317.873 231.259 318.399 231.665 318.752 232.161C319.106 232.657 319.861 233.351 320.431 233.704C321.107 234.121 321.696 234.878 322.128 235.882C322.553 236.871 322.979 237.421 323.32 237.423C323.612 237.426 324.151 237.891 324.518 238.458C325.035 239.256 325.468 239.534 326.439 239.689C327.52 239.862 327.785 240.069 328.37 241.196C328.743 241.915 329.126 243.053 329.222 243.725C329.385 244.87 329.485 244.972 330.816 245.348C331.598 245.569 332.474 246.01 332.763 246.329C333.241 246.858 333.248 247.044 332.838 248.425C332.46 249.697 332.454 250.06 332.798 250.688C333.024 251.1 333.282 251.783 333.371 252.206C333.512 252.872 333.983 253.133 336.856 254.132C338.683 254.767 340.426 255.287 340.729 255.287C341.032 255.287 341.811 255.862 342.46 256.564L343.639 257.841L346.375 257.967C347.88 258.037 349.637 258.295 350.281 258.542C351.481 259.002 352.231 258.834 353.17 257.895C353.464 257.601 354.028 257.653 355.794 258.135C357.032 258.473 358.128 258.881 358.229 259.041C358.626 259.666 358.111 260.793 357.27 261.142C356.793 261.339 355.663 262.338 354.759 263.362C353.855 264.385 352.7 265.663 352.192 266.202C351.683 266.74 350.62 267.866 349.828 268.704C348.356 270.262 347.674 272.111 348.46 272.413C349.116 272.665 352.284 269.327 352.505 268.153C352.641 267.423 353.417 266.343 355.065 264.585C357.202 262.306 357.538 262.064 358.573 262.064C359.521 262.064 359.837 262.239 360.421 263.084C361.01 263.938 361.251 264.069 361.895 263.885C363.344 263.472 364.878 263.593 365.627 264.178C366.031 264.493 367.194 265.211 368.21 265.772C369.227 266.334 370.099 266.82 370.147 266.853C370.196 266.886 370.07 267.277 369.867 267.722C369.349 268.861 369.957 270.721 371.281 272.045C372.291 273.055 373.601 275.248 373.601 275.929C373.601 276.437 371.504 279.647 370.444 280.762L369.507 281.747L368.25 280.146C367.559 279.265 366.86 278.451 366.697 278.337C366.534 278.223 365.907 278.377 365.303 278.68C364.7 278.983 363.479 279.402 362.591 279.611C361.704 279.82 359.971 280.378 358.741 280.851C357.511 281.324 354.98 282.288 353.116 282.994C351.252 283.699 349.065 284.552 348.256 284.888C345.318 286.11 338.916 288.324 337.713 288.533C336.714 288.707 336.157 288.589 334.766 287.906C333.823 287.443 332.908 287.158 332.734 287.271C332.56 287.385 332.4 288.033 332.379 288.711C332.33 290.232 331.997 292.982 331.841 293.142C331.693 293.294 330.241 293.456 330.111 293.334Z" fill="#C8C3FF"/>
<path d="M344.54 359.31C342.739 358.921 341.864 357.903 341.135 355.352C340.779 354.103 340.721 353.382 340.932 352.826C341.384 351.638 343.424 348.628 344.763 347.173C345.421 346.458 346.146 345.607 346.373 345.283C346.6 344.959 347.136 344.605 347.562 344.498C348.438 344.279 351.113 342.477 351.113 342.107C351.113 341.786 349.731 342.322 348.092 343.279C345.244 344.941 345.644 342.241 348.772 338.687C350.147 337.125 350.473 336.91 351.42 336.939C354.355 337.032 357.652 336.508 358.728 335.778C359.396 335.324 360.012 335.121 360.318 335.252C360.592 335.369 361.459 335.489 362.243 335.518C363.867 335.577 365.15 336.29 365.665 337.421C365.994 338.142 365.88 338.333 364.034 340.177C362.942 341.267 361.841 342.379 361.587 342.648C360.492 343.807 357.783 345.87 357.146 346.03C356.739 346.132 356.081 346.839 355.554 347.739C354.73 349.149 354.577 349.263 353.693 349.131C352.896 349.011 352.67 349.118 352.383 349.746C352.193 350.163 352.038 350.647 352.038 350.82C352.038 350.993 351.62 352.137 351.111 353.361C350.41 355.044 349.692 356.092 348.169 357.652C347.061 358.788 346.126 359.698 346.092 359.675C346.058 359.652 345.36 359.487 344.54 359.31Z" fill="#C8C3FF"/>
<path d="M365.276 335.91C365.018 335.704 364.134 334.809 363.311 333.92C362.215 332.736 361.9 332.202 362.131 331.918C362.305 331.705 362.875 330.247 363.398 328.679C364.459 325.5 365.459 323.367 365.889 323.367C366.433 323.367 367.132 324.743 367.136 325.823C367.143 327.58 367.435 328.228 368.317 328.446C369.39 328.711 370.829 330.098 370.829 330.868C370.829 331.203 370.399 332.147 369.873 332.967C369.179 334.048 368.719 334.457 368.199 334.457C367.754 334.457 367.233 334.808 366.824 335.381C366.094 336.406 365.956 336.453 365.276 335.91Z" fill="#C8C3FF"/>
<path d="M69.8788 120.744C69.3561 120.735 68.6062 120.83 67.5299 120.966C65.8754 121.174 64.3388 121.408 64.1124 121.495C63.8164 121.609 63.7428 122.07 63.8525 123.141C64.03 124.875 63.6366 125.33 62.909 124.219C62.628 123.79 62.3007 123.44 62.187 123.44C61.6734 123.44 57.1957 131.544 56.3147 134.067C55.7824 135.592 55.1444 137.148 54.8996 137.523C54.1918 138.608 54.3606 138.916 56.3918 140.296C60.7058 143.226 60.8229 143.521 59.0487 147.16C58.4292 148.431 57.8499 150.05 57.7684 150.76C57.6303 151.964 57.7035 152.117 58.8177 153.013C59.4754 153.541 59.9547 154.08 59.8766 154.207C59.7985 154.333 59.6949 155.237 59.6552 156.219C59.5783 158.12 59.212 158.747 57.9705 159.058C57.0986 159.277 56.6132 160.025 56.6132 161.157C56.6132 161.592 56.4851 161.946 56.334 161.946C56.1829 161.946 55.9741 162.309 55.8623 162.755C55.7142 163.345 55.8255 163.748 56.2859 164.238C56.7258 164.706 56.9193 165.327 56.9212 166.278C56.9229 167.085 57.2265 168.266 57.6625 169.166C58.1711 170.217 58.3523 171.007 58.2401 171.698C58.1307 172.372 58.2859 173.105 58.7118 173.922C59.3358 175.119 59.3335 175.165 58.7888 176.964C58.051 179.401 57.304 183.473 57.1041 186.129C57.0149 187.315 56.8582 188.567 56.7576 188.911C56.6403 189.311 56.8152 189.809 57.2389 190.297C58.0581 191.24 58.5535 192.41 59.068 194.6C59.531 196.571 60.124 197.864 61.0126 198.836L61.6479 199.529L60.9837 200.241C60.5417 200.712 60.3098 201.347 60.3098 202.109C60.3098 202.745 60.1613 203.537 59.9825 203.871C59.6905 204.416 59.8552 204.568 61.5998 205.363C62.6681 205.849 64.0783 206.613 64.7285 207.057C65.6664 207.697 66.1276 207.82 66.9619 207.664C68.2091 207.43 68.1214 207.114 68.146 212.111L68.1652 215.914L71.5538 217.281C82.5522 221.724 95.5295 226.146 108.058 229.718C111.701 230.757 116.692 232.211 119.148 232.953C121.605 233.695 124.031 234.385 124.539 234.474C125.048 234.563 127.543 235.055 130.084 235.571C132.626 236.088 135.088 236.577 135.552 236.659C136.016 236.742 137.818 237.095 139.557 237.439C141.295 237.783 143.13 238.13 143.639 238.219C144.147 238.307 146.504 238.778 148.876 239.258C153.734 240.242 155.483 240.385 155.518 239.807C155.531 239.595 155.593 239.164 155.653 238.845C155.713 238.525 155.851 237.069 155.961 235.61C156.071 234.151 156.216 232.606 156.278 232.183C156.341 231.759 156.469 230.512 156.567 229.41C156.848 226.265 157.333 221.243 157.501 219.707C157.557 219.198 157.697 217.535 157.809 216.01C157.921 214.485 158.064 213.03 158.127 212.775C158.19 212.521 158.322 211.135 158.425 209.695C158.529 208.255 158.75 205.93 158.916 204.525C159.082 203.12 159.142 201.843 159.051 201.695C158.959 201.547 156.911 200.398 154.498 199.134C149.394 196.462 144.16 193.693 140.269 191.606L137.526 190.133L135.629 187.053L133.733 183.972L130.248 183.231L126.763 182.48L123.779 178.456C122.136 176.24 119.547 172.69 118.022 170.572C116.497 168.454 113.485 164.318 111.331 161.378C109.178 158.439 107.204 155.705 106.942 155.304C106.496 154.623 106.537 154.384 107.548 151.713C111.349 141.667 111.341 141.718 109.425 139.208C108.845 138.448 108.366 137.707 108.366 137.562C108.366 137.417 108.215 137.302 108.029 137.302C107.844 137.302 107.324 137.042 106.874 136.724C106.424 136.407 105.501 136.082 104.824 136.002C103.769 135.879 103.409 136.012 102.321 136.898C101.223 137.792 100.938 137.885 100.241 137.62C99.2124 137.229 99.2271 136.999 100.347 135.925C100.85 135.444 101.167 134.898 101.05 134.712C100.933 134.527 100.832 133.659 100.829 132.777C100.817 130.109 100.399 130.107 97.7192 132.787C96.422 134.084 95.294 135.146 95.2163 135.146C94.9941 135.146 94.0461 134.137 94.0033 133.856C93.9821 133.717 93.9475 131.824 93.9263 129.649C93.8881 125.725 93.8767 125.691 93.0984 125.336C91.9928 124.832 91.4817 124.886 90.5666 125.606C89.9753 126.071 89.3858 126.223 88.2947 126.174C87.2964 126.128 86.9064 125.993 87.0817 125.769C87.2242 125.588 87.4101 125.05 87.4957 124.576C87.6351 123.803 87.501 123.64 86.2249 122.997C84.798 122.277 82.5442 122.123 80.6414 122.602C80.2179 122.709 78.4136 122.876 76.6367 122.978C74.2812 123.112 73.3439 123.287 73.1615 123.613C73.0239 123.859 72.4965 124.056 71.9967 124.056C71.1335 124.056 71.0962 123.99 71.0917 122.746C71.0864 121.256 71.0286 120.764 69.8788 120.744ZM95.3992 163.92C103.411 163.949 104.054 164.06 104.054 165.345C104.054 165.645 103.395 166.443 102.59 167.126C101.615 167.953 101.23 168.47 101.435 168.675C101.801 169.041 106.047 170.756 108.155 171.39C109.602 171.826 109.63 171.865 109.425 172.825C109.199 173.885 108.761 174.577 108.318 174.577C108.166 174.577 107.501 174.935 106.836 175.376L105.623 176.175L103.842 175.347C102.859 174.892 101.792 174.38 101.474 174.211C100.703 173.8 100.259 174.308 99.606 176.329C98.9845 178.251 98.8657 178.353 96.4389 179.169C95.3853 179.523 94.3802 179.814 94.2055 179.814C93.6265 179.814 93.8777 178.924 94.7446 177.898C96.5479 175.763 96.5261 175.809 95.4858 175.809C94.9286 175.809 94.1748 176.13 93.6182 176.598C92.1013 177.875 90.9457 178.062 89.5558 177.263C88.906 176.889 88.2181 176.233 88.0251 175.809C87.697 175.089 87.8101 174.909 89.8446 172.969C91.0419 171.827 92.6378 170.597 93.3872 170.245C94.1365 169.892 94.8158 169.348 94.8986 169.032C95.1311 168.142 93.9016 167.186 92.4823 167.154C91.8155 167.14 90.382 166.828 89.2958 166.461C87.6743 165.914 87.298 165.66 87.2068 165.046C87.1458 164.635 87.247 164.205 87.4283 164.093C87.6094 163.981 91.1976 163.905 95.3992 163.92ZM105.873 203.534C106 203.534 106.566 204.171 107.125 204.949C107.683 205.727 108.626 206.801 109.223 207.336C110.88 208.82 112.099 210.202 112.862 211.466C113.47 212.473 113.797 212.668 115.596 213.122C117.505 213.604 117.766 213.607 119.447 213.132C120.663 212.788 121.468 212.34 121.921 211.765C122.857 210.573 124.012 210.056 125.954 209.945C127.607 209.851 127.62 209.86 127.562 210.706C127.477 211.937 126.26 213.316 124.924 213.7C124.289 213.882 123.18 214.603 122.46 215.298C121.739 215.992 120.25 216.963 119.148 217.464C118.047 217.964 116.619 218.653 115.971 218.994C115.292 219.352 114.467 219.552 114.017 219.466C113.463 219.36 112.954 219.564 112.265 220.169C111.732 220.637 110.757 221.242 110.099 221.516C109.441 221.791 108.54 221.989 108.097 221.95C102.41 221.44 101.873 221.245 99.1536 218.715C96.7039 216.436 96.7278 215.856 99.2884 215.856C100.237 215.856 101.281 215.998 101.608 216.174C102.307 216.548 103.146 216.195 104.448 214.98C105.126 214.348 105.554 214.206 106.537 214.277C107.951 214.379 108.674 213.932 108.674 212.949C108.674 212.033 107.42 208.42 106.306 206.133C105.463 204.402 105.316 203.534 105.873 203.534Z" fill="#C8C3FF"/>
<path d="M138.71 144.381C136.507 143.74 133.042 142.718 131.008 142.11C128.975 141.503 126.203 140.693 124.847 140.31C122.53 139.656 122.447 139.604 123.461 139.441C124.054 139.345 126.064 139.327 127.928 139.401C130.674 139.509 131.583 139.669 132.725 140.244C134.139 140.956 137.901 142.064 138.13 141.835C138.197 141.768 137.425 140.923 136.413 139.958C134.488 138.123 132.999 137.306 131.557 137.296C130.462 137.288 125.612 136.023 123.649 135.234C122.221 134.66 122.113 134.534 121.574 132.808C121.261 131.806 121.004 130.819 121.001 130.615C120.997 130.28 122.438 129.768 126.542 128.649L127.928 128.271L126.85 128.022C126.257 127.886 125.378 127.739 124.897 127.696C123.959 127.611 122.965 126.221 123.272 125.422C123.362 125.188 123.265 124.888 123.056 124.757C122.847 124.625 122.428 124.127 122.124 123.651C121.397 122.508 121.663 121.377 122.988 119.972C124.209 118.677 124.693 117.847 124.693 117.048C124.693 115.483 129.263 112.991 133.825 112.068C135.495 111.731 137.503 111.369 138.287 111.266C139.659 111.084 139.726 111.112 140.033 111.992C140.415 113.09 140.076 114.859 139.135 116.664C138.774 117.355 138.563 118.004 138.664 118.105C138.765 118.207 139.477 117.774 140.246 117.144L141.645 115.998L143.566 117.097C144.622 117.701 145.823 118.482 146.234 118.831L146.982 119.467L146.356 120.949L145.73 122.43L146.995 122.147C147.69 121.991 148.352 121.768 148.465 121.65C148.578 121.533 148.464 120.835 148.212 120.098C147.96 119.362 147.798 118.731 147.853 118.696C149.161 117.853 149.639 117.635 149.757 117.826C149.925 118.098 143.23 145.064 142.922 145.353C142.808 145.46 140.912 145.023 138.71 144.381Z" fill="#C8C3FF"/>
<path d="M108.231 124.32C108.154 124.09 107.951 122.706 107.782 121.244C107.501 118.822 107.323 118.336 105.764 115.737C104.823 114.169 104.057 112.731 104.06 112.541C104.07 112.06 104.983 111.018 105.902 110.437C106.325 110.17 107.433 108.723 108.364 107.222C109.294 105.722 110.317 104.217 110.637 103.878C110.957 103.539 112.241 101.9 113.489 100.236C115.661 97.3419 115.761 97.135 115.796 95.4615C115.816 94.4993 115.807 93.5253 115.776 93.2969C115.7 92.7451 116.648 91.7206 117.098 91.8674C117.294 91.9312 117.967 92.0443 118.593 92.1187C119.22 92.1931 120.468 92.545 121.366 92.9008C122.264 93.2566 123.578 93.6914 124.286 93.8669C125.339 94.1279 125.636 94.3678 125.916 95.1814C126.104 95.7287 127.005 96.9326 127.918 97.8566C129.571 99.529 129.586 99.5365 131.372 99.4894C133.886 99.4229 134.229 99.7989 135.662 104.199C137.484 109.793 137.243 110.362 132.577 111.49C130.433 112.008 128.305 112.936 127.774 113.583C127.689 113.686 127.197 113.942 126.679 114.15C126.162 114.359 125.399 114.837 124.983 115.211C124.568 115.586 123.296 116.585 122.158 117.432C120.506 118.661 119.865 119.393 118.986 121.049C118.381 122.192 117.58 123.289 117.208 123.489C116.835 123.688 116.53 123.81 116.53 123.758C116.53 123.672 116.159 123.74 113.911 124.236C113.488 124.329 112.068 124.48 110.757 124.572C108.91 124.701 108.341 124.644 108.231 124.32Z" fill="#C8C3FF"/>
<path d="M143.984 101.236C143.201 100.375 142.56 99.421 142.56 99.1148C142.56 98.3519 143.777 97.6197 145.714 97.2163C148.831 96.5674 149.744 95.5605 147.215 95.5605C146.191 95.5605 145.791 95.3982 145.339 94.7983C144.786 94.0655 144.741 94.0571 144.164 94.5795C143.432 95.2416 141.659 95.4544 140.801 94.9829C139.904 94.4891 137.04 91.0736 136.819 90.2342C136.619 89.4707 137.413 88.3213 138.141 88.3213C138.369 88.3213 138.566 88.2173 138.579 88.0902C138.678 87.1251 138.924 86.5976 139.612 85.8795C140.048 85.4249 140.404 84.7802 140.404 84.4469C140.404 83.6258 142.162 81.5441 142.855 81.5441C143.162 81.5441 143.641 81.1975 143.918 80.7739C144.342 80.128 144.663 80.0038 145.915 80.0038C147.891 80.0038 149.03 80.8552 149.03 82.3322C149.03 83.2094 149.225 83.5127 150.207 84.1628C151.784 85.2065 152.517 86.7693 152.574 89.211C152.625 91.3714 153.078 92.0138 154.556 92.0226C156.074 92.0317 156.1 92.2408 155.092 96.4077C154.398 99.2763 154.017 100.335 153.678 100.335C153.424 100.335 152.425 100.89 151.458 101.568C149.817 102.719 149.561 102.8 147.554 102.8H145.407L143.984 101.236Z" fill="#C8C3FF"/>
<path d="M134.483 87.4945C134.19 87.4175 133.811 86.8479 133.637 86.221C133.21 84.6878 133.852 83.8629 136.221 82.9008C138.278 82.0654 138.961 81.9889 139.4 82.5452C139.962 83.2571 139.692 84.0587 138.614 84.8835C138.025 85.3341 137.049 86.1533 136.445 86.704C135.841 87.2546 135.272 87.6891 135.18 87.6694C135.088 87.6497 134.774 87.571 134.483 87.4945Z" fill="#C8C3FF"/>
<path d="M131.647 82.2923C131.38 82.026 131.162 81.4715 131.162 81.06C131.162 80.3586 131.057 80.3119 129.468 80.3119C126.731 80.3119 125.848 78.9671 127.235 76.9115C127.742 76.16 128.301 75.7893 129.319 75.5301C130.083 75.3353 131.375 74.8042 132.189 74.3499C133.002 73.8956 133.785 73.5959 133.927 73.6839C134.069 73.7719 135.184 72.9079 136.405 71.764C139.234 69.1117 139.706 68.8737 142.032 68.9254C143.085 68.9488 144.293 68.9057 144.717 68.8297C145.63 68.6659 147.028 69.3031 147.298 70.0059C147.889 71.5463 147.243 73.2603 145.759 74.0912C145.428 74.276 145.198 74.9265 145.099 75.9508C144.957 77.426 144.863 77.576 143.606 78.3125C142.868 78.7451 142.123 79.3625 141.95 79.6846C141.541 80.4498 140.492 80.7686 139.927 80.2996C139.247 79.7349 139.354 77.6411 140.096 77.0058C140.435 76.7157 140.712 76.3719 140.712 76.2417C140.712 75.8671 139.581 76.8621 136.524 79.9268C133.559 82.8992 132.68 83.3257 131.647 82.2923Z" fill="#C8C3FF"/>
<path d="M155.605 73.8561C154.608 73.4094 154.259 73.0102 153.708 71.6863C153.338 70.7939 153.034 69.8756 153.034 69.6454C153.034 69.4153 152.749 69.0526 152.401 68.8394C150.741 67.8241 150.038 64.9091 151.452 64.9091C152.082 64.9091 153.034 65.8252 153.034 66.4315C153.034 66.7184 153.31 66.766 154.035 66.6044C155.34 66.3141 160.676 66.0523 161.199 66.253C161.514 66.3739 161.536 66.7036 161.298 67.7381C161.13 68.4694 160.938 69.345 160.871 69.6839C160.413 72.0197 159.994 73.2442 159.5 73.6918C158.69 74.4248 157.032 74.4948 155.605 73.8561Z" fill="#C8C3FF"/>
<path d="M161.044 64.9465C161.044 64.7976 160.638 64.5077 160.142 64.3022C159.646 64.0967 158.996 63.6588 158.697 63.329C158.306 62.8971 157.921 62.7808 157.318 62.9131C156.858 63.0142 156.393 62.954 156.285 62.7794C155.813 62.0155 158.136 59.9779 158.924 60.4649C159.088 60.5664 159.426 60.4807 159.674 60.2746C160.064 59.9513 162.427 60.0014 162.726 60.3394C162.993 60.6403 161.784 65.2171 161.438 65.2171C161.221 65.2171 161.044 65.0953 161.044 64.9465Z" fill="#C8C3FF"/>
<path d="M162.43 162.277C160.92 161.914 158.651 160.601 157.021 159.146C156.53 158.708 155.57 158.098 154.889 157.79C154.208 157.483 153.633 157.045 153.612 156.817C153.591 156.588 153.556 156.228 153.535 156.016C153.466 155.328 152.183 155.379 151.961 156.079C151.671 156.991 150.116 157.691 147.978 157.871C146.96 157.956 145.95 158.204 145.733 158.421C144.819 159.336 143.142 159.56 138.745 159.354C132.199 159.048 130.256 158.71 130.223 157.872C130.214 157.656 130.15 156.925 130.081 156.247C130.011 155.57 129.891 154.199 129.814 153.201C129.652 151.109 129.093 150.365 127.473 150.084C125.635 149.766 121.921 147.159 121.921 146.188C121.921 146.045 121.898 145.824 121.87 145.696C121.842 145.569 121.569 144.356 121.262 143.001C120.955 141.646 120.701 140.442 120.696 140.327C120.688 140.094 120.758 140.113 134.045 144.062C139.274 145.616 143.6 146.839 143.658 146.781C143.717 146.722 145.304 140.511 147.185 132.977C149.067 125.444 150.676 119.074 150.761 118.821C150.846 118.568 151.468 119.747 152.143 121.44C153.337 124.432 153.367 124.601 153.241 127.516C153.089 131.038 153.431 131.976 154.485 130.923C155.015 130.392 155.09 129.976 155.006 128.026C154.952 126.774 154.844 124.031 154.765 121.93L154.623 118.11L155.6 117.087C156.512 116.132 156.657 116.083 157.78 116.342C158.477 116.502 159.295 116.985 159.723 117.488C160.437 118.327 160.445 118.329 159.972 117.547C159.703 117.102 159.363 116.323 159.218 115.816C158.843 114.51 159.824 113.397 161.66 113.047C163.306 112.733 164.523 113.297 165.796 114.965C166.955 116.486 166.658 117.768 164.537 120.393L162.847 122.485L162.92 126.344C163.001 130.669 163.285 133.201 163.893 135.004C164.27 136.124 164.242 136.359 163.562 137.87C163.025 139.063 162.87 139.821 163.001 140.626C163.276 142.321 165.211 144.851 168.038 147.213C171.298 149.935 172.45 152.015 171.773 153.957C171.453 154.874 171.433 154.881 169.712 154.688C168.757 154.58 167.843 154.367 167.682 154.215C167.521 154.062 167.224 153.937 167.022 153.937C166.213 153.937 166.347 154.953 167.366 156.546C169.064 159.201 168.722 160.859 166.234 162.032C165.062 162.585 163.995 162.654 162.43 162.277Z" fill="#C8C3FF"/>
<path d="M248.258 301.875C246.677 301.243 246.375 301.002 246.375 300.375C246.375 299.53 246.543 299.445 248.666 299.215C250.082 299.061 250.248 299.117 251.067 300.035C252.199 301.302 252.144 302.526 250.953 302.587C250.506 302.61 249.293 302.289 248.258 301.875Z" fill="#C8C3FF"/>
<path d="M183.814 243.462C183.744 243.396 182.577 243.244 181.222 243.124C179.867 243.004 178.688 242.866 178.603 242.817C178.518 242.767 177.34 242.629 175.985 242.509C174.63 242.389 173.451 242.251 173.366 242.202C173.281 242.154 172.311 242.024 171.21 241.914C170.108 241.804 168.583 241.644 167.821 241.559C164.923 241.234 163.868 241.125 160.428 240.788C156.847 240.437 156.309 240.32 156.541 239.94C156.612 239.825 156.768 238.413 156.887 236.804C157.007 235.194 157.144 233.669 157.192 233.415C157.24 233.161 157.37 231.775 157.482 230.334C157.593 228.894 157.741 227.369 157.811 226.946C157.881 226.522 158.017 225.205 158.114 224.019C158.323 221.441 158.546 218.978 158.744 217.088C158.823 216.326 158.951 215.009 159.028 214.162C159.53 208.613 159.656 207.307 159.978 204.304C160.086 203.287 160.198 202.138 160.225 201.75C160.265 201.166 159.851 200.82 157.809 199.735C154.689 198.076 148.98 195.06 144.409 192.655C142.46 191.629 140.312 190.488 139.634 190.118C138.443 189.468 137.806 188.667 135.443 184.839L134.332 183.04L130.814 182.302L127.296 181.564L125.583 179.225C124.64 177.939 121.047 173.005 117.598 168.261C114.149 163.517 110.522 158.537 109.539 157.194C108.555 155.851 107.749 154.603 107.748 154.421C107.746 154.122 111.728 143.14 111.926 142.899C112.296 142.45 115.28 145.142 116.492 147.018C117.31 148.284 119.57 150.196 121.035 150.861C121.654 151.142 122 151.143 122.517 150.867C123.106 150.552 123.365 150.647 124.544 151.614C125.287 152.223 126.16 153.099 126.485 153.56C127.212 154.596 128.39 157.247 128.39 157.849C128.39 158.641 127.599 159.115 125.922 159.328C124.245 159.541 122.845 160.214 122.845 160.807C122.845 160.989 123.15 161.584 123.524 162.129C124.101 162.971 124.666 163.26 127.297 164.062C132.161 165.543 133.094 165.691 135.331 165.333C136.424 165.159 137.686 164.848 138.136 164.644C138.87 164.309 139.003 164.348 139.447 165.026C139.719 165.441 140.774 166.874 141.79 168.209C144.193 171.366 144.987 172.907 144.822 174.097C144.723 174.809 144.768 174.926 145.006 174.577C145.201 174.29 145.25 172.921 145.135 170.974L144.949 167.834L148.201 166.216C150.069 165.287 151.513 164.373 151.592 164.069C151.722 163.571 151.654 163.572 150.457 164.083C149.757 164.382 148.455 164.812 147.564 165.039C146.056 165.424 145.887 165.409 145.1 164.821C143.02 163.268 144.775 160.326 147.902 160.123C148.552 160.081 149.8 159.812 150.674 159.525C151.549 159.239 152.648 159.052 153.118 159.11C154.136 159.236 154.976 160.386 155.045 161.748C155.072 162.281 155.335 163.182 155.629 163.751C156.397 165.233 158.749 167.485 159.572 167.527C159.958 167.546 160.412 167.595 160.582 167.634C160.751 167.673 161.047 167.727 161.239 167.752C161.43 167.778 162.162 168.681 162.864 169.759L164.141 171.718L166.026 171.915C167.063 172.023 168.827 172.112 169.947 172.112C171.066 172.112 172.951 172.389 174.136 172.728C175.321 173.067 176.292 173.344 176.292 173.344C176.292 173.344 176.32 172.839 176.354 172.221C176.388 171.603 176.631 170.561 176.893 169.904C177.156 169.248 177.371 168.348 177.371 167.905C177.371 167.125 177.415 167.106 178.788 167.294C180.551 167.535 182.454 168.173 184.542 169.222C185.427 169.666 186.198 170.073 186.257 170.125C186.341 170.2 185.218 174.409 184.594 176.358C184.525 176.575 184.795 176.877 185.194 177.029C185.596 177.182 186.095 177.762 186.31 178.328L186.7 179.351L186.909 178.427C187.044 177.832 186.95 177.174 186.647 176.579C186.368 176.03 186.171 174.806 186.163 173.565C186.149 171.352 186.459 170.817 187.58 171.11C188.679 171.397 190.847 170.297 191.838 168.95C192.619 167.888 192.773 167.391 192.773 165.938C192.773 164.589 192.635 164.073 192.157 163.641C191.449 163 191.298 160.773 191.92 160.15C192.447 159.623 190.552 157.914 188.798 157.335C187.74 156.986 187.269 156.57 186.406 155.22C185.488 153.786 185.332 153.277 185.339 151.746C185.344 150.759 185.494 149.679 185.672 149.346C185.925 148.874 185.814 148.321 185.169 146.833L184.341 144.925L184.938 143.196C185.441 141.738 185.737 141.355 186.83 140.755C188.016 140.103 188.097 139.982 187.793 139.314C187.506 138.684 187.604 138.406 188.499 137.299C190.912 134.319 190.691 134.491 191.806 134.718C192.526 134.864 192.948 135.179 193.192 135.752C193.386 136.205 194.065 137.032 194.703 137.591C196.803 139.428 197.101 140.078 197.22 143.07C197.325 145.704 197.372 145.854 198.901 148.395C200.824 151.594 201.034 153.327 199.423 152.715C198.8 152.478 198.753 152.534 198.878 153.38C198.952 153.889 198.829 154.864 198.604 155.546C198.219 156.71 198.236 156.822 198.875 157.339C199.44 157.797 199.748 157.837 200.691 157.577C201.871 157.251 202.906 157.445 205.265 158.43C206.242 158.838 206.35 158.974 205.986 159.329C205.751 159.559 204.934 159.835 204.171 159.941C202.002 160.243 201.844 160.754 203.274 162.838C204.406 164.487 204.659 165.323 204.771 167.799C204.831 169.109 205.313 167.855 205.542 165.797C205.897 162.594 206.314 161.613 207.534 161.103L208.618 160.65L210.687 162.915C212.134 164.5 212.855 165.569 213.085 166.473C213.576 168.405 213.487 169.573 212.797 170.264C212.458 170.603 212.181 171.275 212.181 171.758C212.181 172.658 212.747 174.609 213.089 174.885C213.193 174.969 213.74 175.766 214.302 176.656C214.865 177.545 215.419 178.273 215.533 178.273C216.01 178.273 217.168 177.236 217.414 176.59C217.559 176.206 217.762 175.077 217.863 174.079C217.965 173.082 218.246 171.85 218.487 171.342C218.729 170.834 219.207 169.44 219.549 168.245C219.891 167.05 220.589 165.456 221.099 164.702C222.201 163.077 222.263 162.379 221.389 161.449C220.656 160.668 219.763 156.968 220.067 155.968C220.467 154.653 221.129 154.245 222.862 154.245C224.108 154.245 224.941 154.472 226.247 155.169C227.199 155.677 228.254 156.093 228.592 156.093C228.929 156.093 229.649 156.564 230.191 157.139C230.734 157.714 231.78 158.492 232.517 158.868C233.814 159.53 234.946 160.58 234.967 161.142C234.972 161.293 234.749 161.583 234.47 161.787C234.005 162.127 234.016 162.232 234.607 163.053C234.962 163.546 235.341 164.451 235.449 165.064C235.632 166.1 235.58 166.203 234.72 166.503C234.21 166.681 233.638 167.115 233.45 167.467C233.261 167.819 232.835 168.107 232.502 168.107C231.684 168.107 231.741 168.696 232.66 169.765C233.08 170.253 233.51 171.111 233.615 171.672C233.742 172.35 234.143 172.922 234.811 173.38C236.993 174.875 236.995 177.966 234.815 181.691C232.234 186.101 232.055 186.297 230.714 186.166C230.061 186.103 229.159 185.81 228.71 185.516L227.894 184.981L228.378 186.139C228.915 187.424 228.579 187.975 227.468 187.629C226.326 187.273 225.881 187.291 225.398 187.712C224.979 188.077 224.754 188.075 223.858 187.697C223.281 187.453 222.601 186.96 222.347 186.601C221.957 186.049 221.692 185.979 220.652 186.151C219.975 186.263 219.175 186.483 218.874 186.641C218.386 186.897 218.446 187.038 219.443 187.978C220.485 188.962 220.543 189.112 220.338 190.326C220.18 191.261 219.658 192.166 218.467 193.569C217.559 194.64 216.728 195.865 216.621 196.29C216.514 196.716 216.269 197.065 216.075 197.066C215.882 197.067 216.118 197.383 216.6 197.769C217.34 198.362 217.462 198.66 217.382 199.693C217.331 200.365 217.066 201.262 216.794 201.685C216.522 202.109 216.024 202.871 215.687 203.38C215.35 203.888 214.458 205.375 213.705 206.685C212.145 209.395 211.641 209.695 208.64 209.695C206.435 209.695 205.819 210.14 205.659 211.851C205.559 212.912 205.535 212.929 204.171 212.91C203.409 212.9 202.406 212.805 201.943 212.701C200.709 212.421 200.628 212.934 201.78 213.73C202.333 214.112 202.837 214.463 202.901 214.512C203.223 214.754 203.259 217.198 202.953 218.124C202.546 219.358 201.401 219.953 199.261 220.042C196.842 220.142 196.958 220.089 197.474 220.862C197.91 221.515 197.873 221.618 196.819 222.644C195.257 224.163 193.456 226.539 192.621 228.178C192.233 228.94 191.609 229.841 191.235 230.18C190.423 230.914 189.693 232.25 189.693 233.003C189.693 233.301 188.975 235.063 188.099 236.918C186.761 239.749 186.51 240.555 186.538 241.936L186.571 243.581H185.257C184.534 243.581 183.885 243.527 183.814 243.462Z" fill="#C8C3FF"/>
<path d="M246.023 226.424C244.381 225.406 244.448 222.396 246.153 220.551C246.845 219.802 247.628 219.854 248.608 220.715C249.595 221.582 249.108 225.153 247.842 226.332C247.055 227.065 247.055 227.065 246.023 226.424Z" fill="#C8C3FF"/>
<path d="M230.067 222.977C229.352 221.641 230.363 218.609 231.865 217.584C233.069 216.764 233.407 216.691 235.787 216.745C237.236 216.777 237.398 216.856 237.747 217.699C238.094 218.536 238.041 218.754 237.158 220.129C235.875 222.13 234.044 223.325 232.003 223.496C230.628 223.611 230.369 223.542 230.067 222.977Z" fill="#C8C3FF"/>
<path d="M223.194 216.236C222.773 216.145 222.655 215.799 222.655 214.663C222.655 213.862 222.488 213.04 222.285 212.837C222.082 212.634 221.146 212.454 220.206 212.437C216.569 212.371 216.004 211.586 218.021 209.401C219.18 208.145 219.384 207.592 219.332 205.844C219.152 199.792 219.335 197.869 220.535 193.159C220.91 191.687 221.026 191.547 222.021 191.36C222.96 191.184 223.192 191.272 223.801 192.032C224.186 192.513 224.744 193.495 225.041 194.214C225.503 195.333 225.715 195.525 226.505 195.54C227.115 195.552 228.321 196.18 230.048 197.385C231.488 198.39 233.53 199.803 234.585 200.526C235.641 201.248 236.508 202.047 236.512 202.302C236.517 202.556 236.862 203.318 237.279 203.996C237.697 204.674 238.042 205.472 238.048 205.77C238.056 206.241 238.269 206.287 239.675 206.126C241.128 205.96 241.407 206.03 242.43 206.817C243.418 207.577 243.554 207.834 243.462 208.771C243.306 210.362 243.094 210.706 241.826 211.425C240.676 212.076 240.675 212.076 239.29 211.476C238.399 211.091 237.499 210.929 236.771 211.023C235.873 211.14 235.503 211.025 234.979 210.467C234.615 210.08 234.362 209.517 234.416 209.216C234.561 208.411 231.785 206.992 231.129 207.536C230.873 207.748 230.664 208.243 230.664 208.634C230.664 209.73 230.104 210.957 229.187 211.872C228.729 212.329 228.045 213.111 227.669 213.609C226.702 214.889 225.501 216.157 225.211 216.203C224.437 216.327 223.668 216.34 223.194 216.236Z" fill="#C8C3FF"/>
<path d="M182.729 167.693C181.697 167.358 180.38 166.486 179.065 165.269C178.557 164.799 178.024 164.413 177.88 164.412C177.271 164.409 175.83 163.087 175.83 162.532C175.83 161.757 180.715 155.169 181.288 155.169C182.062 155.169 184.898 158.155 185.724 159.84C186.975 162.391 187.845 164.802 187.845 165.722C187.845 166.351 187.551 166.753 186.661 167.341C185.443 168.148 184.412 168.24 182.729 167.693Z" fill="#C8C3FF"/>
<path d="M297.126 214.135C297.069 214.078 295.116 213.949 292.786 213.85C289.451 213.707 288.411 213.557 287.903 213.145C287.549 212.857 286.819 212.248 286.281 211.792C285.462 211.097 285.06 210.978 283.784 211.051C282.102 211.148 281.098 210.86 277.877 209.359C275.94 208.457 275.656 208.213 275.302 207.14C274.95 206.072 274.964 205.902 275.426 205.643C276 205.322 276.131 204.766 275.633 204.766C275.459 204.766 274.628 204.292 273.786 203.712C272.944 203.133 271.835 202.567 271.323 202.454C270.734 202.325 270.226 201.929 269.94 201.376C269.26 200.061 267.687 199.091 265.948 198.914C264.652 198.782 264.315 198.864 263.729 199.452C263.224 199.958 262.677 200.145 261.701 200.145C260.567 200.145 260.164 200.332 259.043 201.377L257.721 202.609H255.166C250.919 202.609 249.961 201.831 249.56 198.052C249.421 196.738 249.495 196.518 250.355 195.698C251.087 194.999 251.304 194.527 251.304 193.629C251.304 192.835 251.475 192.374 251.843 192.179C252.139 192.021 254.027 191.872 256.039 191.847C259.354 191.806 259.785 191.735 260.66 191.081C262.027 190.058 263.485 189.363 264.263 189.363C264.81 189.363 264.893 189.239 264.725 188.67C264.483 187.854 264.299 187.129 264.266 186.862C264.253 186.758 263.671 186.295 262.973 185.833C261.78 185.043 261.714 184.922 261.863 183.808C261.95 183.156 262.224 182.233 262.47 181.757C262.717 181.281 263.636 179.482 264.512 177.758L266.106 174.625L265.503 172.448C264.928 170.374 263.129 167.509 261.612 166.249C261.318 166.005 260.747 165.282 260.343 164.643C259.924 163.978 258.957 163.118 258.089 162.636C256.876 161.962 256.518 161.575 256.311 160.714C256.079 159.746 255.959 159.647 255.141 159.741C254.64 159.799 254.022 160.026 253.768 160.244C253.514 160.463 252.73 160.931 252.027 161.285C250.933 161.835 250.695 161.865 250.384 161.49C249.868 160.868 250.281 159.782 251.408 158.797C252.346 157.976 252.354 157.947 251.759 157.497C250.977 156.906 250.562 156.907 249.412 157.502C248.208 158.124 247.607 157.88 247.607 156.766C247.607 156.172 247.813 155.787 248.233 155.6C248.816 155.34 248.758 155.223 247.386 153.885C244.881 151.445 243.465 150.324 243.063 150.464C242.851 150.539 242.678 151.073 242.678 151.652V152.705L239.521 152.777C237.784 152.817 235.445 152.831 234.323 152.808C232.604 152.774 232.289 152.847 232.321 153.275C232.353 153.712 231.994 153.778 229.74 153.75C228.3 153.732 225.666 153.611 223.887 153.481C221.905 153.336 220.224 153.364 219.546 153.552C218.184 153.931 217.158 153.291 216.626 151.729C216.326 150.85 216.147 150.713 215.383 150.78C211.749 151.095 211.572 151.081 210.649 150.4C208.609 148.896 206.944 146.493 206.944 145.055C206.944 144.594 207.244 144.43 208.373 144.275C209.159 144.167 210.367 144.079 211.058 144.079C212.134 144.079 212.249 144.019 211.862 143.657C211.194 143.033 209.491 142.539 208.009 142.539C207.053 142.539 206.642 142.394 206.481 142C205.937 140.668 205.492 138.1 205.573 136.762C205.959 130.419 206.079 129.698 207.402 125.845C209.324 120.243 210.752 117.652 212.489 116.617C215.242 114.977 219.704 115.433 220.233 117.409C220.438 118.176 220.318 118.481 219.425 119.47C218.82 120.139 218.284 121.127 218.159 121.804C218.039 122.449 217.734 123.294 217.482 123.682C216.926 124.537 216.145 127.746 216.396 128.151C216.494 128.311 216.616 129.462 216.666 130.708C216.767 133.242 216.898 133.605 217.711 133.605C218.07 133.605 218.352 133.297 218.486 132.758C218.603 132.292 218.924 131.66 219.2 131.354C219.604 130.905 219.629 130.695 219.329 130.276C218.556 129.195 218.232 128.168 218.21 126.724C218.193 125.576 218.333 125.116 218.819 124.721C219.166 124.44 219.543 123.967 219.656 123.67C219.77 123.374 220.006 123.131 220.181 123.131C220.355 123.131 220.498 122.851 220.498 122.508C220.498 121.408 222.844 118.075 224.123 117.356C225.484 116.591 228.43 116.044 229.351 116.385C229.906 116.59 230.428 117.377 232.295 120.821C233.473 122.994 234.346 125.394 234.187 126.026C233.967 126.902 235.104 128.369 236 128.366C236.369 128.366 237.198 128.219 237.841 128.04C238.806 127.772 238.978 127.609 238.819 127.11C238.485 126.057 240.35 124.54 242.544 124.08C244.283 123.715 244.487 123.732 245.471 124.332C246.053 124.687 246.875 124.983 247.299 124.99C248.261 125.005 249.618 126.117 249.918 127.136C250.224 128.175 250.974 128.984 251.632 128.984C252.024 128.984 252.231 129.325 252.382 130.217C252.496 130.894 252.71 131.449 252.858 131.449C253.005 131.449 253.897 132.214 254.84 133.15C256.252 134.551 256.585 134.755 256.724 134.305C256.817 134.005 257.091 133.306 257.331 132.752C257.815 131.638 258.107 131.623 260.779 132.575C261.898 132.973 262.188 133.266 262.745 134.563C263.129 135.455 263.754 136.293 264.259 136.591C264.731 136.87 265.276 137.393 265.469 137.754C266.115 138.961 266.866 139.202 267.77 138.49C268.752 137.718 269.499 137.861 271.3 139.166C272.449 139.998 272.595 140.231 272.418 140.946C271.889 143.082 271.867 143.488 272.29 143.398C272.521 143.349 272.952 142.928 273.247 142.462C274.023 141.235 274.969 141.37 276.464 142.924C277.878 144.393 278.542 145.477 278.586 146.389C278.668 148.107 278.764 148.298 279.785 148.785C280.37 149.064 281.064 149.708 281.326 150.215L281.803 151.137L280.396 151.961C279.239 152.64 278.862 152.728 278.27 152.458C277.314 152.022 277.103 152.3 277.698 153.208C278.164 153.92 278.144 155.193 277.648 156.447C277.381 157.121 278.414 158.06 279.917 158.51C280.566 158.705 281.636 159.231 282.296 159.68C282.956 160.129 283.981 160.519 284.574 160.546C285.167 160.574 285.998 160.741 286.422 160.917C286.845 161.094 287.996 161.178 288.978 161.104L290.763 160.969L292.417 162.69C293.867 164.199 294.225 164.415 295.329 164.449C296.021 164.47 296.755 164.505 296.96 164.526C297.165 164.547 297.426 165.022 297.541 165.581C297.655 166.141 297.839 166.688 297.949 166.799C298.059 166.909 299.112 166.665 300.289 166.257L302.429 165.515L303.59 166.177C304.674 166.795 304.758 166.946 304.846 168.458C304.964 170.451 304.793 171.176 303.987 172.105C303.4 172.782 303.392 172.864 303.873 173.395C304.286 173.852 304.32 174.109 304.046 174.711C303.858 175.123 303.784 175.944 303.88 176.536C304.106 177.931 303.076 179.505 301.937 179.505C301.28 179.505 301.199 179.607 301.381 180.198C301.711 181.263 302.703 183.137 303.052 183.353C303.696 183.751 303.325 184.39 302.095 184.998C300.845 185.617 300.807 185.618 299.747 185.049C299.155 184.732 297.989 184.298 297.156 184.084C295.847 183.749 295.501 183.482 294.593 182.115C293.414 180.339 291.268 178.273 290.602 178.273C290.36 178.273 289.979 178.094 289.756 177.875C288.509 176.658 286.422 175.911 286.422 176.683C286.422 176.826 286.055 177.109 285.607 177.313L284.793 177.684L285.631 178.56C286.632 179.604 286.628 181.007 285.622 181.505C285.138 181.745 285.037 181.978 285.216 182.436C285.347 182.773 285.464 182.942 285.476 182.813C285.512 182.428 287.726 183.476 288.147 184.077C288.361 184.382 289.096 185.257 289.78 186.022C290.991 187.374 291.405 187.579 294.63 188.42C295.59 188.671 295.953 188.941 296.097 189.511C296.201 189.928 296.565 190.418 296.904 190.6C297.243 190.781 297.862 191.47 298.278 192.129C298.695 192.789 300.013 194.326 301.208 195.545L303.38 197.761L303.317 202.05C303.282 204.409 303.154 206.4 303.033 206.475C302.698 206.682 297.111 204.894 294.141 203.63C292.691 203.013 291.077 202.139 290.555 201.689C289.676 200.931 288.804 200.773 286.961 201.036C286.435 201.111 286.788 201.635 287.59 201.967C288.063 202.163 288.701 202.789 289.008 203.359C289.466 204.21 289.988 204.556 291.922 205.291C293.217 205.784 295.768 207.15 297.59 208.326L300.902 210.465L300.824 212.313L300.746 214.161L298.988 214.2C298.02 214.221 297.182 214.191 297.126 214.135Z" fill="#C8C3FF"/>
<path d="M252.306 212.987C251.149 212.207 250.788 211.395 251.316 210.758C251.826 210.144 252.435 210.197 253.489 210.948C254.43 211.618 254.664 212.68 254.015 213.33C253.543 213.801 253.501 213.793 252.306 212.987Z" fill="#C8C3FF"/>
<path d="M255.675 209.475C255.111 209.367 254.984 209.169 255.059 208.516C255.131 207.891 255.346 207.67 255.949 207.6C256.984 207.48 258.19 208.436 257.913 209.159C257.712 209.681 257.161 209.759 255.675 209.475Z" fill="#C8C3FF"/>
<path d="M250.69 175.243C248.616 173.168 249.3 166.769 251.768 165.151C252.862 164.434 254.536 164.818 255.653 166.041C256.52 166.99 256.541 167.094 256.541 170.433C256.541 174.248 256.409 174.519 254.03 175.604C252.444 176.327 251.693 176.246 250.69 175.243Z" fill="#C8C3FF"/>
<path d="M259.159 169.589C258.24 169.158 257.469 167.983 257.778 167.483C258.147 166.887 260.588 167.058 261.084 167.715C261.676 168.499 261.549 168.975 260.622 169.447C260.04 169.743 259.582 169.787 259.159 169.589Z" fill="#C8C3FF"/>
<path d="M240.727 161.433C240.404 161.11 240.473 160.926 241.253 160.019C241.708 159.49 242.062 158.577 242.192 157.598C242.392 156.087 243.104 154.553 243.605 154.553C244.065 154.553 244.213 155.527 243.854 156.193C243.655 156.562 243.521 157.317 243.557 157.872C243.666 159.551 241.532 162.237 240.727 161.433Z" fill="#C8C3FF"/>
<path d="M177.776 139.442C176.983 138.787 176.313 138.003 176.288 137.7C176.012 134.382 175.52 133.544 172.722 131.627C172.185 131.259 171.305 130.133 170.768 129.124C169.815 127.336 169.802 127.255 170.227 125.904C170.467 125.142 171.001 124.264 171.413 123.953C172.159 123.391 172.173 123.395 173.809 124.631C175.391 125.824 175.475 125.851 175.966 125.309C176.246 124.999 176.619 124.229 176.793 123.598C177.064 122.614 177.023 122.357 176.502 121.79C175.027 120.184 174.661 119.185 174.985 117.649C175.337 115.983 176.269 114.506 176.969 114.506C177.233 114.506 178.177 114.922 179.066 115.431C180.454 116.225 180.735 116.292 181.054 115.909C181.81 114.998 185.192 114.283 185.919 114.881C186.139 115.061 186.304 115.896 186.304 116.821C186.304 118.082 186.184 118.491 185.765 118.654C185.252 118.853 185.252 118.882 185.765 119.26C186.557 119.843 186.45 120.174 184.918 121.899C184.156 122.758 183.532 123.601 183.532 123.774C183.532 123.947 183.948 124.233 184.456 124.41C185.167 124.658 185.381 124.92 185.385 125.549C185.387 125.998 185.589 126.713 185.834 127.136C186.751 128.726 186.972 129.506 187.116 131.658C187.248 133.628 187.181 134.002 186.496 135.086C185.699 136.349 183.998 137.61 183.092 137.61C182.806 137.61 182.65 137.737 182.746 137.892C183.047 138.379 181.468 139.943 180.318 140.296C179.277 140.615 179.139 140.569 177.776 139.442Z" fill="#C8C3FF"/>
<path d="M190.505 133.583C189.849 133.068 189.693 132.686 189.693 131.601C189.693 130.862 189.55 129.881 189.375 129.421C188.651 127.515 189.217 120.446 190.287 118.026C190.643 117.223 191.018 116.038 191.121 115.392C191.383 113.755 192.323 113.221 195.737 112.771C196.666 112.649 197.344 112.777 198.266 113.247C198.959 113.601 199.813 113.89 200.164 113.89C201.054 113.89 202.869 114.687 204.078 115.609C205.092 116.383 205.094 116.389 204.596 117.371C204.322 117.913 203.9 118.582 203.659 118.858C203.418 119.134 203.149 119.757 203.062 120.244C202.974 120.731 202.437 121.822 201.867 122.669C201.283 123.536 200.661 124.998 200.443 126.012C200.229 127.004 199.907 127.86 199.726 127.915C199.545 127.97 198.505 128.092 197.416 128.185C196.326 128.279 195.332 128.463 195.206 128.593C195.02 128.786 194.73 130.994 194.64 132.904C194.616 133.399 193.006 134.221 192.06 134.221C191.651 134.221 190.951 133.934 190.505 133.583Z" fill="#C8C3FF"/>
<path d="M235.027 123.363C233.598 121.039 231.544 116.605 231.704 116.189C231.971 115.494 238.174 115.575 239.481 116.29C241.252 117.26 243.447 119.545 244.478 121.493C245.082 122.634 244.2 123.185 241.903 123.101C240.432 123.048 239.677 123.189 238.7 123.698C236.821 124.677 235.777 124.582 235.027 123.363Z" fill="#C8C3FF"/>
<path d="M204.325 108.799C203.648 108.381 202.669 108.039 202.151 108.038C200.573 108.036 200.114 107.459 199.999 105.336C199.942 104.296 199.757 103.185 199.587 102.868C199.105 101.967 198.918 99.0926 199.296 98.3867C199.482 98.0392 199.659 96.9839 199.69 96.0416C199.736 94.5966 199.613 94.1596 198.905 93.2502C198.442 92.6572 198.016 91.8947 197.957 91.5559C197.865 91.0248 197.532 90.9141 195.543 90.7536C194.274 90.6511 193.011 90.4698 192.736 90.3506C192.036 90.0473 189.207 86.4665 188.996 85.6184C188.901 85.2331 188.955 84.4371 189.117 83.8495C189.472 82.5667 190.221 82.3007 192.67 82.5886C195.213 82.8875 196.729 83.847 197.224 85.4711C197.478 86.3035 198.267 86.5317 200.321 86.3672C202.781 86.1702 203.849 86.7686 203.859 88.3489C203.862 88.8994 204.103 89.2559 204.638 89.4996C205.819 90.0374 206.144 91.0336 205.627 92.5318C205.197 93.7814 205.201 93.7954 206.223 94.7952C206.789 95.3485 207.252 96.1105 207.252 96.4887C207.252 97.0618 207.47 97.2083 208.561 97.3693C209.281 97.4755 211.049 97.7921 212.489 98.0729L215.107 98.5834L216.831 97.7651C217.78 97.3151 218.702 96.9468 218.882 96.9468C219.061 96.9468 219.797 96.455 220.516 95.8538C221.797 94.7836 221.877 94.7619 224.319 94.8197C227.2 94.8879 228.082 95.1419 230.202 96.5143C232.751 98.1647 234.115 100.458 233.131 101.442C232.929 101.644 232.95 102.077 233.193 102.72C233.501 103.537 233.48 103.782 233.061 104.248C232.786 104.553 232.511 105.287 232.45 105.88C232.353 106.82 232.147 107.054 230.853 107.7C228.295 108.977 224.567 108.967 223.994 107.683C223.744 107.124 223.639 107.092 223.248 107.457C222.998 107.691 222.173 108.19 221.415 108.565C220.221 109.156 219.418 109.263 215.415 109.365C210.476 109.491 209.333 109.257 208.947 108.04C208.678 107.193 208.46 107.252 207.252 108.499C206.677 109.092 206.061 109.573 205.882 109.567C205.704 109.562 205.003 109.216 204.325 108.799Z" fill="#C8C3FF"/>
<path d="M193.852 107.814C193.218 107.657 189.808 105.336 188.945 104.473C188.192 103.72 188.36 102.749 189.669 100.293C190.704 98.3488 191.045 97.967 192.056 97.6185C193.451 97.1376 194.919 97.4684 196.231 98.5594C197.031 99.2237 197.081 99.43 197.276 102.847C197.48 106.423 197.478 106.441 196.682 107.237C195.917 108.001 195.203 108.147 193.852 107.814Z" fill="#C8C3FF"/>
<path d="M181.788 102.158C180.383 101.512 178.911 99.9714 178.911 99.1481C178.911 98.8599 179.355 98.2345 179.898 97.7583L180.884 96.8925L178.017 96.9862C174.773 97.0922 174.29 96.8172 174.29 94.8652C174.29 93.3939 173.898 92.8245 172.139 91.7421C171.289 91.2192 170.594 90.7074 170.594 90.605C170.594 90.5025 170.828 90.0222 171.114 89.5378C171.597 88.7195 171.734 88.6699 173.039 88.8398C174.707 89.0569 175.522 89.4284 175.522 89.9712C175.522 90.1891 176.144 91.0159 176.903 91.8087C177.928 92.878 178.516 93.2501 179.18 93.2501C179.981 93.2501 180.09 93.1312 180.206 92.1307C180.346 90.9342 179.913 90.3191 178.218 89.3092C177.752 89.0316 177.371 88.6296 177.371 88.4159C177.371 88.2023 178.061 87.4816 178.905 86.8146C180.054 85.9065 180.654 85.6323 181.293 85.7237C181.762 85.7908 182.895 85.9159 183.811 86.0017C184.728 86.0875 185.813 86.3776 186.223 86.6462L186.969 87.1348L186.798 92.8477C186.696 96.2368 186.491 98.7241 186.293 98.9625C186.1 99.1956 186.044 99.8136 186.16 100.434C186.472 102.095 185.928 102.805 184.368 102.774C183.654 102.76 182.493 102.482 181.788 102.158Z" fill="#C8C3FF"/>
<path d="M159.386 100.197C158.12 99.4197 157.278 99.4079 156.451 100.156C156.174 100.407 155.784 100.511 155.584 100.388C155.11 100.095 156.79 93.0589 157.306 93.173C157.532 93.2229 157.655 92.6695 157.655 91.6049C157.655 89.5402 159.099 82.2408 159.692 81.3129C160.602 79.8856 163.024 81.0704 162.23 82.5547C162.017 82.9512 162.006 83.3893 162.197 83.8163C162.527 84.554 162.428 86.5227 162.02 87.3269C161.872 87.6196 161.765 88.4136 161.782 89.0913C161.809 90.1462 161.92 90.3385 162.552 90.4279C162.958 90.4853 163.904 90.3605 164.654 90.1506C165.883 89.8063 166.075 89.8267 166.607 90.3586C167.745 91.497 168.017 95.7659 167.036 97.0882C166.779 97.4339 166.285 98.1629 165.938 98.7081C164.505 100.96 161.674 101.604 159.386 100.197Z" fill="#C8C3FF"/>
<path d="M167.809 100.151C167.591 99.5756 167.648 99.1738 168.038 98.5499C168.324 98.0918 168.57 97.6897 168.584 97.6563C168.598 97.6229 169.049 97.5181 169.586 97.4235C170.508 97.2612 170.599 97.3334 171.201 98.6941C171.589 99.571 171.728 100.248 171.556 100.42C171.401 100.576 170.56 100.751 169.687 100.811C168.234 100.91 168.077 100.854 167.809 100.151Z" fill="#C8C3FF"/>
<path d="M227.739 90.4804C227.631 90.1431 227.613 89.7553 227.697 89.6186C227.932 89.2396 227.525 88.7686 226.512 88.2434C225.635 87.7891 225.562 87.8023 224.879 88.5387C224.352 89.1075 223.987 89.2542 223.487 89.0986C223.114 88.9826 222.462 88.8155 222.039 88.7273C221.615 88.6391 220.966 88.2095 220.597 87.7726C220.028 87.1001 219.851 87.0398 219.441 87.3795C219.176 87.6001 218.958 88.1462 218.958 88.593C218.958 89.6517 217.977 90.2738 216.738 90.0015C216.223 89.8884 214.094 89.7745 212.007 89.7483C208.683 89.7067 208.105 89.621 207.347 89.0567C206.606 88.5048 206.469 88.1656 206.39 86.6863C206.33 85.5615 206.466 84.6349 206.78 84.0271C207.52 82.5974 209.335 80.928 210.151 80.928C211.469 80.928 211.66 80.2094 210.607 79.2089C208.894 77.5797 208.369 75.8387 209.146 74.3616C209.659 73.3869 210.002 73.2366 211.719 73.2317C213.591 73.2264 214.828 74.1324 215.304 75.8584C215.478 76.4874 215.954 77.3362 216.363 77.7447C216.973 78.3548 217.217 78.4277 217.73 78.1531C218.325 77.835 218.288 77.7501 216.983 76.4073C216.229 75.6311 215.447 74.5982 215.245 74.112C214.919 73.3247 214.969 73.11 215.702 72.1491L216.525 71.0702H214.422C211.799 71.0702 210.949 70.5727 210.949 69.0381C210.949 68.448 211.236 67.4027 211.586 66.7154C211.937 66.028 212.15 65.3921 212.061 65.3023C211.575 64.8169 212.951 63.3693 214.799 62.4216L216.835 61.3772L218.878 62.45C221.477 63.8153 221.317 63.7601 221.334 63.3004C221.343 63.0839 221.45 62.6642 221.573 62.3677C221.696 62.0712 221.678 61.8149 221.533 61.798C221.387 61.7812 220.867 61.7323 220.377 61.6892C219.107 61.5778 217.012 59.2348 216.325 57.1581C216.026 56.2535 215.318 54.9044 214.751 54.16C214.185 53.4155 213.721 52.6971 213.721 52.5634C213.721 52.4298 213.456 52.2361 213.131 52.1331C212.256 51.8554 211.915 50.4869 212.151 48.2048C212.427 45.5349 212.745 45.1834 214.722 45.3578C216.775 45.5389 217.333 45.9463 219.587 48.9077C220.63 50.277 221.528 51.3522 221.583 51.2969C221.924 50.9556 221.092 49.0785 220.098 47.9494C218.569 46.2111 218.633 45.2829 220.344 44.4136C221.022 44.0692 222.129 43.4108 222.803 42.9503C223.478 42.4898 224.275 42.1131 224.575 42.1131C224.917 42.1131 225.119 41.8802 225.119 41.4848C225.119 41.1392 225.683 40.3039 226.372 39.6285L227.625 38.4004L226.834 37.4606C226.399 36.9438 226.039 36.2889 226.034 36.0054C226.028 35.7219 225.707 36.1138 225.32 36.8762C223.415 40.6243 221.945 41.9435 219.625 41.9845C218.835 41.9985 217.394 42.1997 216.424 42.4317C213.98 43.0158 212.984 42.6543 212.857 41.1366C212.806 40.521 212.972 39.5185 213.227 38.9088C213.481 38.2992 213.609 37.8004 213.511 37.8004C213.181 37.8004 212.181 39.1213 212.181 39.5565C212.181 39.7928 211.827 40.3143 211.394 40.7153C210.761 41.3019 210.438 41.3958 209.739 41.1954C207.676 40.6036 206.178 38.8777 206.935 37.9649C207.267 37.5654 207.226 37.4923 206.674 37.4923C206.314 37.4923 205.916 37.4714 205.789 37.4459C205.279 37.3434 204.807 36.3573 204.797 35.3773C204.79 34.5544 205.042 34.1083 206.02 33.2142C207.342 32.0056 207.521 31.6393 206.79 31.6393C206.536 31.6393 206.051 31.362 205.712 31.0232C205.373 30.6843 204.776 30.407 204.384 30.407C201.714 30.407 202.441 27.5407 205.404 26.392C205.997 26.162 206.986 25.4465 207.601 24.8019C208.552 23.8061 208.916 23.6298 210.022 23.6298C211.244 23.6298 211.312 23.5844 211.137 22.8864C210.992 22.3096 211.157 21.9688 211.874 21.366C212.381 20.9387 212.797 20.3198 212.797 19.9908C212.797 19.2188 213.425 18.7055 214.194 18.8489C214.527 18.911 214.953 18.9725 215.141 18.9855C215.33 18.9984 215.978 19.3443 216.581 19.754C217.759 20.5531 218.034 20.3925 218.034 18.9058C218.034 18.5379 218.519 17.5545 219.112 16.7204C219.705 15.8863 220.19 14.9569 220.19 14.655C220.19 14.3531 220.74 13.5286 221.411 12.8228C222.394 11.7891 222.789 11.5696 223.442 11.6945C224.118 11.8235 224.303 11.7049 224.554 10.9848C224.883 10.0434 226.17 9.41396 227.344 9.62038C229.677 10.0302 230.412 9.96646 231.786 9.23482C233.317 8.41976 235.695 8.11232 236.639 8.60723C237.057 8.82577 237.74 8.75708 239.028 8.36716C240.334 7.97163 241.023 7.9044 241.524 8.12343C241.905 8.28978 242.979 8.37718 243.911 8.31764C246.201 8.17133 246.769 8.35643 247.226 9.39715C247.647 10.3586 248.482 10.9021 249.896 11.1371C251.086 11.3347 251.598 11.8887 251.935 13.3437C252.366 15.1988 252.281 16.8274 251.633 19.1697C251.177 20.8193 250.804 21.5165 250.028 22.1666C249.472 22.6325 248.853 23.0137 248.652 23.0137C248.096 23.0137 246.52 24.9454 245.63 26.7176C245.193 27.5886 244.835 28.3657 244.835 28.4444C244.835 28.8429 246.39 27.3753 246.674 26.7088C246.855 26.2843 247.416 25.6605 247.92 25.3225C248.425 24.9846 248.838 24.6041 248.838 24.477C248.84 24.1278 250.315 24.2 250.538 24.5602C250.644 24.733 250.732 25.647 250.732 26.5912C250.732 27.8944 250.551 28.5809 249.982 29.4414C248.829 31.183 247.866 33.187 247.996 33.5752C248.06 33.7676 247.464 35.386 246.672 37.1719C245.88 38.9577 245.089 40.7654 244.914 41.189C244.526 42.1311 243.86 45.5211 243.736 47.194C243.616 48.8177 242.162 50.2101 240.738 50.0658C239.87 49.9779 239.758 50.0666 239.569 50.9898C239.453 51.5515 239.049 52.3416 238.669 52.7454C238.023 53.4338 235.488 54.5361 235.205 54.2524C235.134 54.1815 234.811 54.4181 234.487 54.7781C233.906 55.4247 233.907 55.4384 234.592 55.8958C235.418 56.4477 235.506 57.6857 234.775 58.4928C234.366 58.9454 234.35 59.0631 234.698 59.0917C234.936 59.1112 235.27 59.1594 235.439 59.1988C235.608 59.2381 236.003 59.2914 236.317 59.3172C236.63 59.3431 237.288 59.7947 237.78 60.3209C238.909 61.53 239.061 63.7379 238.057 64.3645C237.251 64.8681 237.28 65.1559 238.212 65.8884C238.635 66.2215 238.982 66.7587 238.982 67.082C238.982 67.4522 238.696 67.7415 238.212 67.8632C237.59 68.0192 237.441 68.2474 237.441 69.0458C237.441 70.4297 236.068 71.9132 234.664 72.0465L233.591 72.1484L233.696 74.4657C233.79 76.5511 233.729 76.8595 233.08 77.5463C231.184 79.5521 231.179 79.5633 231.764 80.4556C232.057 80.9022 232.726 81.4897 233.251 81.7612C233.777 82.0327 234.362 82.4674 234.553 82.7271C235.014 83.3566 234.834 84.934 234.118 86.5455C232.75 89.6205 228.331 92.3466 227.739 90.4804Z" fill="#C8C3FF"/>
<path d="M170.129 78.9515C169.28 78.1022 169.129 76.757 169.699 75.1208C170.118 73.921 170.673 73.8884 171.476 75.0166C172.687 76.7174 172.704 78.7528 171.512 79.3907C171.01 79.6594 170.757 79.579 170.129 78.9515Z" fill="#C8C3FF"/>
<path d="M192.81 78.5304C190.614 77.3912 190.382 76.2852 192.033 74.8235C193.379 73.6321 195.078 73.5034 196.649 74.4741C198.371 75.5386 198.4 76.8977 196.729 78.3034C195.686 79.1812 194.227 79.2657 192.81 78.5304Z" fill="#C8C3FF"/>
<path d="M190.107 73.3958C189.089 72.9526 188.609 72.0592 188.899 71.1458C189.006 70.8089 188.72 70.1995 188.142 69.5285C187.014 68.221 186.795 67.4633 187.006 65.5961C187.192 63.941 188.136 62.9256 189.197 63.2379C189.554 63.3432 190.666 63.9702 191.666 64.6313C192.667 65.2924 193.58 65.8333 193.696 65.8333C194.191 65.8333 194.622 67.555 194.622 69.5303V71.6581L193.191 72.7504C191.596 73.9686 191.48 73.9929 190.107 73.3958Z" fill="#C8C3FF"/>
<path d="M183.441 72.8188C183.067 72.4253 182.276 71.5487 181.683 70.8709C179.784 68.7002 178.838 68.1828 176.908 68.2609C175.377 68.3228 175.103 68.2344 174.283 67.4134C173.324 66.4554 173.113 65.342 173.685 64.2728C173.86 63.9451 174.207 63.6769 174.455 63.6769C174.703 63.6769 175.175 63.4084 175.503 63.0803C176.017 62.566 176.055 62.3215 175.779 61.309C175.588 60.6087 175.036 59.7831 174.412 59.2647C172.437 57.623 173.288 55.0514 175.807 55.0514C177.179 55.0514 178.911 56.2593 178.911 57.217C178.911 57.7904 179.355 58.2192 180.06 58.3262C180.812 58.4403 182.261 59.8518 182.931 61.1218C183.307 61.8344 183.854 62.6749 184.148 62.9896C185.206 64.1257 185.346 64.6886 184.893 65.9893C184.283 67.7432 184.342 68.1462 185.38 69.3289C185.888 69.9078 186.304 70.5992 186.304 70.8654C186.304 71.7514 185.629 72.8465 184.87 73.1925C184.231 73.4837 184.019 73.4283 183.441 72.8188Z" fill="#C8C3FF"/>
<path d="M201.118 69.4848C200.427 68.7655 199.781 67.9224 199.682 67.6113C199.584 67.3002 199.152 66.669 198.724 66.2085C197.617 65.0178 196.47 62.6301 196.47 61.5168C196.47 60.2981 197.672 59.0561 198.852 59.0561C199.652 59.0561 200.783 58.1811 200.783 57.5618C200.783 57.287 199.287 56.481 198.78 56.4827C198.611 56.4833 197.816 56.5928 197.013 56.7261C195.148 57.036 194.195 56.7896 193.786 55.892C193.542 55.3568 193.57 54.9686 193.897 54.3444C194.157 53.8484 194.205 53.5112 194.015 53.5112C193.841 53.5112 193.42 53.2339 193.081 52.8951C192.389 52.2028 192.279 50.7502 192.803 49.2444C193.106 48.376 193.27 48.2742 194.364 48.2742C195.492 48.2742 195.57 48.2201 195.368 47.5826C195.247 47.2023 194.737 46.5316 194.233 46.0923C193.458 45.4152 193.35 45.1482 193.528 44.3407C193.777 43.2078 194.394 42.6328 195.503 42.4998C197.424 42.2694 197.48 42.0432 196.004 40.4783L194.922 39.3311L195.545 38.11C195.888 37.4384 196.574 36.6789 197.07 36.4222C197.787 36.0514 197.993 35.7179 198.069 34.7986C198.158 33.7183 198.236 33.6356 199.252 33.55C200.377 33.4554 202.174 34.398 202.657 35.3359C203.34 36.6601 204.171 38.6541 204.171 38.9665C204.171 39.6267 205.465 41.6424 206.824 43.1011C207.819 44.1684 208.176 44.8035 208.176 45.507C208.176 46.2314 208.549 46.857 209.716 48.0914C211.065 49.5177 211.257 49.8819 211.257 51.0232C211.257 52.4026 211.372 52.5525 214.324 55.0102C215.425 55.9265 215.569 56.2008 215.569 57.3688C215.569 58.5062 215.313 59.0303 213.73 61.1271C212.718 62.4672 211.539 63.7512 211.111 63.9804C210.601 64.2537 210.332 64.6595 210.332 65.1587C210.332 65.5776 209.819 66.5938 209.191 67.4171C207.923 69.0799 207.728 69.1758 206.425 68.7811C205.839 68.6036 205.74 68.7083 205.655 69.5928C205.56 70.5837 205.519 70.6104 203.966 70.7004C202.449 70.7883 202.317 70.7318 201.118 69.4848Z" fill="#C8C3FF"/>
<path d="M162.987 64.6012C163.081 64.1776 163.252 63.3112 163.367 62.6758C163.483 62.0405 163.704 61.5206 163.859 61.5206C164.302 61.5206 163.818 64.3917 163.289 64.9092C162.866 65.3224 162.834 65.2897 162.987 64.6012Z" fill="#C8C3FF"/>
<path d="M186.297 51.2679C185.248 50.4289 184.519 49.1783 184.684 48.5016C184.944 47.4384 185.38 47.042 186.287 47.042C186.921 47.042 187.315 47.3422 187.944 48.3019C188.931 49.8095 188.963 50.236 188.153 51.0467C187.451 51.7487 186.97 51.806 186.297 51.2679Z" fill="#C8C3FF"/>
<path d="M247.752 390.232C248.079 389.601 248.505 389.322 249.365 389.178C250.008 389.071 250.712 388.868 250.93 388.727C251.502 388.356 251.798 386.208 251.317 385.911C251.046 385.743 251.021 385.501 251.231 385.094C251.396 384.776 251.624 384 251.738 383.37C251.851 382.739 252.197 382.046 252.506 381.829C253.616 381.05 254.584 379.254 254.481 378.164C254.427 377.591 254.361 375.997 254.334 374.622C254.288 372.282 254.356 371.996 255.392 370.143L256.499 368.163L255.947 366.944C255.644 366.273 255.099 365.461 254.736 365.138C254.093 364.565 253.84 363.722 254.312 363.722C254.442 363.722 255.36 364.55 256.352 365.561C257.99 367.231 259.656 368.306 261.316 368.764C263.003 369.23 263.933 366.399 262.686 364.593C261.871 363.413 258.516 359.772 257.65 359.129C257.328 358.89 256.15 358.589 255.032 358.461C253.913 358.332 252.24 358.008 251.314 357.74C250.118 357.394 248.312 357.253 245.093 357.253C240.862 357.253 240.527 357.21 240.112 356.618C239.868 356.269 238.936 355.606 238.042 355.144C236.721 354.461 236.409 354.149 236.38 353.478C236.36 353.024 235.945 352.236 235.457 351.727C234.697 350.934 234.644 350.774 235.082 350.606C235.765 350.344 235.726 349.68 234.966 348.612C234.62 348.127 234.067 347.119 233.737 346.371C233.21 345.18 232.988 344.987 231.952 344.821C230.768 344.632 227.494 343.067 226.7 342.311C226.468 342.09 226.242 341.376 226.198 340.724C226.153 340.073 226.012 339.142 225.883 338.655L225.649 337.77L223.162 337.933C220.857 338.084 220.544 338.03 218.893 337.197L217.111 336.297L215.84 337.099C214.683 337.829 214.613 337.945 215.054 338.387C215.496 338.828 215.354 338.993 213.475 340.217C212.34 340.957 210.909 342.099 210.296 342.755C209.048 344.088 208.9 344.104 204.479 343.375C203.209 343.165 201.188 342.966 199.988 342.933C197.921 342.875 195.854 342.146 195.854 341.476C195.854 341.343 195.498 341.234 195.063 341.234C194.582 341.234 193.828 340.813 193.138 340.159C192.012 339.091 191.982 339.083 189.176 339.081C187.14 339.079 186.225 338.955 185.908 338.638C185.667 338.396 184.929 338.101 184.269 337.982C182.574 337.676 182.395 337.449 182.16 335.295C181.968 333.538 181.869 333.338 180.97 332.885C180.027 332.41 179.99 332.321 180.022 330.575C180.057 328.606 180.423 320.347 180.607 317.36C180.67 316.343 180.81 313.309 180.918 310.616C181.165 304.47 180.633 305.435 187.978 297.799C189.526 296.189 191.689 293.847 192.784 292.595C193.879 291.343 194.919 290.164 195.095 289.977C195.27 289.789 197.071 287.694 199.097 285.322C201.124 282.95 203.475 280.242 204.323 279.304C208.477 274.711 210.335 272.625 210.899 271.922L211.516 271.152L212.541 271.733C213.8 272.447 215.877 274.388 215.877 274.851C215.877 275.037 216.333 275.632 216.89 276.172C217.639 276.897 218.384 277.246 219.74 277.507C221.007 277.751 221.865 278.131 222.506 278.733C223.388 279.56 224.167 279.857 225.597 279.909C225.944 279.921 226.984 280.603 227.907 281.425L229.586 282.918L235.358 283.111C240.387 283.279 241.295 283.387 242.404 283.953L243.678 284.603L243.469 287.273C243.354 288.742 243.14 290.063 242.995 290.21C242.847 290.358 242.987 290.899 243.312 291.432C243.631 291.958 243.978 293.016 244.083 293.784C244.419 296.248 244.471 296.502 244.761 297.078C244.918 297.39 245.002 298.282 244.949 299.061C244.87 300.205 245.028 300.755 245.767 301.921C246.956 303.796 250.661 308.272 251.024 308.272C251.728 308.272 253.695 310.815 254.247 312.441L254.841 314.189L256.746 314.045L258.651 313.902L258.846 315.477C259.155 317.967 259.282 319.087 259.463 320.903C259.556 321.835 259.691 322.944 259.765 323.367C259.838 323.791 259.982 324.969 260.084 325.986C260.187 327.002 260.321 328.18 260.384 328.604C260.532 329.617 260.822 332.073 261.02 333.995C261.107 334.842 261.239 336.02 261.313 336.613C261.776 340.323 262.076 342.847 262.243 344.434C262.348 345.431 262.85 347.177 263.358 348.315C264.139 350.06 264.563 350.581 266.073 351.646C268.063 353.049 270.844 354.035 273.638 354.329C274.916 354.463 275.922 354.802 276.899 355.426C277.677 355.923 278.578 356.332 278.902 356.336C279.23 356.339 279.863 356.869 280.334 357.534L281.176 358.726L283.836 358.579C286.14 358.452 286.757 358.29 288.44 357.364C290.389 356.293 291.946 355.802 291.991 356.246C292.037 356.717 292.214 357.498 292.419 358.145C292.584 358.665 292.378 359.018 291.454 359.801C289.53 361.431 287.933 363.124 285.652 365.951C284.466 367.421 283.357 368.634 283.187 368.648C282.668 368.688 281.436 369.849 281.611 370.133C281.969 370.713 279.5 371.65 277.454 371.71C273.777 371.82 268.479 373.999 267.35 375.867C266.231 377.718 266.24 378.166 267.405 378.653C267.984 378.895 268.727 379.022 269.056 378.936C269.51 378.818 269.779 379.04 270.166 379.85C270.765 381.107 270.561 381.281 268.491 381.281C267.244 381.281 263.879 382.552 263.01 383.35C262.603 383.724 262.639 383.844 263.31 384.353L264.073 384.931L263.227 385.144C262.762 385.26 261.768 385.202 261.019 385.013C258.097 384.277 257.405 384.602 253.768 388.411C251.775 390.499 251.31 390.835 250.38 390.858C249.787 390.872 248.853 390.931 248.305 390.987L247.308 391.09L247.752 390.232Z" fill="#C8C3FF"/>
<path d="M355.941 335.485C355.852 335.396 354.625 335.273 353.215 335.213C351.805 335.152 349.889 334.879 348.957 334.605C346.893 333.998 346.47 333.896 345.877 333.86C344.621 333.783 344.49 333.33 345.251 331.705C345.653 330.846 346.164 330.144 346.386 330.144C346.608 330.144 347.418 330.746 348.185 331.481C349.307 332.556 349.647 332.737 349.922 332.405C350.124 332.162 350.891 331.992 351.788 331.992C352.625 331.992 353.544 331.869 353.829 331.717C354.814 331.195 357.57 330.49 357.714 330.724C357.794 330.853 357.664 331.334 357.427 331.792C357.189 332.251 356.962 333.241 356.923 333.992C356.86 335.211 356.386 335.931 355.941 335.485Z" fill="#C8C3FF"/>
<path d="M293.753 358.25C293.476 357.781 293.195 356.915 293.129 356.324C293.015 355.31 292.938 355.245 291.738 355.157C290.468 355.063 288.816 355.699 286.99 356.985C286.369 357.423 285.622 357.561 283.873 357.561C281.59 357.561 281.567 357.553 280.84 356.485C280.437 355.893 279.845 355.408 279.525 355.407C279.205 355.406 278.241 354.973 277.383 354.445C276.295 353.775 275.307 353.441 274.114 353.34C271.514 353.119 268.622 352.165 266.847 350.942C265.539 350.041 265.079 349.466 264.312 347.771C263.745 346.52 263.296 344.909 263.177 343.699C263.068 342.597 262.923 341.28 262.855 340.772C262.787 340.264 262.579 338.531 262.392 336.921C262.205 335.312 261.994 333.51 261.923 332.917C261.852 332.324 261.718 331.215 261.626 330.452C261.535 329.69 261.045 325.462 260.539 321.057C260.032 316.651 259.542 312.685 259.45 312.242C259.303 311.534 259.4 311.412 260.247 311.243C261.139 311.065 261.196 310.979 261.004 310.105C260.841 309.365 260.981 308.879 261.646 307.875C262.114 307.168 262.495 306.241 262.494 305.814C262.492 305.387 261.928 303.859 261.241 302.419C260.553 300.979 259.841 299.246 259.659 298.569C259.477 297.891 259.092 297 258.803 296.588C258.446 296.081 258.302 295.362 258.356 294.351C258.442 292.739 257.626 290.986 256.513 290.39C256.159 290.201 255.922 289.742 255.918 289.239C255.914 288.779 255.64 288.056 255.308 287.633C254.977 287.209 254.703 286.723 254.699 286.553C254.689 286.094 256.194 284.76 257.933 283.687C258.777 283.166 259.907 282.212 260.445 281.567C260.982 280.921 262.04 279.716 262.796 278.889C263.716 277.881 264.543 276.472 265.299 274.623C266.323 272.119 266.423 271.619 266.371 269.257C266.329 267.347 266.088 265.98 265.465 264.127C264.997 262.738 264.532 261.234 264.43 260.783C264.107 259.359 261.356 256.401 259.369 255.341C256.991 254.074 255.158 252.244 255.067 251.048C255.028 250.545 255.23 249.595 255.515 248.937C255.8 248.278 256.071 247.532 256.117 247.278C256.163 247.024 256.485 246.586 256.833 246.304C257.31 245.918 257.465 245.433 257.465 244.321C257.465 243.284 257.643 242.661 258.069 242.207C258.629 241.611 258.641 241.471 258.234 240.29C257.993 239.589 257.733 238.673 257.657 238.255C257.486 237.314 256.676 235.716 255.749 234.493C255.116 233.659 255.048 233.23 255.045 230.073C255.043 227.552 254.923 226.436 254.615 226.069C254.381 225.789 253.795 224.609 253.314 223.448L252.439 221.336L253.232 219.72C253.988 218.179 254.093 218.094 255.48 217.904C257.794 217.587 259.754 217.67 261.092 218.142C262.854 218.764 265.312 218.983 266.302 218.606C266.767 218.43 267.699 217.739 268.374 217.071C269.048 216.403 269.746 215.859 269.925 215.863C270.466 215.875 276.418 219.008 278.395 220.323C279.901 221.324 280.239 221.7 280.193 222.325C280.162 222.749 280.37 223.449 280.656 223.881C281.122 224.586 281.499 224.706 284.338 225.05C286.077 225.26 288.173 225.65 288.994 225.916L290.489 226.4L290.279 228.084C290.073 229.726 290.302 230.789 291.725 234.801C291.905 235.31 292.039 236.106 292.022 236.571C292.004 237.094 292.288 237.713 292.77 238.194C293.197 238.622 293.822 239.593 294.158 240.352L294.768 241.733L296.286 241.548C297.747 241.37 297.864 241.414 299.434 242.756C300.331 243.522 301.444 244.244 301.907 244.361C302.37 244.477 302.749 244.695 302.749 244.846C302.749 245.42 303.401 245.076 304.711 243.812C305.721 242.836 306.12 242.179 306.277 241.234C306.424 240.34 306.69 239.871 307.177 239.65C307.604 239.455 308.03 238.821 308.291 237.992C308.769 236.471 308.718 233.271 308.2 232.34C308.01 232 307.895 231.585 307.944 231.419C307.993 231.253 308.173 230.359 308.345 229.431C308.627 227.905 309.356 226.804 309.873 227.124C309.983 227.192 310.168 227.769 310.284 228.406C310.546 229.839 311.874 232.183 312.423 232.183C312.798 232.183 313.675 235.263 313.52 236.034C313.35 236.874 313.602 236.992 315.302 236.869L317.073 236.741L317.026 238.698C317.001 239.774 316.832 241.123 316.652 241.695C316.439 242.368 316.427 242.929 316.618 243.285C316.975 243.952 318.618 244.997 319.758 245.282C320.792 245.54 320.88 245.814 321.087 249.428C321.178 251.028 321.445 253.035 321.679 253.889C321.914 254.742 322.188 255.936 322.289 256.541C322.412 257.284 322.78 257.869 323.42 258.342C324.343 259.025 325.844 261.722 325.85 262.71C325.852 262.98 326.111 263.434 326.426 263.72C326.742 264.005 327.241 264.773 327.535 265.426C328.053 266.574 328.049 266.66 327.425 268.071L326.779 269.53L325.161 269.362C324.271 269.27 323.118 269.103 322.599 268.991C321.763 268.811 321.571 268.912 320.905 269.891C320.081 271.1 319.558 271.251 318.742 270.512C318.447 270.245 317.359 269.852 316.325 269.639C314.27 269.216 314.071 269.302 313.719 270.777C313.602 271.264 313.184 271.785 312.752 271.982C312.163 272.25 311.99 272.562 311.99 273.36C311.99 274.094 311.715 274.68 311.035 275.39C310.199 276.265 310.102 276.543 310.251 277.635C310.344 278.32 310.611 279.246 310.842 279.692C311.546 281.05 313.379 282.888 314.644 283.506C315.98 284.158 316.201 284.896 315.59 286.662C315.258 287.623 315.294 287.745 316.126 288.461C317.025 289.235 318.092 289.309 319.88 288.721C320.47 288.527 320.55 288.655 320.741 290.101C320.887 291.2 321.193 291.934 321.728 292.469C322.435 293.176 322.651 293.225 324.203 293.031C325.6 292.857 326.01 292.917 326.509 293.368C326.842 293.669 327.351 293.959 327.639 294.012C329.072 294.274 332.222 294.354 332.573 294.137C332.792 294.002 333.032 293.28 333.106 292.533C333.279 290.794 333.504 288.735 333.532 288.628C333.544 288.582 334.127 288.837 334.827 289.194C335.766 289.673 336.434 289.799 337.369 289.673C338.706 289.494 343.641 287.816 348.803 285.785C356.723 282.67 361.598 280.88 363.413 280.419C364.502 280.142 365.582 279.759 365.814 279.567C366.061 279.362 366.333 279.333 366.474 279.498C367.195 280.336 368.673 282.354 368.673 282.499C368.673 282.592 367.806 283.329 366.747 284.137C363.922 286.292 362.239 288.206 362.048 289.481C361.959 290.074 361.264 291.807 360.504 293.332C359.744 294.857 358.997 296.451 358.844 296.874C358.498 297.832 353.516 300.508 350.343 301.441C349.157 301.79 346.523 302.557 344.49 303.145C332.577 306.595 326.821 308.762 325.746 310.201C325.43 310.625 325.046 311.647 324.894 312.472C324.742 313.296 324.329 314.907 323.977 316.051C323.421 317.857 323.241 318.13 322.603 318.13C321.139 318.13 318.119 321.567 317.055 324.445C316.741 325.292 316.044 326.682 315.504 327.534C314.965 328.386 314.458 329.564 314.379 330.153C314.029 332.734 309.303 340.385 306.844 342.352C303.39 345.114 298.639 350.169 299.083 350.608C299.151 350.675 300.385 349.426 301.825 347.833C303.265 346.24 305.355 344.251 306.469 343.413C308.383 341.972 310.478 339.758 311.882 337.692C313.135 335.847 315.379 331.399 315.379 330.759C315.379 330.399 315.538 329.801 315.732 329.431C316.292 328.361 319.128 324.865 320.308 323.789C320.901 323.249 322.076 322.171 322.918 321.394C323.761 320.617 325.286 319.472 326.307 318.851C327.328 318.23 329.203 317.003 330.474 316.124C332.083 315.012 333.395 314.377 334.798 314.031C336.688 313.566 336.922 313.57 338.618 314.094C340.097 314.552 340.523 314.842 340.973 315.698C342.197 318.028 342.004 319.613 340.238 321.757C338.524 323.838 337.891 324.245 336.086 324.43C332.551 324.793 329.609 325.62 328.646 326.52C327.396 327.688 326.368 328.04 323.931 328.134C321.016 328.247 320.843 328.454 321.086 331.54L321.284 334.062L320.096 334.252C319.443 334.356 318.539 334.375 318.087 334.293C317.479 334.182 317.138 334.324 316.774 334.839C316.171 335.693 314.858 339.963 314.619 341.85C314.522 342.613 314.309 344.138 314.145 345.239C313.981 346.34 313.787 347.839 313.713 348.569C313.474 350.945 312.556 352.979 311.333 353.843C310.717 354.278 309.901 355.087 309.519 355.641C309.136 356.194 308.531 356.706 308.174 356.778C307.816 356.85 305.28 357.402 302.537 358.005C299.795 358.608 296.81 359.101 295.904 359.101C294.431 359.101 294.203 359.011 293.753 358.25Z" fill="#C8C3FF"/>
<path d="M344.032 311.108C343.611 311.039 342.918 310.743 342.492 310.451C342.066 310.158 340.927 309.748 339.961 309.539C337.759 309.063 337.332 308.27 338.681 307.166C339.383 306.592 339.967 306.436 341.564 306.398C345.773 306.297 347.289 306.479 350.112 307.428C352.925 308.373 352.962 308.399 352.962 309.386C352.962 310.562 352.848 310.611 349.419 310.899C345.686 311.212 344.867 311.244 344.032 311.108Z" fill="#C8C3FF"/>
<path d="M146.232 331.565C146.161 331.5 144.994 331.352 143.639 331.238C142.283 331.123 140.828 330.979 140.404 330.916C139.981 330.854 138.733 330.714 137.632 330.606C136.53 330.498 135.283 330.361 134.859 330.301C134.436 330.242 133.188 330.101 132.087 329.989C130.985 329.877 126.688 329.022 122.537 328.09C118.386 327.158 114.782 326.351 114.528 326.296C113.128 325.997 112.335 325.818 110.523 325.392C109.422 325.134 108.243 324.874 107.904 324.815C107.566 324.756 106.209 324.46 104.891 324.158C102.943 323.712 102.523 323.514 102.65 323.103C102.797 322.631 105.22 312.678 105.435 311.661C105.489 311.407 105.969 309.397 106.5 307.194C107.032 304.992 107.963 301.11 108.568 298.569C109.173 296.027 110.359 291.106 111.202 287.633C112.045 284.159 112.79 281.042 112.858 280.704C112.925 280.367 113.398 278.357 113.909 276.238C114.42 274.118 115.468 269.75 116.238 266.531C117.007 263.312 118.105 258.737 118.677 256.365C119.249 253.993 120.223 249.949 120.842 247.379L121.967 242.705L123.561 242.837C124.438 242.909 125.836 243.072 126.667 243.198C127.499 243.324 129.256 243.299 130.572 243.143C132.829 242.875 133.069 242.907 134.837 243.7C136.582 244.483 137.324 244.54 137.324 243.891C137.324 243.545 130.778 240.358 129.16 239.916C128.482 239.731 127.616 239.579 127.235 239.578C126.854 239.577 126.264 239.299 125.926 238.96C125.246 238.281 124.354 238.174 123.441 238.663C122.738 239.039 122.724 238.939 123.181 236.807C123.445 235.577 123.627 235.271 124.028 235.384C124.485 235.514 126.662 235.961 128.72 236.349C129.132 236.427 129.745 236.549 130.084 236.619C131.112 236.835 143.891 239.323 144.717 239.468C145.14 239.543 147.151 239.935 149.184 240.339C151.217 240.743 153.435 241.127 154.113 241.192C155.299 241.305 155.343 241.349 155.298 242.368C155.272 242.95 154.895 245.991 154.459 249.126C154.024 252.26 153.58 255.518 153.473 256.365C153.282 257.876 152.907 258.676 152.391 258.676C151.918 258.676 150.074 260.722 149.672 261.692C149.38 262.397 149.361 262.909 149.599 263.663C150.285 265.837 150.164 266.901 149.111 267.988C148.427 268.693 148.212 269.13 148.398 269.433C148.616 269.785 148.849 269.713 149.642 269.046C150.178 268.595 150.822 268.225 151.073 268.225C151.536 268.225 151.53 269.196 151.031 275.31C150.955 276.242 150.814 278.252 150.717 279.777C150.62 281.302 150.483 283.174 150.412 283.936C150.341 284.698 150.201 286.708 150.1 288.403C149.999 290.097 149.863 291.969 149.796 292.562C149.73 293.155 149.588 295.165 149.482 297.028C149.375 298.892 149.24 300.763 149.18 301.187C149.121 301.611 148.977 303.621 148.861 305.654C148.744 307.687 148.612 309.558 148.566 309.813C148.52 310.067 148.383 312.007 148.26 314.125C148.137 316.243 147.998 318.184 147.951 318.438C147.905 318.692 147.766 320.633 147.643 322.751C147.52 324.869 147.373 326.848 147.317 327.149C147.26 327.451 147.184 328.594 147.149 329.691C147.091 331.471 146.791 332.085 146.232 331.565Z" fill="#C8C3FF"/>
<path d="M66.2984 215.14C65.9698 214.923 64.6612 214.279 63.3904 213.708C61.4502 212.837 54.7581 209.363 43.7753 203.527C40.2841 201.671 27.4942 193.722 18.0294 187.526C14.6776 185.331 13.1775 184.174 13.1775 183.783C13.1775 183.003 14.1286 181.509 15.123 180.727C16.9097 179.322 15.8781 178.415 12.3663 178.304C11.6705 178.282 11.3555 178.099 11.2376 177.648C11.1478 177.304 10.9583 177.055 10.8166 177.093C10.2403 177.249 9.19192 176.662 9.00692 176.079C8.85971 175.615 9.58937 174.307 11.8756 170.935C16.1156 164.682 23.954 153.073 30.01 144.079C34.8333 136.915 41.0661 127.679 49.4832 115.222L53.2662 109.623L54.2466 109.961C56.2674 110.658 56.8522 111.351 57.081 113.322C57.1971 114.323 57.6157 115.781 58.0112 116.562C58.4067 117.343 58.8206 118.517 58.9309 119.17C59.0783 120.042 59.4649 120.642 60.3879 121.432C61.5341 122.413 61.6039 122.555 61.1837 123.051C60.5369 123.813 57.4201 128.889 56.6894 130.371C56.3551 131.048 55.8355 132.365 55.5347 133.297C55.2339 134.229 54.6783 135.615 54.3001 136.378C52.9567 139.086 52.8803 138.88 56.1359 141.327C58.378 143.012 59.0777 143.709 59.0777 144.255C59.0777 144.65 58.5818 145.922 57.9757 147.083C57.2564 148.46 56.8179 149.781 56.7129 150.888C56.5552 152.55 56.5745 152.602 57.6742 153.441C58.8751 154.357 58.8267 154.102 58.4815 157.686C58.4705 157.8 58.0559 157.982 57.56 158.091C56.5851 158.305 55.6891 159.4 55.6891 160.377C55.6891 160.713 55.4086 161.462 55.0657 162.043C54.3934 163.183 54.5422 164.203 55.4961 164.994C55.8474 165.286 55.9406 165.74 55.83 166.62C55.7123 167.556 55.8364 168.065 56.3631 168.805C56.8548 169.495 57.0621 170.255 57.0938 171.483C57.1181 172.43 57.3793 173.665 57.6771 174.241C58.1957 175.244 58.1923 175.367 57.5871 177.471C56.7825 180.269 56.3913 182.454 56.1658 185.406C56.0668 186.702 55.8328 188.202 55.6459 188.738C55.3438 189.605 55.3915 189.805 56.0761 190.539C57.1044 191.643 57.3915 192.251 57.9969 194.607C58.2788 195.704 58.8969 197.322 59.3704 198.202C59.9991 199.37 60.1257 199.842 59.8397 199.951C59.6243 200.034 59.378 200.77 59.2923 201.587C59.2066 202.403 59.0366 203.459 58.9144 203.933C58.6495 204.961 59.0431 205.343 61.5421 206.485C62.474 206.911 63.7695 207.627 64.4211 208.077C65.0727 208.527 65.9737 208.902 66.4235 208.91L67.2411 208.924L67.1552 212.142C67.1079 213.912 67.0302 215.399 66.9826 215.447C66.9349 215.494 66.627 215.356 66.2984 215.14Z" fill="#C8C3FF"/>
</g>
<defs>
<filter id="filter0_f_2099_194" x="0" y="0" width="411.218" height="399.09" filterUnits="userSpaceOnUse" color-interpolation-filters="sRGB">
<feFlood flood-opacity="0" result="BackgroundImageFix"/>
<feBlend mode="normal" in="SourceGraphic" in2="BackgroundImageFix" result="shape"/>
<feGaussianBlur stdDeviation="4" result="effect1_foregroundBlur_2099_194"/>
</filter>
</defs>
</svg>
