<svg width="102" height="86" viewBox="0 0 102 86" fill="none" xmlns="http://www.w3.org/2000/svg" opacity="0.5">
<path fill-rule="evenodd" clip-rule="evenodd" d="M12.9051 -27.5268C2.45838 -27.5268 -7.30789 -24.5193 -15.6256 -19.2973C-21.7515 -28.1951 -31.8177 -33.9999 -43.1972 -33.9999C-61.8659 -33.9999 -76.9999 -18.3767 -76.9999 0.895587C-76.9999 20.1679 -61.8659 35.7911 -43.1972 35.7911C-42.7028 35.7911 -42.2109 35.7802 -41.7217 35.7585C-38.5882 64.0363 -15.3262 86 12.9051 86C41.1269 86 64.3828 64.051 67.5287 35.7868C67.7081 35.7897 67.8878 35.7911 68.0679 35.7911C86.7366 35.7911 101.871 20.1679 101.871 0.895584C101.871 -18.3767 86.7366 -33.9999 68.0679 -33.9999C56.8621 -33.9999 46.9299 -28.371 40.7797 -19.7028C32.6064 -24.6747 23.0784 -27.5268 12.9051 -27.5268Z" fill="url(#paint0_linear_112_423)"/>
<defs>
<linearGradient id="paint0_linear_112_423" x1="12" y1="15" x2="12.4353" y2="86" gradientUnits="userSpaceOnUse">
<stop stop-color="#C8C3FF"/>
<stop offset="1" stop-color="#6C6BD1"/>
</linearGradient>
</defs>
</svg>
