<svg xmlns="http://www.w3.org/2000/svg" width="327" height="178" fill="none"><g clip-path="url(#a)"><path fill="url(#b)" d="m52.813 117.623 56.546 27.958 31.69-2.008-9.787 9.268-14.447 7.105-16.777 4.48-18.641.772-17.71-4.171-15.224-7.414-12.428-8.804-9.165-11.122z"/><path fill="url(#c)" d="m12.07 93.262 44.402-9.47 54.46 43.311 40.689 6.52-8.045 9.47-33.882 2.018-56.626-28.564-26.301 16.921-6.962-11.643-4.796-13.04z"/><path fill="url(#d)" d="M25.148 44.675 73.304 58.09l45.825 55.658 38.836 10.946-5.903 8.788-40.855-6.167-54.68-43.478-45.515 9.868V79.057l5.282-19.58z"/><path fill="url(#e)" d="m72.713 12.959 33.233 28.332 27.798 62.239 29.507 9.908-4.193 10.528-39.601-10.528-45.036-55.89-48.608-14.244 12.89-13.625 16.306-10.992z"/><path fill="url(#f)" d="m133.751 25.096 15.247 14.252 11.046 16.575 6.379 23.081V96.51l-3.734 16.885-28.938-10.688-27.848-61.964-32.515-27.729 18.358-2.168 21.625 3.717z"/><g filter="url(#g)"><path stroke="#fff" stroke-width="2.197" d="m72.417 12.867 33.546 27.876 28.11 61.911 28.576 10.472"/></g><g filter="url(#h)"><path stroke="#fff" stroke-width="2.197" d="M25.826 43.823 73.815 57.53l45.504 55.596 38.671 10.473"/></g><g filter="url(#i)"><path stroke="#fff" stroke-width="2.197" d="m11.383 93.568 45.193-10.01 54.668 43.275 40.534 6.469"/></g><g filter="url(#j)"><path stroke="#fff" stroke-width="2.197" d="m26.602 133.764 26.713-16.787 56.22 28.183 33.08-2.156"/></g><path stroke="#fff" stroke-width="3.295" d="M167.988 88.55c0 42.568-34.978 77.115-78.172 77.115S11.644 131.118 11.644 88.55c0-42.569 34.978-77.115 78.172-77.115s78.172 34.546 78.172 77.115Z"/></g><g filter="url(#k)"><path fill="#fff" d="M195.82 80.387q-5.012 0-7.626-3.05-2.615-3.124-2.615-9.225V40.075q0-6.029 2.615-9.152 2.614-3.123 7.626-3.123t7.627 3.123 2.615 9.152v5.738h-7.99v-6.319q0-2.397-.509-3.341-.508-1.017-1.743-1.017-1.234 0-1.743 1.017-.509.944-.509 3.341v29.2q0 2.323.509 3.34.58 1.017 1.743 1.017 1.235 0 1.743-.944.509-1.017.509-3.414V61.14h7.99v6.973q0 6.03-2.615 9.152-2.615 3.123-7.627 3.123m25.117 0q-5.012 0-7.699-3.123t-2.688-9.297V28.672h7.99v39.803q0 4.576 2.397 4.576 1.163 0 1.743-1.017.58-1.089.581-3.559V28.672h7.99v39.295q0 6.1-2.688 9.297-2.686 3.123-7.626 3.123m24.723 0q-5.012 0-7.627-3.05t-2.615-9.007v-4.794h7.99v5.302q0 2.252.509 3.269.508.944 1.743.944t1.743-1.017q.58-1.017.581-3.34 0-2.18-.363-3.56t-1.453-3.123q-1.09-1.743-3.995-5.884-2.76-3.849-4.067-6.246t-1.816-4.576q-.509-2.18-.509-5.157 0-6.03 2.615-9.152 2.615-3.195 7.482-3.196 4.938 0 7.554 3.123 2.614 3.123 2.614 9.152v4.068h-7.989v-4.649q0-2.397-.509-3.341-.509-1.017-1.67-1.017-1.09 0-1.598 1.017-.509 1.017-.509 3.486 0 2.18.291 3.487.363 1.235 1.38 2.978 1.09 1.671 3.922 5.52 2.833 3.923 4.14 6.392 1.38 2.47 1.889 4.721.58 2.252.581 5.375 0 6.101-2.615 9.225-2.615 3.05-7.699 3.05m30.667-.871H260.42V28.672h15.689v7.699h-7.699v13.51h6.973v7.7h-6.973v14.235h7.917zm13.549.871q-5.012 0-7.627-3.05-2.615-3.124-2.615-9.225V40.075q0-6.029 2.615-9.152t7.627-3.123 7.626 3.123q2.616 3.123 2.615 9.152v5.738h-7.989v-6.319q0-2.397-.509-3.341-.509-1.017-1.743-1.017-1.235 0-1.743 1.017-.509.944-.509 3.341v29.2q0 2.323.509 3.34.58 1.017 1.743 1.017 1.235 0 1.743-.944.509-1.017.509-3.414V61.14h7.989v6.973q0 6.03-2.615 9.152-2.615 3.123-7.626 3.123"/></g><g filter="url(#l)"><path fill="#fff" d="M196.404 131.871q0-3.994.435-6.319.509-2.324 1.889-4.939 1.452-2.615 5.012-7.844 2.251-3.342 3.196-5.23 1.016-1.889 1.38-3.632.363-1.815.363-4.721 0-2.397-.509-3.341-.508-1.017-1.598-1.017-1.161 0-1.67 1.017-.509.944-.509 3.341v4.649h-7.989v-4.068q0-6.029 2.614-9.152 2.616-3.123 7.554-3.123 4.94 0 7.482 3.05 2.615 3.051 2.615 8.862 0 3.923-.436 6.101-.363 2.106-1.598 4.358-1.163 2.252-4.14 6.61-3.05 4.431-4.213 6.464-1.162 2.034-1.525 3.632-.364 1.526-.364 4.286v.871h4.94v-6.827h7.481v14.309h-20.41zm34.883 8.208q-5.084 0-7.772-3.123-2.687-3.123-2.687-9.297V99.912q0-6.174 2.687-9.297 2.688-3.123 7.772-3.123 5.085 0 7.772 3.196 2.688 3.123 2.688 9.224v27.747q0 6.174-2.688 9.297-2.687 3.123-7.772 3.123m0-7.336q1.236 0 1.816-1.017.654-1.09.654-3.559V99.404q0-2.47-.654-3.486-.58-1.09-1.816-1.09-1.234 0-1.888 1.09-.581 1.016-.581 3.486v28.763q0 2.47.581 3.559.654 1.017 1.888 1.017m14.556-.872q0-3.994.436-6.319.508-2.324 1.888-4.939 1.453-2.615 5.012-7.844 2.252-3.342 3.196-5.23 1.017-1.889 1.38-3.632.363-1.815.363-4.721 0-2.397-.508-3.341-.509-1.017-1.598-1.017-1.163 0-1.671 1.017-.508.944-.508 3.341v4.649h-7.99v-4.068q0-6.029 2.615-9.152 2.614-3.123 7.554-3.123 4.939 0 7.481 3.05 2.616 3.051 2.615 8.862 0 3.923-.436 6.101-.363 2.106-1.598 4.358-1.161 2.252-4.14 6.61-3.05 4.431-4.213 6.464-1.161 2.034-1.525 3.632-.363 1.526-.363 4.286v.871h4.939v-6.827h7.481v14.309h-20.41zm33.794 8.208q-5.084 0-7.699-3.051-2.615-3.123-2.615-9.224v-5.084h7.99v5.665q0 2.325.509 3.341.58 1.017 1.815 1.017 1.162 0 1.671-1.017.58-1.017.581-3.341v-14.309q0-1.525-.436-2.179-.363-.654-1.235-.654-1.888 0-2.324 2.906h-7.626V88.364h19.611v7.118h-11.985v11.839q.872-1.234 2.324-2.034 1.453-.798 3.196-.799 3.051 0 4.722 2.252 1.743 2.251 1.743 6.61v14.454q0 6.1-2.615 9.224-2.614 3.051-7.627 3.051"/></g><defs><filter id="g" width="92.325" height="104.127" x="71.709" y="12.027" color-interpolation-filters="sRGB" filterUnits="userSpaceOnUse"><feFlood flood-opacity="0" result="BackgroundImageFix"/><feColorMatrix in="SourceAlpha" result="hardAlpha" values="0 0 0 0 0 0 0 0 0 0 0 0 0 0 0 0 0 0 127 0"/><feOffset dx="1" dy="2"/><feComposite in2="hardAlpha" operator="out"/><feColorMatrix values="0 0 0 0 0.286275 0 0 0 0 0.282353 0 0 0 0 0.509804 0 0 0 0.4 0"/><feBlend in2="BackgroundImageFix" result="effect1_dropShadow_25_197"/><feBlend in="SourceGraphic" in2="effect1_dropShadow_25_197" result="shape"/></filter><filter id="h" width="133.765" height="83.885" x="25.518" y="42.771" color-interpolation-filters="sRGB" filterUnits="userSpaceOnUse"><feFlood flood-opacity="0" result="BackgroundImageFix"/><feColorMatrix in="SourceAlpha" result="hardAlpha" values="0 0 0 0 0 0 0 0 0 0 0 0 0 0 0 0 0 0 127 0"/><feOffset dx="1" dy="2"/><feComposite in2="hardAlpha" operator="out"/><feColorMatrix values="0 0 0 0 0.286275 0 0 0 0 0.282353 0 0 0 0 0.509804 0 0 0 0.4 0"/><feBlend in2="BackgroundImageFix" result="effect1_dropShadow_25_197"/><feBlend in="SourceGraphic" in2="effect1_dropShadow_25_197" result="shape"/></filter><filter id="i" width="141.81" height="54.008" x="11.146" y="82.375" color-interpolation-filters="sRGB" filterUnits="userSpaceOnUse"><feFlood flood-opacity="0" result="BackgroundImageFix"/><feColorMatrix in="SourceAlpha" result="hardAlpha" values="0 0 0 0 0 0 0 0 0 0 0 0 0 0 0 0 0 0 127 0"/><feOffset dx="1" dy="2"/><feComposite in2="hardAlpha" operator="out"/><feColorMatrix values="0 0 0 0 0.286275 0 0 0 0 0.282353 0 0 0 0 0.509804 0 0 0 0.4 0"/><feBlend in2="BackgroundImageFix" result="effect1_dropShadow_25_197"/><feBlend in="SourceGraphic" in2="effect1_dropShadow_25_197" result="shape"/></filter><filter id="j" width="117.668" height="32.553" x="26.015" y="115.72" color-interpolation-filters="sRGB" filterUnits="userSpaceOnUse"><feFlood flood-opacity="0" result="BackgroundImageFix"/><feColorMatrix in="SourceAlpha" result="hardAlpha" values="0 0 0 0 0 0 0 0 0 0 0 0 0 0 0 0 0 0 127 0"/><feOffset dx="1" dy="2"/><feComposite in2="hardAlpha" operator="out"/><feColorMatrix values="0 0 0 0 0.286275 0 0 0 0 0.282353 0 0 0 0 0.509804 0 0 0 0.4 0"/><feBlend in2="BackgroundImageFix" result="effect1_dropShadow_25_197"/><feBlend in="SourceGraphic" in2="effect1_dropShadow_25_197" result="shape"/></filter><filter id="k" width="116.791" height="55.966" x="185.579" y="27.8" color-interpolation-filters="sRGB" filterUnits="userSpaceOnUse"><feFlood flood-opacity="0" result="BackgroundImageFix"/><feColorMatrix in="SourceAlpha" result="hardAlpha" values="0 0 0 0 0 0 0 0 0 0 0 0 0 0 0 0 0 0 127 0"/><feOffset dx="2.253" dy="3.379"/><feComposite in2="hardAlpha" operator="out"/><feColorMatrix values="0 0 0 0 0.286275 0 0 0 0 0.282353 0 0 0 0 0.509804 0 0 0 0.4 0"/><feBlend in2="BackgroundImageFix" result="effect1_dropShadow_25_197"/><feBlend in="SourceGraphic" in2="effect1_dropShadow_25_197" result="shape"/></filter><filter id="l" width="95.728" height="55.966" x="196.404" y="87.492" color-interpolation-filters="sRGB" filterUnits="userSpaceOnUse"><feFlood flood-opacity="0" result="BackgroundImageFix"/><feColorMatrix in="SourceAlpha" result="hardAlpha" values="0 0 0 0 0 0 0 0 0 0 0 0 0 0 0 0 0 0 127 0"/><feOffset dx="2.253" dy="3.379"/><feComposite in2="hardAlpha" operator="out"/><feColorMatrix values="0 0 0 0 0.286275 0 0 0 0 0.282353 0 0 0 0 0.509804 0 0 0 0.4 0"/><feBlend in2="BackgroundImageFix" result="effect1_dropShadow_25_197"/><feBlend in="SourceGraphic" in2="effect1_dropShadow_25_197" result="shape"/></filter><linearGradient id="b" x1="142.292" x2="26.87" y1="140.02" y2="140.02" gradientUnits="userSpaceOnUse"><stop stop-color="#6C6BD1"/><stop offset="1" stop-color="#C8C3FF"/></linearGradient><linearGradient id="c" x1="151.621" x2="12.069" y1="114.451" y2="114.451" gradientUnits="userSpaceOnUse"><stop offset=".5" stop-color="#C8C3FF"/><stop offset="1" stop-color="#FF93D7"/></linearGradient><linearGradient id="d" x1="157.965" x2="11.012" y1="89.078" y2="89.078" gradientUnits="userSpaceOnUse"><stop stop-color="#C8C3FF"/><stop offset="1" stop-color="#B8EEF4"/></linearGradient><linearGradient id="e" x1="163.251" x2="49.072" y1="118.547" y2="26.706" gradientUnits="userSpaceOnUse"><stop stop-color="#DDFFFC"/><stop offset=".7" stop-color="#C8C3FF"/></linearGradient><linearGradient id="f" x1="166.423" x2="82.476" y1="104.564" y2="17.145" gradientUnits="userSpaceOnUse"><stop stop-color="#C8C3FF"/><stop offset="1" stop-color="#6C6BD1"/></linearGradient><clipPath id="a"><path fill="#fff" d="M0 0h181.142v177.951H0z"/></clipPath></defs></svg>