<svg width="154" height="154" viewBox="0 0 154 154" fill="none" xmlns="http://www.w3.org/2000/svg">
<path d="M40.079 99.0796L91.5562 124.531L120.406 122.703L111.497 131.14L98.3444 137.609L83.0709 141.687L66.1004 142.39L49.9784 138.593L36.1192 131.843L24.8055 123.828L16.4617 113.704L40.079 99.0796Z" fill="url(#paint0_linear_2045_2)"/>
<path d="M2.9873 76.9019L43.4101 68.2812L92.9879 107.71L130.03 113.645L122.706 122.266L91.8612 124.103L40.3115 98.1001L16.3677 113.504L10.0296 102.905L5.66338 91.034L2.9873 76.9019Z" fill="url(#paint1_linear_2045_2)"/>
<path d="M14.8938 32.6708L58.733 44.8818L100.451 95.5507L135.805 105.516L130.431 113.516L93.2387 107.902L43.46 68.3215L2.0249 77.3043V63.9704L6.83307 46.1451L14.8938 32.6708Z" fill="url(#paint2_linear_2045_2)"/>
<path d="M58.195 3.79736L88.4496 29.5902L113.756 86.2498L140.618 95.2702L136.8 104.854L100.749 95.2702L59.7501 44.3893L15.4993 31.4224L27.2335 19.0193L42.0781 9.0123L58.195 3.79736Z" fill="url(#paint3_linear_2045_2)"/>
<path d="M113.762 14.8466L127.642 27.8207L137.698 42.9102L143.505 63.9227V79.8584L140.106 95.2299L113.762 85.4993L88.4102 29.0899L58.8093 3.84676L75.5218 1.87244L95.2085 5.257L113.762 14.8466Z" fill="url(#paint4_linear_2045_2)"/>
<g filter="url(#filter0_d_2045_2)">
<path d="M57.926 3.71387L88.4648 29.0906L114.055 85.4521L140.07 94.9859" stroke="white" stroke-width="2"/>
</g>
<g filter="url(#filter1_d_2045_2)">
<path d="M15.5106 31.8949L59.198 44.3729L100.623 94.9861L135.828 104.52" stroke="white" stroke-width="2"/>
</g>
<g filter="url(#filter2_d_2045_2)">
<path d="M2.36247 77.1803L43.5051 68.0672L93.2721 107.464L130.173 113.353" stroke="white" stroke-width="2"/>
</g>
<g filter="url(#filter3_d_2045_2)">
<path d="M16.2176 113.773L40.5357 98.4912L91.7163 124.148L121.831 122.185" stroke="white" stroke-width="2"/>
</g>
<path d="M143.93 72.6124C143.93 111.365 112.087 142.815 72.7649 142.815C33.4428 142.815 1.6001 111.365 1.6001 72.6124C1.6001 33.8595 33.4428 2.41003 72.7649 2.41003C112.087 2.41003 143.93 33.8595 143.93 72.6124Z" stroke="white" stroke-width="3"/>
<defs>
<filter id="filter0_d_2045_2" x="57.2808" y="2.94861" width="83.9492" height="94.5925" filterUnits="userSpaceOnUse" color-interpolation-filters="sRGB">
<feFlood flood-opacity="0" result="BackgroundImageFix"/>
<feColorMatrix in="SourceAlpha" type="matrix" values="0 0 0 0 0 0 0 0 0 0 0 0 0 0 0 0 0 0 127 0" result="hardAlpha"/>
<feOffset dx="0.81" dy="1.62"/>
<feComposite in2="hardAlpha" operator="out"/>
<feColorMatrix type="matrix" values="0 0 0 0 0.286275 0 0 0 0 0.282353 0 0 0 0 0.509804 0 0 0 0.4 0"/>
<feBlend mode="normal" in2="BackgroundImageFix" result="effect1_dropShadow_2045_2"/>
<feBlend mode="normal" in="SourceGraphic" in2="effect1_dropShadow_2045_2" result="shape"/>
</filter>
<filter id="filter1_d_2045_2" x="15.2302" y="30.937" width="121.675" height="76.1646" filterUnits="userSpaceOnUse" color-interpolation-filters="sRGB">
<feFlood flood-opacity="0" result="BackgroundImageFix"/>
<feColorMatrix in="SourceAlpha" type="matrix" values="0 0 0 0 0 0 0 0 0 0 0 0 0 0 0 0 0 0 127 0" result="hardAlpha"/>
<feOffset dx="0.81" dy="1.62"/>
<feComposite in2="hardAlpha" operator="out"/>
<feColorMatrix type="matrix" values="0 0 0 0 0.286275 0 0 0 0 0.282353 0 0 0 0 0.509804 0 0 0 0.4 0"/>
<feBlend mode="normal" in2="BackgroundImageFix" result="effect1_dropShadow_2045_2"/>
<feBlend mode="normal" in="SourceGraphic" in2="effect1_dropShadow_2045_2" result="shape"/>
</filter>
<filter id="filter2_d_2045_2" x="2.14722" y="66.9908" width="128.998" height="48.9661" filterUnits="userSpaceOnUse" color-interpolation-filters="sRGB">
<feFlood flood-opacity="0" result="BackgroundImageFix"/>
<feColorMatrix in="SourceAlpha" type="matrix" values="0 0 0 0 0 0 0 0 0 0 0 0 0 0 0 0 0 0 127 0" result="hardAlpha"/>
<feOffset dx="0.81" dy="1.62"/>
<feComposite in2="hardAlpha" operator="out"/>
<feColorMatrix type="matrix" values="0 0 0 0 0.286275 0 0 0 0 0.282353 0 0 0 0 0.509804 0 0 0 0.4 0"/>
<feBlend mode="normal" in2="BackgroundImageFix" result="effect1_dropShadow_2045_2"/>
<feBlend mode="normal" in="SourceGraphic" in2="effect1_dropShadow_2045_2" result="shape"/>
</filter>
<filter id="filter3_d_2045_2" x="15.6833" y="97.3468" width="107.02" height="29.4338" filterUnits="userSpaceOnUse" color-interpolation-filters="sRGB">
<feFlood flood-opacity="0" result="BackgroundImageFix"/>
<feColorMatrix in="SourceAlpha" type="matrix" values="0 0 0 0 0 0 0 0 0 0 0 0 0 0 0 0 0 0 127 0" result="hardAlpha"/>
<feOffset dx="0.81" dy="1.62"/>
<feComposite in2="hardAlpha" operator="out"/>
<feColorMatrix type="matrix" values="0 0 0 0 0.286275 0 0 0 0 0.282353 0 0 0 0 0.509804 0 0 0 0.4 0"/>
<feBlend mode="normal" in2="BackgroundImageFix" result="effect1_dropShadow_2045_2"/>
<feBlend mode="normal" in="SourceGraphic" in2="effect1_dropShadow_2045_2" result="shape"/>
</filter>
<linearGradient id="paint0_linear_2045_2" x1="121.537" y1="119.469" x2="16.4617" y2="119.469" gradientUnits="userSpaceOnUse">
<stop stop-color="#6C6BD1"/>
<stop offset="1" stop-color="#C8C3FF"/>
</linearGradient>
<linearGradient id="paint1_linear_2045_2" x1="130.03" y1="96.1922" x2="2.9873" y2="96.1922" gradientUnits="userSpaceOnUse">
<stop offset="0.5" stop-color="#C8C3FF"/>
<stop offset="1" stop-color="#FF93D7"/>
</linearGradient>
<linearGradient id="paint2_linear_2045_2" x1="135.805" y1="73.0936" x2="2.0249" y2="73.0936" gradientUnits="userSpaceOnUse">
<stop stop-color="#C8C3FF"/>
<stop offset="1" stop-color="#B8EEF4"/>
</linearGradient>
<linearGradient id="paint3_linear_2045_2" x1="140.618" y1="99.9214" x2="36.6729" y2="16.3126" gradientUnits="userSpaceOnUse">
<stop stop-color="#DDFFFC"/>
<stop offset="0.7" stop-color="#C8C3FF"/>
</linearGradient>
<linearGradient id="paint4_linear_2045_2" x1="143.505" y1="87.1916" x2="67.0827" y2="7.60799" gradientUnits="userSpaceOnUse">
<stop stop-color="#C8C3FF"/>
<stop offset="1" stop-color="#6C6BD1"/>
</linearGradient>
</defs>
</svg>
