<svg width="22" height="22" viewBox="0 0 22 22" fill="none" xmlns="http://www.w3.org/2000/svg">
<path d="M13.2496 1.10425C13.5594 1.10425 13.8279 1.31894 13.896 1.62116L14.3718 3.73372C14.7192 5.27604 15.9237 6.48047 17.466 6.8279L19.5786 7.30377C19.8808 7.37185 20.0955 7.64029 20.0955 7.95008C20.0955 8.25988 19.8808 8.52831 19.5786 8.59639L17.466 9.07227C15.9237 9.41968 14.7192 10.6241 14.3718 12.1664L13.896 14.279C13.8279 14.5813 13.5594 14.7959 13.2496 14.7959C12.9399 14.7959 12.6714 14.5813 12.6033 14.279L12.1275 12.1664C11.78 10.6241 10.5756 9.41968 9.03332 9.07227L6.92072 8.59639C6.6185 8.52831 6.40381 8.25988 6.40381 7.95008C6.40381 7.64029 6.6185 7.37185 6.92072 7.30377L9.03332 6.8279C10.5756 6.48047 11.78 5.27604 12.1275 3.73372L12.6033 1.62116C12.6714 1.31894 12.9399 1.10425 13.2496 1.10425Z" fill="white"/>
<path d="M6.18317 9.9375C6.49296 9.9375 6.7614 10.1522 6.82948 10.4544L7.16939 11.9634C7.40149 12.9937 8.20611 13.7984 9.23641 14.0304L10.7454 14.3703C11.0477 14.4384 11.2623 14.7069 11.2623 15.0167C11.2623 15.3265 11.0477 15.5949 10.7454 15.663L9.23641 16.0029C8.20611 16.235 7.40149 17.0396 7.16939 18.0699L6.82948 19.5789C6.7614 19.8812 6.49296 20.0958 6.18317 20.0958C5.87338 20.0958 5.60494 19.8812 5.53686 19.5789L5.19696 18.0699C4.96485 17.0396 4.16023 16.235 3.12988 16.0029L1.62091 15.663C1.3187 15.5949 1.104 15.3265 1.104 15.0167C1.104 14.7069 1.3187 14.4384 1.62091 14.3703L3.12988 14.0304C4.16023 13.7984 4.96485 12.9937 5.19696 11.9634L5.53686 10.4544C5.60494 10.1522 5.87338 9.9375 6.18317 9.9375Z" fill="white"/>
</svg>
