<svg width="27" height="27" viewBox="0 0 27 27" fill="none" xmlns="http://www.w3.org/2000/svg">
<path d="M12.6006 0.631067C12.6677 0.44615 12.7901 0.286382 12.9512 0.173475C13.1123 0.060569 13.3042 0 13.501 0C13.6977 0 13.8896 0.060569 14.0507 0.173475C14.2118 0.286382 14.3342 0.44615 14.4014 0.631067L15.3171 3.13301C16.0343 5.0949 17.1712 6.87659 18.6483 8.35366C20.1253 9.83073 21.907 10.9676 23.8689 11.6848L26.3689 12.6006C26.5538 12.6677 26.7136 12.7901 26.8265 12.9512C26.9394 13.1123 27 13.3042 27 13.501C27 13.6977 26.9394 13.8896 26.8265 14.0507C26.7136 14.2118 26.5538 14.3342 26.3689 14.4014L23.8689 15.3171C21.907 16.0343 20.1253 17.1712 18.6483 18.6483C17.1712 20.1253 16.0343 21.907 15.3171 23.8689L14.4014 26.3689C14.3342 26.5538 14.2118 26.7136 14.0507 26.8265C13.8896 26.9394 13.6977 27 13.501 27C13.3042 27 13.1123 26.9394 12.9512 26.8265C12.7901 26.7136 12.6677 26.5538 12.6006 26.3689L11.6848 23.8689C10.9676 21.907 9.83073 20.1253 8.35366 18.6483C6.87659 17.1712 5.0949 16.0343 3.13301 15.3171L0.631067 14.4014C0.44615 14.3342 0.286382 14.2118 0.173475 14.0507C0.060569 13.8896 0 13.6977 0 13.501C0 13.3042 0.060569 13.1123 0.173475 12.9512C0.286382 12.7901 0.44615 12.6677 0.631067 12.6006L3.13301 11.6848C5.0949 10.9676 6.87659 9.83073 8.35366 8.35366C9.83073 6.87659 10.9676 5.0949 11.6848 3.13301L12.6006 0.631067Z" fill="#494882"/>
</svg>
