<svg width="122" height="79" viewBox="0 0 122 79" fill="none" xmlns="http://www.w3.org/2000/svg">
<g style="mix-blend-mode:lighten">
<path fill-rule="evenodd" clip-rule="evenodd" d="M89.9051 -34.5268C79.4584 -34.5268 69.6921 -31.5193 61.3744 -26.2973C55.2485 -35.1951 45.1823 -40.9999 33.8028 -40.9999C15.1341 -40.9999 0.000114033 -25.3767 0.000115517 -6.10439C0.000117001 13.1679 15.1341 28.7911 33.8028 28.7911C34.2972 28.7911 34.7891 28.7802 35.2783 28.7585C38.4118 57.0364 61.6738 79 89.9051 79C118.127 79 141.383 57.051 144.529 28.7868C144.708 28.7897 144.888 28.7911 145.068 28.7911C163.737 28.7911 178.871 13.1679 178.871 -6.10439C178.871 -25.3767 163.737 -40.9999 145.068 -40.9999C133.862 -40.9999 123.93 -35.371 117.78 -26.7027C109.606 -31.6747 100.078 -34.5268 89.9051 -34.5268Z" fill="url(#paint0_linear_112_290)" fill-opacity="0.7"/>
</g>
<defs>
<linearGradient id="paint0_linear_112_290" x1="89.0843" y1="4.02815" x2="52.4669" y2="66.6638" gradientUnits="userSpaceOnUse">
<stop stop-color="#B8EEF4"/>
<stop offset="0.713037" stop-color="#C8C3FF"/>
</linearGradient>
</defs>
</svg>
