<svg width="1712" height="1018" viewBox="0 0 1712 1018" fill="none" xmlns="http://www.w3.org/2000/svg">
<g style="mix-blend-mode:soft-light">
<path d="M0 135.721L57.138 133.947C114.062 131.952 228.338 128.401 342.4 204.903C456.462 281.407 570.738 437.961 684.8 466.788C798.862 495.613 913.138 396.715 1027.2 374.763C1141.26 353.032 1255.54 408.467 1369.6 453.26C1483.66 497.834 1597.94 531.981 1654.86 548.833L1712 565.911V851.965H1654.86C1597.94 851.965 1483.66 851.965 1369.6 851.965C1255.54 851.965 1141.26 851.965 1027.2 851.965C913.138 851.965 798.862 851.965 684.8 851.965C570.738 851.965 456.462 851.965 342.4 851.965C228.338 851.965 114.062 851.965 57.138 851.965H0V135.721Z" fill="url(#paint0_linear_610_503)"/>
</g>
<path opacity="0.98" d="M923.207 836.287C922.116 835.788 921.239 834.952 920.712 833.916C919.751 832.023 919.086 829.872 918.797 827.56C918.508 829.874 917.845 832.025 916.882 833.918C916.351 834.958 915.478 835.79 914.386 836.293C912.396 837.207 910.136 837.84 907.703 838.112C910.132 838.383 912.396 839.014 914.386 839.932C915.473 840.436 916.355 841.269 916.882 842.305C917.842 844.197 918.508 846.351 918.797 848.662C919.086 846.351 919.749 844.201 920.712 842.307C921.239 841.273 922.116 840.436 923.207 839.936C925.198 839.022 927.462 838.383 929.891 838.112C927.464 837.84 925.198 837.203 923.207 836.287Z" fill="white"/>
<path opacity="0.51" d="M749.445 849.417C749.445 850.724 748.328 851.784 746.954 851.784C745.578 851.784 744.463 850.724 744.463 849.417C744.463 848.107 745.578 847.048 746.954 847.048C748.328 847.048 749.445 848.107 749.445 849.417Z" fill="white"/>
<path opacity="0.54" d="M708.874 817.877C707.729 817.348 706.809 816.475 706.255 815.388C705.245 813.402 704.547 811.145 704.248 808.715C703.942 811.145 703.244 813.406 702.234 815.392C701.68 816.483 700.764 817.354 699.617 817.885C697.526 818.846 695.153 819.507 692.6 819.794C695.148 820.079 697.528 820.738 699.617 821.705C700.757 822.232 701.684 823.105 702.234 824.194C703.246 826.186 703.944 828.443 704.248 830.871C704.549 828.448 705.247 826.188 706.255 824.2C706.809 823.111 707.727 822.236 708.874 821.709C710.965 820.749 713.343 820.079 715.891 819.796C713.343 819.507 710.965 818.842 708.874 817.877Z" fill="white"/>
<path opacity="0.83" d="M554.576 788.607C554.576 792.519 551.24 795.688 547.129 795.688C543.014 795.688 539.678 792.517 539.678 788.607C539.678 784.692 543.014 781.521 547.129 781.521C551.242 781.523 554.576 784.692 554.576 788.607Z" fill="white"/>
<path opacity="0.98" d="M448.905 823.687C448.905 826.426 446.568 828.643 443.692 828.643C440.813 828.643 438.477 826.424 438.477 823.687C438.477 820.95 440.813 818.729 443.692 818.729C446.57 818.732 448.905 820.952 448.905 823.687Z" fill="white"/>
<path opacity="0.64" d="M264.542 869.769C264.542 870.976 263.515 871.959 262.244 871.959C260.969 871.959 259.941 870.976 259.941 869.769C259.941 868.56 260.969 867.579 262.244 867.579C263.515 867.579 264.542 868.56 264.542 869.769Z" fill="white"/>
<path opacity="0.9" d="M116.12 832.249C115.052 831.758 114.194 830.94 113.674 829.927C112.733 828.073 112.08 825.962 111.799 823.691C111.515 825.96 110.862 828.071 109.918 829.927C109.401 830.942 108.542 831.756 107.475 832.255C105.525 833.148 103.306 833.769 100.922 834.038C103.299 834.3 105.523 834.923 107.475 835.82C108.538 836.313 109.403 837.129 109.918 838.144C110.862 840.001 111.515 842.113 111.799 844.378C112.08 842.115 112.733 840.005 113.674 838.149C114.192 837.131 115.052 836.315 116.12 835.822C118.07 834.929 120.291 834.298 122.675 834.036C120.291 833.773 118.07 833.15 116.12 832.249Z" fill="white"/>
<path opacity="0.53" d="M1072.34 719.687C1072.34 721.136 1071.11 722.308 1069.58 722.308C1068.06 722.308 1066.83 721.136 1066.83 719.687C1066.83 718.238 1068.06 717.066 1069.58 717.066C1071.11 717.066 1072.34 718.238 1072.34 719.687Z" fill="white"/>
<path opacity="0.58" d="M935.254 693.229C935.254 694.45 934.213 695.439 932.925 695.439C931.645 695.439 930.605 694.45 930.605 693.229C930.605 692.008 931.645 691.019 932.925 691.019C934.213 691.019 935.254 692.008 935.254 693.229Z" fill="white"/>
<path opacity="0.73" d="M909.455 712.276C909.455 714.799 907.302 716.849 904.644 716.849C901.991 716.849 899.838 714.799 899.838 712.276C899.838 709.75 901.991 707.701 904.644 707.701C907.304 707.701 909.455 709.75 909.455 712.276Z" fill="white"/>
<path opacity="0.58" d="M713.162 787.574C713.162 790.032 711.069 792.018 708.486 792.018C705.906 792.018 703.811 790.032 703.811 787.574C703.811 785.119 705.906 783.129 708.486 783.129C711.069 783.131 713.162 785.119 713.162 787.574Z" fill="white"/>
<path opacity="0.72" d="M625.706 712.277C625.706 716.647 621.978 720.196 617.379 720.196C612.783 720.196 609.053 716.649 609.053 712.277C609.053 707.904 612.781 704.354 617.379 704.354C621.976 704.357 625.706 707.904 625.706 712.277Z" fill="white"/>
<path opacity="0.57" d="M476.354 707.719C476.354 711.58 473.065 714.708 469.003 714.708C464.944 714.708 461.652 711.58 461.652 707.719C461.652 703.857 464.944 700.729 469.003 700.729C473.065 700.729 476.354 703.857 476.354 707.719Z" fill="white"/>
<path opacity="0.64" d="M362.817 717.897C362.817 721.804 359.485 724.971 355.376 724.971C351.268 724.971 347.936 721.802 347.936 717.897C347.936 713.987 351.268 710.818 355.376 710.818C359.485 710.818 362.817 713.987 362.817 717.897Z" fill="white"/>
<path opacity="0.79" d="M179.181 678.008C181.737 678.008 183.808 676.038 183.808 673.608C183.808 671.178 181.737 669.208 179.181 669.208C176.626 669.208 174.555 671.178 174.555 673.608C174.555 676.038 176.626 678.008 179.181 678.008Z" fill="white"/>
<path opacity="0.64" d="M90.8455 724.486C90.8455 727.065 88.6498 729.153 85.9385 729.153C83.2249 729.153 81.0293 727.065 81.0293 724.486C81.0293 721.906 83.2249 719.82 85.9385 719.82C88.6498 719.82 90.8455 721.908 90.8455 724.486Z" fill="white"/>
<path opacity="0.58" d="M1004.9 673.234C1004.9 677.143 1001.57 680.314 997.456 680.314C993.343 680.314 990.016 677.143 990.016 673.234C990.016 669.322 993.343 666.153 997.456 666.153C1001.57 666.151 1004.9 669.322 1004.9 673.234Z" fill="white"/>
<path opacity="0.61" d="M809.838 760.498C809.838 761.964 808.593 763.148 807.05 763.148C805.511 763.148 804.266 761.964 804.266 760.498C804.266 759.033 805.511 757.847 807.05 757.847C808.593 757.849 809.838 759.035 809.838 760.498Z" fill="white"/>
<path opacity="0.8" d="M772.379 702.208C772.379 704.471 770.453 706.304 768.069 706.304C765.692 706.304 763.764 704.473 763.764 702.208C763.764 699.947 765.69 698.111 768.069 698.111C770.451 698.111 772.379 699.947 772.379 702.208Z" fill="white"/>
<path opacity="0.7" d="M705.067 735.136C703.963 734.63 703.075 733.785 702.542 732.737C701.568 730.822 700.894 728.642 700.603 726.3C700.31 728.644 699.638 730.824 698.665 732.739C698.13 733.791 697.244 734.632 696.139 735.14C694.126 736.066 691.834 736.707 689.377 736.984C691.832 737.257 694.126 737.894 696.139 738.824C697.239 739.333 698.134 740.175 698.665 741.225C699.638 743.141 700.312 745.324 700.603 747.665C700.897 745.324 701.568 743.143 702.542 741.228C703.075 740.179 703.963 739.333 705.067 738.824C707.079 737.902 709.373 737.255 711.834 736.984C709.371 736.705 707.079 736.062 705.067 735.136Z" fill="white"/>
<path opacity="0.72" d="M580.681 709.62C580.681 711.036 579.472 712.188 577.982 712.188C576.491 712.188 575.279 711.038 575.279 709.62C575.279 708.201 576.488 707.049 577.982 707.049C579.469 707.051 580.681 708.201 580.681 709.62Z" fill="white"/>
<path opacity="0.85" d="M505.741 754.393C505.741 755.63 504.688 756.632 503.387 756.632C502.088 756.632 501.033 755.632 501.033 754.393C501.033 753.158 502.086 752.156 503.387 752.156C504.688 752.156 505.741 753.158 505.741 754.393Z" fill="white"/>
<path opacity="0.87" d="M442.043 774.744C442.043 776.085 440.902 777.17 439.496 777.17C438.086 777.17 436.945 776.085 436.945 774.744C436.945 773.407 438.086 772.322 439.496 772.322C440.902 772.32 442.043 773.405 442.043 774.744Z" fill="white"/>
<path opacity="0.59" d="M174.608 681.128C174.608 682.337 173.574 683.322 172.303 683.322C171.028 683.322 169.996 682.337 169.996 681.128C169.996 679.917 171.028 678.934 172.303 678.934C173.572 678.934 174.608 679.919 174.608 681.128Z" fill="white"/>
<path opacity="0.5" d="M228.531 601.758C228.531 603.036 227.444 604.067 226.107 604.067C224.767 604.067 223.678 603.036 223.678 601.758C223.678 600.484 224.767 599.45 226.107 599.45C227.444 599.45 228.531 600.484 228.531 601.758Z" fill="white"/>
<path opacity="0.9" d="M83.5032 732.006C83.5032 733.38 82.3305 734.493 80.8903 734.493C79.4479 734.493 78.2773 733.38 78.2773 732.006C78.2773 730.633 79.4479 729.523 80.8903 729.523C82.3326 729.523 83.5032 730.633 83.5032 732.006Z" fill="white"/>
<path opacity="0.92" d="M929.916 580.619C929.916 583.502 927.455 585.843 924.425 585.843C921.395 585.843 918.934 583.502 918.934 580.619C918.934 577.735 921.395 575.396 924.425 575.396C927.455 575.396 929.916 577.735 929.916 580.619Z" fill="white"/>
<path opacity="0.77" d="M796.914 546.394C795.819 545.889 794.933 545.049 794.402 544.007C793.432 542.102 792.763 539.932 792.476 537.6C792.183 539.932 791.511 542.104 790.546 544.011C790.011 545.055 789.129 545.893 788.033 546.4C786.026 547.32 783.749 547.959 781.301 548.234C783.745 548.506 786.028 549.141 788.033 550.063C789.125 550.57 790.015 551.411 790.546 552.453C791.511 554.361 792.185 556.531 792.476 558.859C792.765 556.533 793.432 554.364 794.402 552.459C794.933 551.411 795.819 550.57 796.914 550.065C798.922 549.145 801.203 548.502 803.651 548.232C801.201 547.959 798.919 547.318 796.914 546.394Z" fill="white"/>
<path opacity="0.68" d="M708.143 634.839C708.143 635.946 707.201 636.839 706.039 636.839C704.877 636.839 703.936 635.946 703.936 634.839C703.936 633.734 704.877 632.84 706.039 632.84C707.201 632.84 708.143 633.734 708.143 634.839Z" fill="white"/>
<path opacity="0.62" d="M591.72 571.996C591.72 575.989 588.313 579.231 584.108 579.231C579.907 579.231 576.496 575.989 576.496 571.996C576.496 567.999 579.907 564.757 584.108 564.757C588.313 564.759 591.72 568.001 591.72 571.996Z" fill="white"/>
<path opacity="0.58" d="M400.508 563.609C400.508 564.938 399.376 566.013 397.979 566.013C396.586 566.013 395.449 564.94 395.449 563.609C395.449 562.28 396.583 561.206 397.979 561.206C399.376 561.208 400.508 562.28 400.508 563.609Z" fill="white"/>
<path opacity="0.94" d="M304.716 557.504C304.716 558.937 303.497 560.097 301.992 560.097C300.483 560.097 299.264 558.937 299.264 557.504C299.264 556.071 300.483 554.911 301.992 554.911C303.494 554.911 304.716 556.071 304.716 557.504Z" fill="white"/>
<path opacity="0.54" d="M246.766 558.236C246.766 560.941 244.455 563.137 241.609 563.137C238.76 563.137 236.451 560.941 236.451 558.236C236.451 555.527 238.76 553.332 241.609 553.332C244.455 553.332 246.766 555.527 246.766 558.236Z" fill="white"/>
<path opacity="0.88" d="M125.615 520.201C124.286 519.587 123.214 518.569 122.567 517.307C121.393 514.995 120.582 512.366 120.231 509.539C119.875 512.368 119.064 515.001 117.887 517.309C117.241 518.577 116.173 519.591 114.842 520.211C112.409 521.325 109.646 522.098 106.676 522.432C109.642 522.761 112.409 523.535 114.842 524.654C116.167 525.269 117.245 526.286 117.887 527.548C119.064 529.864 119.875 532.491 120.231 535.316C120.582 532.495 121.393 529.866 122.567 527.554C123.214 526.288 124.286 525.271 125.615 524.658C128.046 523.541 130.813 522.759 133.781 522.43C130.811 522.098 128.044 521.32 125.615 520.201Z" fill="white"/>
<path opacity="0.73" d="M993.319 474.828C993.319 478.691 990.025 481.825 985.957 481.825C981.895 481.825 978.6 478.691 978.6 474.828C978.6 470.962 981.893 467.83 985.957 467.83C990.025 467.83 993.319 470.962 993.319 474.828Z" fill="white"/>
<path opacity="0.6" d="M962.51 397.247C962.51 398.392 961.532 399.318 960.331 399.318C959.126 399.318 958.148 398.392 958.148 397.247C958.148 396.101 959.126 395.175 960.331 395.175C961.532 395.177 962.51 396.103 962.51 397.247Z" fill="white"/>
<path opacity="0.84" d="M551.83 446.542C550.715 446.029 549.819 445.177 549.277 444.116C548.295 442.181 547.614 439.979 547.321 437.61C547.024 439.977 546.343 442.183 545.357 444.12C544.817 445.183 543.923 446.031 542.808 446.548C540.773 447.482 538.457 448.132 535.971 448.408C538.453 448.687 540.773 449.33 542.808 450.272C543.921 450.783 544.822 451.636 545.357 452.696C546.343 454.634 547.024 456.838 547.321 459.205C547.614 456.84 548.295 454.638 549.277 452.702C549.819 451.642 550.715 450.787 551.83 450.277C553.865 449.34 556.183 448.689 558.672 448.41C556.183 448.132 553.865 447.48 551.83 446.542Z" fill="white"/>
<path opacity="0.52" d="M337.705 395.94C337.705 398.437 335.58 400.46 332.954 400.46C330.33 400.46 328.203 398.437 328.203 395.94C328.203 393.443 330.33 391.422 332.954 391.422C335.578 391.422 337.705 393.443 337.705 395.94Z" fill="white"/>
<path opacity="0.82" d="M285.531 470.512C285.531 471.696 284.523 472.657 283.277 472.657C282.032 472.657 281.02 471.696 281.02 470.512C281.02 469.327 282.032 468.367 283.277 468.367C284.523 468.369 285.531 469.327 285.531 470.512Z" fill="white"/>
<path opacity="0.98" d="M43.0081 463.104C43.0081 465.281 41.1484 467.048 38.8565 467.048C36.5646 467.048 34.707 465.279 34.707 463.104C34.707 460.92 36.5646 459.153 38.8565 459.153C41.1463 459.153 43.0081 460.92 43.0081 463.104Z" fill="white"/>
<path opacity="0.93" d="M498.428 375.727C498.428 377.191 497.18 378.377 495.642 378.377C494.103 378.377 492.855 377.191 492.855 375.727C492.855 374.266 494.103 373.078 495.642 373.078C497.18 373.078 498.428 374.264 498.428 375.727Z" fill="white"/>
<path opacity="0.76" d="M307.575 394.288C307.575 397.764 304.609 400.586 300.951 400.586C297.294 400.586 294.33 397.764 294.33 394.288C294.33 390.809 297.294 387.989 300.951 387.989C304.609 387.989 307.575 390.809 307.575 394.288Z" fill="white"/>
<path opacity="0.71" d="M138.977 312.638C138.977 314.083 137.744 315.257 136.227 315.257C134.705 315.257 133.473 314.085 133.473 312.638C133.473 311.193 134.705 310.021 136.227 310.021C137.744 310.021 138.977 311.191 138.977 312.638Z" fill="white"/>
<path opacity="0.53" d="M134.924 302.462C134.924 303.866 133.727 305.002 132.253 305.002C130.776 305.002 129.58 303.866 129.58 302.462C129.58 301.06 130.776 299.922 132.253 299.922C133.725 299.922 134.924 301.06 134.924 302.462Z" fill="white"/>
<path opacity="0.62" d="M630.082 623.92C628.928 623.391 627.995 622.505 627.437 621.408C626.416 619.402 625.712 617.12 625.41 614.666C625.102 617.12 624.396 619.404 623.375 621.41C622.816 622.511 621.892 623.391 620.734 623.926C618.624 624.897 616.227 625.566 613.646 625.855C616.221 626.142 618.622 626.814 620.734 627.787C621.886 628.316 622.821 629.199 623.375 630.296C624.398 632.307 625.104 634.588 625.41 637.04C625.714 634.592 626.418 632.309 627.437 630.302C627.997 629.201 628.928 628.318 630.082 627.787C632.19 626.818 634.591 626.14 637.172 625.855C634.591 625.566 632.19 624.895 630.082 623.92Z" fill="white"/>
<path opacity="0.95" d="M1249.38 470.848C1248.12 470.268 1247.1 469.302 1246.49 468.105C1245.38 465.915 1244.61 463.426 1244.28 460.748C1243.94 463.426 1243.17 465.919 1242.06 468.109C1241.45 469.31 1240.43 470.273 1239.17 470.853C1236.87 471.913 1234.25 472.645 1231.44 472.961C1234.25 473.27 1236.87 474.005 1239.17 475.065C1240.43 475.645 1241.45 476.612 1242.06 477.809C1243.17 480.005 1243.94 482.493 1244.28 485.168C1244.61 482.496 1245.38 480.007 1246.49 477.817C1247.1 476.614 1248.12 475.649 1249.38 475.069C1251.68 474.011 1254.3 473.272 1257.12 472.961C1254.3 472.645 1251.68 471.909 1249.38 470.848Z" fill="white"/>
<path opacity="0.59" d="M403.451 271.164C402.218 270.597 401.226 269.652 400.628 268.482C399.539 266.339 398.786 263.903 398.461 261.282C398.133 263.903 397.378 266.343 396.289 268.486C395.689 269.66 394.699 270.601 393.466 271.17C391.208 272.208 388.647 272.925 385.895 273.232C388.642 273.537 391.208 274.254 393.466 275.296C394.694 275.861 395.694 276.806 396.289 277.978C397.378 280.125 398.131 282.561 398.461 285.18C398.784 282.565 399.539 280.127 400.628 277.984C401.226 276.808 402.218 275.863 403.451 275.296C405.705 274.26 408.27 273.537 411.025 273.23C408.27 272.923 405.705 272.202 403.451 271.164Z" fill="white"/>
<path opacity="0.8" d="M308.198 201.341C308.198 204.983 305.093 207.936 301.26 207.936C297.429 207.936 294.324 204.983 294.324 201.341C294.324 197.698 297.429 194.745 301.26 194.745C305.091 194.743 308.198 197.698 308.198 201.341Z" fill="white"/>
<path opacity="0.97" d="M134.701 199.061C134.701 200.345 133.601 201.389 132.253 201.389C130.903 201.389 129.803 200.347 129.803 199.061C129.803 197.775 130.903 196.731 132.253 196.731C133.603 196.733 134.701 197.777 134.701 199.061Z" fill="white"/>
<path opacity="0.82" d="M1409.03 791.025C1409.03 792.263 1407.97 793.264 1406.68 793.264C1405.38 793.264 1404.32 792.265 1404.32 791.025C1404.32 789.79 1405.38 788.789 1406.68 788.789C1407.97 788.789 1409.03 789.79 1409.03 791.025Z" fill="white"/>
<path opacity="0.88" d="M1499.29 582.172C1499.29 586.165 1495.88 589.407 1491.68 589.407C1487.47 589.407 1484.07 586.165 1484.07 582.172C1484.07 578.175 1487.47 574.933 1491.68 574.933C1495.88 574.935 1499.29 578.177 1499.29 582.172Z" fill="white"/>
<path opacity="0.93" d="M1190.88 547.328C1190.88 548.761 1189.66 549.921 1188.15 549.921C1186.65 549.921 1185.43 548.761 1185.43 547.328C1185.43 545.895 1186.65 544.735 1188.15 544.735C1189.66 544.735 1190.88 545.895 1190.88 547.328Z" fill="white"/>
<path opacity="0.8" d="M1144.69 408.151C1144.69 410.648 1142.56 412.671 1139.94 412.671C1137.31 412.671 1135.19 410.648 1135.19 408.151C1135.19 405.654 1137.31 403.633 1139.94 403.633C1142.56 403.633 1144.69 405.654 1144.69 408.151Z" fill="white"/>
<path opacity="0.75" d="M90.3022 159.122C90.3022 163.931 86.202 167.83 81.1473 167.83C76.0905 167.83 71.9902 163.931 71.9902 159.122C71.9902 154.315 76.0905 150.411 81.1473 150.411C86.202 150.411 90.3022 154.315 90.3022 159.122Z" fill="white"/>
<defs>
<linearGradient id="paint0_linear_610_503" x1="1712" y1="492.579" x2="0" y2="492.579" gradientUnits="userSpaceOnUse">
<stop stop-color="#DDFFFC"/>
<stop offset="0.13" stop-color="#B8EEF4"/>
<stop offset="0.3" stop-color="#BFDAF9"/>
<stop offset="0.51" stop-color="#C8C3FF"/>
</linearGradient>
</defs>
</svg>
