<svg width="1585" height="772" viewBox="0 0 1585 772" fill="none" xmlns="http://www.w3.org/2000/svg">
<g style="mix-blend-mode:color-burn">
<path d="M1688.77 107.65L1631.57 106.25C1574.58 104.676 1460.17 101.874 1345.99 162.236C1231.8 222.6 1117.39 346.126 1003.2 368.872C889.013 391.616 774.609 313.582 660.42 296.262C546.23 279.115 431.829 322.855 317.637 358.198C203.45 393.368 89.0463 420.311 32.0587 433.608L-25.1452 447.083V672.788H32.0587C89.0463 672.788 203.45 672.788 317.637 672.788C431.829 672.788 546.23 672.788 660.42 672.788C774.609 672.788 889.013 672.788 1003.2 672.788C1117.39 672.788 1231.8 672.788 1345.99 672.788C1460.17 672.788 1574.58 672.788 1631.57 672.788H1688.77V107.65Z" fill="url(#paint0_linear_2001_547)"/>
</g>
<path opacity="0.95" d="M198.669 409.931C199.41 409.574 200.006 408.981 200.366 408.245C201.021 406.9 201.472 405.371 201.666 403.725C201.862 405.371 202.316 406.902 202.97 408.248C203.328 408.986 203.924 409.577 204.665 409.933C206.019 410.585 207.558 411.035 209.21 411.229C207.559 411.419 206.019 411.87 204.665 412.522C203.928 412.878 203.327 413.472 202.97 414.207C202.316 415.556 201.862 417.086 201.666 418.729C201.472 417.087 201.019 415.558 200.366 414.212C200.006 413.473 199.41 412.88 198.669 412.524C197.316 411.874 195.776 411.42 194.123 411.229C195.777 411.035 197.316 410.582 198.669 409.931Z" fill="white"/>
<path opacity="0.98" d="M689.879 676.912C690.87 676.519 691.666 675.859 692.144 675.041C693.016 673.548 693.62 671.85 693.882 670.026C694.145 671.852 694.747 673.549 695.621 675.043C696.103 675.864 696.895 676.521 697.886 676.917C699.692 677.638 701.744 678.138 703.952 678.353C701.747 678.567 699.692 679.064 697.886 679.789C696.899 680.187 696.099 680.844 695.621 681.661C694.749 683.155 694.145 684.854 693.882 686.679C693.62 684.854 693.018 683.158 692.144 681.663C691.666 680.847 690.87 680.187 689.879 679.792C688.072 679.071 686.017 678.567 683.813 678.353C686.015 678.138 688.072 677.635 689.879 676.912Z" fill="white"/>
<path opacity="0.51" d="M847.604 687.274C847.604 688.305 848.618 689.142 849.865 689.142C851.114 689.142 852.126 688.305 852.126 687.274C852.126 686.24 851.114 685.405 849.865 685.405C848.618 685.405 847.604 686.24 847.604 687.274Z" fill="white"/>
<path opacity="0.54" d="M884.431 662.384C885.47 661.966 886.305 661.277 886.808 660.42C887.725 658.852 888.358 657.071 888.63 655.154C888.908 657.071 889.541 658.856 890.458 660.423C890.961 661.284 891.793 661.971 892.834 662.39C894.731 663.148 896.886 663.67 899.203 663.897C896.89 664.122 894.73 664.642 892.834 665.405C891.798 665.821 890.957 666.51 890.458 667.369C889.539 668.941 888.906 670.722 888.63 672.638C888.356 670.726 887.723 668.943 886.808 667.374C886.305 666.515 885.472 665.824 884.431 665.408C882.533 664.65 880.375 664.122 878.061 663.898C880.375 663.67 882.533 663.145 884.431 662.384Z" fill="white"/>
<path opacity="0.83" d="M1024.49 639.287C1024.49 642.374 1027.51 644.874 1031.25 644.874C1034.98 644.874 1038.01 642.372 1038.01 639.287C1038.01 636.197 1034.98 633.695 1031.25 633.695C1027.51 633.696 1024.49 636.197 1024.49 639.287Z" fill="white"/>
<path opacity="0.98" d="M1120.41 666.969C1120.41 669.131 1122.53 670.88 1125.14 670.88C1127.75 670.88 1129.87 669.129 1129.87 666.969C1129.87 664.809 1127.75 663.057 1125.14 663.057C1122.52 663.059 1120.41 664.811 1120.41 666.969Z" fill="white"/>
<path opacity="0.9" d="M1422.47 673.725C1423.44 673.338 1424.22 672.693 1424.69 671.893C1425.55 670.43 1426.14 668.764 1426.4 666.972C1426.65 668.763 1427.25 670.428 1428.1 671.893C1428.57 672.694 1429.35 673.337 1430.32 673.73C1432.09 674.435 1434.11 674.925 1436.27 675.137C1434.11 675.344 1432.09 675.836 1430.32 676.544C1429.36 676.933 1428.57 677.577 1428.1 678.378C1427.25 679.843 1426.65 681.51 1426.4 683.297C1426.14 681.511 1425.55 679.846 1424.69 678.381C1424.22 677.578 1423.44 676.934 1422.47 676.546C1420.7 675.84 1418.69 675.343 1416.52 675.135C1418.69 674.928 1420.7 674.437 1422.47 673.725Z" fill="white"/>
<path opacity="0.53" d="M554.512 584.899C554.512 586.043 555.631 586.968 557.016 586.968C558.397 586.968 559.516 586.043 559.516 584.899C559.516 583.756 558.397 582.831 557.016 582.831C555.631 582.831 554.512 583.756 554.512 584.899Z" fill="white"/>
<path opacity="0.58" d="M678.944 564.02C678.944 564.984 679.888 565.765 681.057 565.765C682.219 565.765 683.163 564.984 683.163 564.02C683.163 563.057 682.219 562.276 681.057 562.276C679.888 562.276 678.944 563.057 678.944 564.02Z" fill="white"/>
<path opacity="0.73" d="M702.362 579.05C702.362 581.042 704.316 582.659 706.729 582.659C709.138 582.659 711.092 581.042 711.092 579.05C711.092 577.057 709.138 575.44 706.729 575.44C704.314 575.44 702.362 577.057 702.362 579.05Z" fill="white"/>
<path opacity="0.58" d="M880.537 638.471C880.537 640.411 882.436 641.978 884.781 641.978C887.124 641.978 889.025 640.411 889.025 638.471C889.025 636.534 887.124 634.963 884.781 634.963C882.436 634.965 880.537 636.534 880.537 638.471Z" fill="white"/>
<path opacity="0.72" d="M959.923 579.052C959.923 582.501 963.306 585.301 967.481 585.301C971.653 585.301 975.039 582.502 975.039 579.052C975.039 575.601 971.655 572.8 967.481 572.8C963.308 572.802 959.923 575.601 959.923 579.052Z" fill="white"/>
<path opacity="0.57" d="M1095.49 575.455C1095.49 578.502 1098.47 580.97 1102.16 580.97C1105.85 580.97 1108.83 578.502 1108.83 575.455C1108.83 572.407 1105.85 569.938 1102.16 569.938C1098.47 569.938 1095.49 572.407 1095.49 575.455Z" fill="white"/>
<path opacity="0.64" d="M1198.55 583.486C1198.55 586.57 1201.58 589.069 1205.3 589.069C1209.03 589.069 1212.06 586.568 1212.06 583.486C1212.06 580.401 1209.03 577.9 1205.3 577.9C1201.58 577.9 1198.55 580.401 1198.55 583.486Z" fill="white"/>
<path opacity="0.79" d="M1365.24 552.009C1362.92 552.009 1361.04 550.454 1361.04 548.537C1361.04 546.619 1362.92 545.064 1365.24 545.064C1367.56 545.064 1369.44 546.619 1369.44 548.537C1369.44 550.454 1367.56 552.009 1365.24 552.009Z" fill="white"/>
<path opacity="0.64" d="M1445.42 588.686C1445.42 590.721 1447.41 592.369 1449.87 592.369C1452.33 592.369 1454.33 590.721 1454.33 588.686C1454.33 586.65 1452.33 585.004 1449.87 585.004C1447.41 585.004 1445.42 586.652 1445.42 588.686Z" fill="white"/>
<path opacity="0.58" d="M615.723 548.241C615.723 551.326 618.752 553.828 622.483 553.828C626.217 553.828 629.237 551.326 629.237 548.241C629.237 545.154 626.217 542.654 622.483 542.654C618.752 542.652 615.723 545.154 615.723 548.241Z" fill="white"/>
<path opacity="0.61" d="M792.785 617.105C792.785 618.261 793.915 619.196 795.316 619.196C796.712 619.196 797.843 618.261 797.843 617.105C797.843 615.949 796.712 615.012 795.316 615.012C793.915 615.014 792.785 615.95 792.785 617.105Z" fill="white"/>
<path opacity="0.8" d="M826.787 571.106C826.787 572.892 828.535 574.339 830.699 574.339C832.857 574.339 834.607 572.893 834.607 571.106C834.607 569.322 832.859 567.873 830.699 567.873C828.537 567.873 826.787 569.322 826.787 571.106Z" fill="white"/>
<path opacity="0.7" d="M887.887 597.09C888.889 596.691 889.695 596.024 890.179 595.197C891.063 593.686 891.674 591.966 891.939 590.117C892.205 591.967 892.815 593.687 893.699 595.199C894.184 596.029 894.988 596.692 895.991 597.094C897.819 597.824 899.899 598.33 902.129 598.549C899.901 598.764 897.819 599.267 895.991 600C894.992 600.402 894.18 601.067 893.699 601.896C892.815 603.407 892.203 605.13 891.939 606.977C891.673 605.13 891.063 603.408 890.179 601.897C889.695 601.07 888.889 600.402 887.887 600C886.061 599.273 883.978 598.762 881.744 598.549C883.98 598.329 886.061 597.821 887.887 597.09Z" fill="white"/>
<path opacity="0.72" d="M1000.79 576.955C1000.79 578.072 1001.89 578.981 1003.24 578.981C1004.59 578.981 1005.69 578.074 1005.69 576.955C1005.69 575.835 1004.6 574.926 1003.24 574.926C1001.89 574.928 1000.79 575.835 1000.79 576.955Z" fill="white"/>
<path opacity="0.85" d="M1068.82 612.286C1068.82 613.263 1069.77 614.053 1070.95 614.053C1072.13 614.053 1073.09 613.265 1073.09 612.286C1073.09 611.312 1072.13 610.521 1070.95 610.521C1069.77 610.521 1068.82 611.312 1068.82 612.286Z" fill="white"/>
<path opacity="0.87" d="M1126.63 628.347C1126.63 629.405 1127.67 630.261 1128.94 630.261C1130.22 630.261 1131.26 629.405 1131.26 628.347C1131.26 627.292 1130.22 626.436 1128.94 626.436C1127.67 626.434 1126.63 627.29 1126.63 628.347Z" fill="white"/>
<path opacity="0.59" d="M1369.39 554.47C1369.39 555.424 1370.32 556.201 1371.48 556.201C1372.64 556.201 1373.57 555.424 1373.57 554.47C1373.57 553.514 1372.64 552.739 1371.48 552.739C1370.33 552.739 1369.39 553.516 1369.39 554.47Z" fill="white"/>
<path opacity="0.5" d="M1320.44 491.836C1320.44 492.845 1321.43 493.659 1322.64 493.659C1323.86 493.659 1324.85 492.845 1324.85 491.836C1324.85 490.831 1323.86 490.015 1322.64 490.015C1321.43 490.015 1320.44 490.831 1320.44 491.836Z" fill="white"/>
<path opacity="0.9" d="M1452.08 594.621C1452.08 595.705 1453.15 596.583 1454.45 596.583C1455.76 596.583 1456.82 595.705 1456.82 594.621C1456.82 593.537 1455.76 592.662 1454.45 592.662C1453.14 592.662 1452.08 593.537 1452.08 594.621Z" fill="white"/>
<path opacity="0.92" d="M683.79 475.155C683.79 477.431 686.024 479.278 688.774 479.278C691.525 479.278 693.759 477.431 693.759 475.155C693.759 472.879 691.525 471.034 688.774 471.034C686.024 471.034 683.79 472.879 683.79 475.155Z" fill="white"/>
<path opacity="0.77" d="M803.773 447.768C804.611 447.364 805.289 446.692 805.695 445.858C806.436 444.335 806.949 442.599 807.168 440.734C807.393 442.599 807.907 444.336 808.645 445.861C809.054 446.697 809.729 447.367 810.567 447.772C812.103 448.508 813.845 449.019 815.718 449.239C813.848 449.457 812.101 449.965 810.567 450.703C809.732 451.108 809.051 451.78 808.645 452.614C807.907 454.14 807.391 455.876 807.168 457.738C806.947 455.877 806.436 454.142 805.695 452.618C805.289 451.78 804.611 451.108 803.773 450.704C802.237 449.968 800.492 449.454 798.619 449.238C800.493 449.019 802.239 448.507 803.773 447.768Z" fill="white"/>
<path opacity="0.68" d="M885.093 517.941C885.093 518.815 885.948 519.52 887.003 519.52C888.057 519.52 888.912 518.815 888.912 517.941C888.912 517.069 888.057 516.364 887.003 516.364C885.948 516.364 885.093 517.069 885.093 517.941Z" fill="white"/>
<path opacity="0.58" d="M1164.34 461.732C1164.34 462.781 1165.36 463.629 1166.63 463.629C1167.9 463.629 1168.93 462.782 1168.93 461.732C1168.93 460.683 1167.9 459.835 1166.63 459.835C1165.36 459.837 1164.34 460.683 1164.34 461.732Z" fill="white"/>
<path opacity="0.94" d="M1251.29 456.914C1251.29 458.045 1252.39 458.96 1253.76 458.96C1255.13 458.96 1256.24 458.045 1256.24 456.914C1256.24 455.784 1255.13 454.868 1253.76 454.868C1252.4 454.868 1251.29 455.784 1251.29 456.914Z" fill="white"/>
<path opacity="0.54" d="M1313.6 440.39C1313.6 442.959 1315.7 445.045 1318.28 445.045C1320.86 445.045 1322.96 442.959 1322.96 440.39C1322.96 437.818 1320.86 435.732 1318.28 435.732C1315.7 435.732 1313.6 437.818 1313.6 440.39Z" fill="white"/>
<path opacity="0.88" d="M1412.5 427.417C1413.53 426.916 1414.37 426.087 1414.87 425.059C1415.79 423.175 1416.42 421.032 1416.69 418.729C1416.97 421.034 1417.6 423.18 1418.52 425.06C1419.02 426.093 1419.85 426.919 1420.89 427.425C1422.79 428.332 1424.94 428.962 1427.25 429.234C1424.94 429.503 1422.79 430.133 1420.89 431.045C1419.86 431.546 1419.02 432.375 1418.52 433.403C1417.6 435.291 1416.97 437.432 1416.69 439.733C1416.42 437.435 1415.79 435.292 1414.87 433.408C1414.37 432.377 1413.53 431.548 1412.5 431.049C1410.6 430.138 1408.44 429.501 1406.13 429.233C1408.45 428.962 1410.6 428.329 1412.5 427.417Z" fill="white"/>
<path opacity="0.73" d="M626.624 391.223C626.624 394.26 629.1 396.724 632.158 396.724C635.211 396.724 637.688 394.26 637.688 391.223C637.688 388.183 635.213 385.721 632.158 385.721C629.1 385.721 626.624 388.183 626.624 391.223Z" fill="white"/>
<path opacity="0.6" d="M654.202 330.45C654.202 331.354 655.09 332.085 656.18 332.085C657.273 332.085 658.161 331.354 658.161 330.45C658.161 329.546 657.273 328.815 656.18 328.815C655.09 328.817 654.202 329.547 654.202 330.45Z" fill="white"/>
<path opacity="0.84" d="M1061.26 417.76C1062.1 417.357 1062.78 416.685 1063.18 415.85C1063.92 414.326 1064.44 412.592 1064.66 410.727C1064.88 412.591 1065.39 414.328 1066.14 415.853C1066.54 416.69 1067.22 417.358 1068.06 417.765C1069.59 418.501 1071.33 419.012 1073.21 419.23C1071.34 419.449 1069.59 419.956 1068.06 420.698C1067.22 421.1 1066.54 421.771 1066.14 422.606C1065.39 424.132 1064.88 425.867 1064.66 427.731C1064.44 425.869 1063.92 424.135 1063.18 422.611C1062.78 421.776 1062.1 421.103 1061.26 420.701C1059.73 419.964 1057.98 419.451 1056.11 419.231C1057.98 419.012 1059.73 418.499 1061.26 417.76Z" fill="white"/>
<path opacity="0.52" d="M1196.92 343.21C1196.92 345.145 1198.72 346.712 1200.95 346.712C1203.17 346.712 1204.97 345.145 1204.97 343.21C1204.97 341.276 1203.17 339.71 1200.95 339.71C1198.72 339.71 1196.92 341.276 1196.92 343.21Z" fill="white"/>
<path opacity="0.82" d="M1268.7 388.266C1268.7 389.201 1269.62 389.959 1270.75 389.959C1271.88 389.959 1272.79 389.201 1272.79 388.266C1272.79 387.331 1271.88 386.573 1270.75 386.573C1269.62 386.575 1268.7 387.331 1268.7 388.266Z" fill="white"/>
<path opacity="0.98" d="M1488.61 382.723C1488.61 384.378 1489.96 385.721 1491.63 385.721C1493.29 385.721 1494.64 384.377 1494.64 382.723C1494.64 381.063 1493.29 379.72 1491.63 379.72C1489.96 379.72 1488.61 381.063 1488.61 382.723Z" fill="white"/>
<path opacity="0.76" d="M1254.25 321.706C1254.25 325.018 1256.96 327.707 1260.29 327.707C1263.62 327.707 1266.32 325.018 1266.32 321.706C1266.32 318.392 1263.62 315.705 1260.29 315.705C1256.96 315.705 1254.25 318.392 1254.25 321.706Z" fill="white"/>
<path opacity="0.71" d="M1401.73 263.682C1401.73 264.822 1402.85 265.748 1404.22 265.748C1405.61 265.748 1406.72 264.823 1406.72 263.682C1406.72 262.541 1405.61 261.616 1404.22 261.616C1402.85 261.616 1401.73 262.54 1401.73 263.682Z" fill="white"/>
<path opacity="0.53" d="M1405.41 255.652C1405.41 256.76 1406.49 257.656 1407.83 257.656C1409.17 257.656 1410.26 256.76 1410.26 255.652C1410.26 254.545 1409.17 253.647 1407.83 253.647C1406.49 253.647 1405.41 254.545 1405.41 255.652Z" fill="white"/>
<path opacity="0.62" d="M955.25 509.194C956.187 508.769 956.945 508.056 957.399 507.174C958.228 505.559 958.8 503.723 959.045 501.748C959.296 503.723 959.869 505.56 960.699 507.175C961.152 508.061 961.903 508.769 962.844 509.199C964.558 509.98 966.505 510.519 968.602 510.752C966.51 510.983 964.56 511.523 962.844 512.306C961.909 512.732 961.149 513.442 960.699 514.325C959.868 515.943 959.294 517.779 959.045 519.752C958.799 517.782 958.227 515.945 957.399 514.33C956.944 513.444 956.187 512.733 955.25 512.306C953.538 511.526 951.588 510.981 949.491 510.752C951.588 510.519 953.538 509.979 955.25 509.194Z" fill="white"/>
<path opacity="0.95" d="M392.999 388.58C393.937 388.129 394.692 387.377 395.148 386.445C395.977 384.741 396.549 382.804 396.795 380.72C397.043 382.804 397.618 384.744 398.446 386.448C398.9 387.383 399.655 388.132 400.593 388.583C402.308 389.409 404.258 389.979 406.351 390.224C404.259 390.465 402.308 391.037 400.593 391.862C399.66 392.313 398.898 393.066 398.446 393.997C397.618 395.706 397.043 397.643 396.795 399.724C396.549 397.645 395.976 395.708 395.148 394.003C394.692 393.067 393.937 392.317 392.999 391.865C391.285 391.042 389.334 390.467 387.24 390.224C389.336 389.979 391.285 389.405 392.999 388.58Z" fill="white"/>
<path opacity="0.97" d="M1405.61 174.055C1405.61 175.068 1406.61 175.892 1407.83 175.892C1409.06 175.892 1410.05 175.07 1410.05 174.055C1410.05 173.04 1409.06 172.216 1407.83 172.216C1406.6 172.217 1405.61 173.041 1405.61 174.055Z" fill="white"/>
<path opacity="0.82" d="M248.901 641.195C248.901 642.171 249.857 642.961 251.034 642.961C252.213 642.961 253.171 642.173 253.171 641.195C253.171 640.22 252.215 639.43 251.034 639.43C249.857 639.43 248.901 640.22 248.901 641.195Z" fill="white"/>
<path opacity="0.88" d="M166.965 476.381C166.965 479.531 170.062 482.09 173.875 482.09C177.692 482.09 180.784 479.531 180.784 476.381C180.784 473.226 177.692 470.668 173.875 470.668C170.062 470.67 166.965 473.228 166.965 476.381Z" fill="white"/>
<path opacity="0.93" d="M446.914 448.884C446.914 450.015 448.021 450.93 449.387 450.93C450.756 450.93 451.863 450.015 451.863 448.884C451.863 447.754 450.756 446.838 449.387 446.838C448.021 446.838 446.914 447.754 446.914 448.884Z" fill="white"/>
<path opacity="0.8" d="M488.827 339.209C488.827 341.144 490.403 342.711 492.348 342.711C494.293 342.711 495.868 341.144 495.868 339.209C495.868 337.275 494.293 335.709 492.348 335.709C490.403 335.709 488.827 337.275 488.827 339.209Z" fill="white"/>
<path opacity="0.75" d="M1470.5 175.673C1470.5 178.434 1472.76 180.673 1475.53 180.673C1478.31 180.673 1480.56 178.434 1480.56 175.673C1480.56 172.912 1478.31 170.671 1475.53 170.671C1472.76 170.671 1470.5 172.912 1470.5 175.673Z" fill="white"/>
<path d="M1729 417.91L1728.03 429.14C1670.42 446.89 1534.61 474.165 1403.96 477.271C1248.29 480.972 1129.41 457.08 1013.97 429.14C898.532 401.051 782.876 397.963 667.438 404.909C551.999 411.854 436.346 428.83 320.906 440.716C205.469 452.446 89.8142 459.236 32.2032 462.479L-25.6263 465.879V672.698H32.2032C89.8142 672.698 205.469 672.698 320.906 672.698C436.346 672.698 551.999 672.698 667.438 672.698C782.876 672.698 898.532 672.698 1013.97 672.698C1129.41 672.698 1245.06 672.698 1360.5 672.698C1475.94 672.698 1591.6 672.698 1649.21 672.698H1707.03L1729 417.91Z" fill="white" fill-opacity="0.3"/>
<path d="M1699.21 436.649L1642.27 440.963C1585.55 445.144 1471.67 453.776 1358.01 483.175C1244.35 512.573 1130.47 563.007 1016.81 547.23C903.146 531.451 789.27 449.728 675.607 418.442C561.945 387.155 448.071 406.574 334.407 421.408C220.747 436.242 106.871 446.492 50.1464 451.751L-6.79346 456.875V746.817H50.1464C106.871 746.817 220.747 746.817 334.407 746.817C448.071 746.817 561.945 746.817 675.607 746.817C789.27 746.817 903.146 746.817 1016.81 746.817C1130.47 746.817 1244.35 746.817 1358.01 746.817C1471.67 746.817 1585.55 746.817 1642.27 746.817H1699.21V436.649Z" fill="url(#paint1_linear_2001_547)"/>
<defs>
<linearGradient id="paint0_linear_2001_547" x1="-25.1451" y1="389.222" x2="1688.77" y2="389.222" gradientUnits="userSpaceOnUse">
<stop offset="0.131667" stop-color="#C8C3FF"/>
<stop offset="0.736667" stop-color="#C8C3FF"/>
</linearGradient>
<linearGradient id="paint1_linear_2001_547" x1="-286.915" y1="574.255" x2="2392.67" y2="574.256" gradientUnits="userSpaceOnUse">
<stop offset="0.411667" stop-color="#C8C3FF"/>
<stop offset="0.711667" stop-color="#B8EEF4"/>
</linearGradient>
</defs>
</svg>
