<svg width="1680" height="605" viewBox="0 0 1680 605" fill="none" xmlns="http://www.w3.org/2000/svg">
<g clip-path="url(#clip0_610_566)">
<g style="mix-blend-mode:overlay">
<path d="M-3 135.721L54.138 133.947C111.062 131.952 225.338 128.401 339.4 204.903C453.462 281.407 567.738 437.961 681.8 466.788C795.862 495.613 910.138 396.715 1024.2 374.763C1138.26 353.032 1252.54 408.467 1366.6 453.26C1480.66 497.834 1594.94 531.981 1651.86 548.833L1709 565.911V851.965H1651.86C1594.94 851.965 1480.66 851.965 1366.6 851.965C1252.54 851.965 1138.26 851.965 1024.2 851.965C910.138 851.965 795.862 851.965 681.8 851.965C567.738 851.965 453.462 851.965 339.4 851.965C225.338 851.965 111.062 851.965 54.138 851.965H-3V135.721Z" fill="url(#paint0_linear_610_566)" fill-opacity="0.5"/>
</g>
<path opacity="0.5" d="M225.531 601.758C225.531 603.036 224.444 604.067 223.107 604.067C221.767 604.067 220.678 603.036 220.678 601.758C220.678 600.484 221.767 599.45 223.107 599.45C224.444 599.45 225.531 600.484 225.531 601.758Z" fill="white"/>
<path opacity="0.92" d="M926.916 580.619C926.916 583.502 924.455 585.843 921.425 585.843C918.395 585.843 915.934 583.502 915.934 580.619C915.934 577.735 918.395 575.396 921.425 575.396C924.455 575.396 926.916 577.735 926.916 580.619Z" fill="white"/>
<path opacity="0.77" d="M793.914 546.394C792.819 545.889 791.933 545.049 791.402 544.007C790.432 542.102 789.763 539.932 789.476 537.6C789.183 539.932 788.511 542.104 787.546 544.011C787.011 545.055 786.129 545.893 785.033 546.4C783.026 547.32 780.749 547.959 778.301 548.234C780.745 548.506 783.028 549.141 785.033 550.063C786.125 550.57 787.015 551.411 787.546 552.453C788.511 554.361 789.185 556.531 789.476 558.859C789.765 556.533 790.432 554.364 791.402 552.459C791.933 551.411 792.819 550.57 793.914 550.065C795.922 549.145 798.203 548.502 800.651 548.232C798.201 547.959 795.919 547.318 793.914 546.394Z" fill="white"/>
<path opacity="0.62" d="M588.72 571.996C588.72 575.989 585.313 579.231 581.108 579.231C576.907 579.231 573.496 575.989 573.496 571.996C573.496 567.999 576.907 564.757 581.108 564.757C585.313 564.759 588.72 568.001 588.72 571.996Z" fill="white"/>
<path opacity="0.58" d="M397.508 563.609C397.508 564.938 396.376 566.013 394.979 566.013C393.586 566.013 392.449 564.94 392.449 563.609C392.449 562.28 393.583 561.206 394.979 561.206C396.376 561.208 397.508 562.28 397.508 563.609Z" fill="white"/>
<path opacity="0.94" d="M301.716 557.504C301.716 558.937 300.497 560.097 298.992 560.097C297.483 560.097 296.264 558.937 296.264 557.504C296.264 556.071 297.483 554.911 298.992 554.911C300.494 554.911 301.716 556.071 301.716 557.504Z" fill="white"/>
<path opacity="0.54" d="M243.766 558.236C243.766 560.941 241.455 563.137 238.609 563.137C235.76 563.137 233.451 560.941 233.451 558.236C233.451 555.527 235.76 553.332 238.609 553.332C241.455 553.332 243.766 555.527 243.766 558.236Z" fill="white"/>
<path opacity="0.88" d="M122.615 520.201C121.286 519.587 120.214 518.569 119.567 517.307C118.393 514.995 117.582 512.366 117.231 509.539C116.875 512.368 116.064 515.001 114.887 517.309C114.241 518.577 113.173 519.591 111.842 520.211C109.409 521.325 106.646 522.098 103.676 522.432C106.642 522.761 109.409 523.535 111.842 524.654C113.167 525.269 114.245 526.286 114.887 527.548C116.064 529.864 116.875 532.491 117.231 535.316C117.582 532.495 118.393 529.866 119.567 527.554C120.214 526.288 121.286 525.271 122.615 524.658C125.046 523.541 127.813 522.759 130.781 522.43C127.811 522.098 125.044 521.32 122.615 520.201Z" fill="white"/>
<path opacity="0.73" d="M990.319 474.828C990.319 478.691 987.025 481.825 982.957 481.825C978.895 481.825 975.6 478.691 975.6 474.828C975.6 470.962 978.893 467.83 982.957 467.83C987.025 467.83 990.319 470.962 990.319 474.828Z" fill="white"/>
<path opacity="0.6" d="M959.51 397.247C959.51 398.392 958.532 399.318 957.331 399.318C956.126 399.318 955.148 398.392 955.148 397.247C955.148 396.101 956.126 395.175 957.331 395.175C958.532 395.177 959.51 396.103 959.51 397.247Z" fill="white"/>
<path opacity="0.84" d="M548.83 446.542C547.715 446.029 546.819 445.177 546.277 444.116C545.295 442.181 544.614 439.979 544.321 437.61C544.024 439.977 543.343 442.183 542.357 444.12C541.817 445.183 540.923 446.031 539.808 446.548C537.773 447.482 535.457 448.132 532.971 448.408C535.453 448.687 537.773 449.33 539.808 450.272C540.921 450.783 541.822 451.636 542.357 452.696C543.343 454.634 544.024 456.838 544.321 459.205C544.614 456.84 545.295 454.638 546.277 452.702C546.819 451.642 547.715 450.787 548.83 450.277C550.865 449.34 553.183 448.689 555.672 448.41C553.183 448.132 550.865 447.48 548.83 446.542Z" fill="white"/>
<path opacity="0.52" d="M334.705 395.94C334.705 398.437 332.58 400.46 329.954 400.46C327.33 400.46 325.203 398.437 325.203 395.94C325.203 393.443 327.33 391.422 329.954 391.422C332.578 391.422 334.705 393.443 334.705 395.94Z" fill="white"/>
<path opacity="0.82" d="M282.531 470.512C282.531 471.696 281.523 472.657 280.277 472.657C279.032 472.657 278.02 471.696 278.02 470.512C278.02 469.327 279.032 468.367 280.277 468.367C281.523 468.369 282.531 469.327 282.531 470.512Z" fill="white"/>
<path opacity="0.98" d="M40.0081 463.104C40.0081 465.281 38.1484 467.048 35.8565 467.048C33.5646 467.048 31.707 465.279 31.707 463.104C31.707 460.92 33.5646 459.153 35.8565 459.153C38.1463 459.153 40.0081 460.92 40.0081 463.104Z" fill="white"/>
<path opacity="0.93" d="M495.428 375.727C495.428 377.191 494.18 378.377 492.642 378.377C491.103 378.377 489.855 377.191 489.855 375.727C489.855 374.266 491.103 373.078 492.642 373.078C494.18 373.078 495.428 374.264 495.428 375.727Z" fill="white"/>
<path opacity="0.76" d="M304.575 394.288C304.575 397.764 301.609 400.586 297.951 400.586C294.294 400.586 291.33 397.764 291.33 394.288C291.33 390.809 294.294 387.989 297.951 387.989C301.609 387.989 304.575 390.809 304.575 394.288Z" fill="white"/>
<path opacity="0.71" d="M135.977 312.638C135.977 314.083 134.744 315.257 133.227 315.257C131.705 315.257 130.473 314.085 130.473 312.638C130.473 311.193 131.705 310.021 133.227 310.021C134.744 310.021 135.977 311.191 135.977 312.638Z" fill="white"/>
<path opacity="0.53" d="M131.924 302.462C131.924 303.866 130.727 305.002 129.253 305.002C127.776 305.002 126.58 303.866 126.58 302.462C126.58 301.06 127.776 299.922 129.253 299.922C130.725 299.922 131.924 301.06 131.924 302.462Z" fill="white"/>
<path opacity="0.95" d="M1246.38 470.848C1245.12 470.268 1244.1 469.302 1243.49 468.105C1242.38 465.915 1241.61 463.426 1241.28 460.748C1240.94 463.426 1240.17 465.919 1239.06 468.109C1238.45 469.31 1237.43 470.273 1236.17 470.853C1233.87 471.913 1231.25 472.645 1228.44 472.961C1231.25 473.27 1233.87 474.005 1236.17 475.065C1237.43 475.645 1238.45 476.612 1239.06 477.809C1240.17 480.005 1240.94 482.493 1241.28 485.168C1241.61 482.496 1242.38 480.007 1243.49 477.817C1244.1 476.614 1245.12 475.649 1246.38 475.069C1248.68 474.011 1251.3 473.272 1254.12 472.961C1251.3 472.645 1248.68 471.909 1246.38 470.848Z" fill="white"/>
<path opacity="0.59" d="M400.451 271.164C399.218 270.597 398.226 269.652 397.628 268.482C396.539 266.339 395.786 263.903 395.461 261.282C395.133 263.903 394.378 266.343 393.289 268.486C392.689 269.66 391.699 270.601 390.466 271.17C388.208 272.208 385.647 272.925 382.895 273.232C385.642 273.537 388.208 274.254 390.466 275.296C391.694 275.861 392.694 276.806 393.289 277.978C394.378 280.125 395.131 282.561 395.461 285.18C395.784 282.565 396.539 280.127 397.628 277.984C398.226 276.808 399.218 275.863 400.451 275.296C402.705 274.26 405.27 273.537 408.025 273.23C405.27 272.923 402.705 272.202 400.451 271.164Z" fill="white"/>
<path opacity="0.8" d="M305.198 201.341C305.198 204.983 302.093 207.936 298.26 207.936C294.429 207.936 291.324 204.983 291.324 201.341C291.324 197.698 294.429 194.745 298.26 194.745C302.091 194.743 305.198 197.698 305.198 201.341Z" fill="white"/>
<path opacity="0.97" d="M131.701 199.061C131.701 200.345 130.601 201.389 129.253 201.389C127.903 201.389 126.803 200.347 126.803 199.061C126.803 197.775 127.903 196.731 129.253 196.731C130.603 196.733 131.701 197.777 131.701 199.061Z" fill="white"/>
<path opacity="0.88" d="M1496.29 582.172C1496.29 586.165 1492.88 589.407 1488.68 589.407C1484.47 589.407 1481.07 586.165 1481.07 582.172C1481.07 578.175 1484.47 574.933 1488.68 574.933C1492.88 574.935 1496.29 578.177 1496.29 582.172Z" fill="white"/>
<path opacity="0.93" d="M1187.88 547.328C1187.88 548.761 1186.66 549.921 1185.15 549.921C1183.65 549.921 1182.43 548.761 1182.43 547.328C1182.43 545.895 1183.65 544.735 1185.15 544.735C1186.66 544.735 1187.88 545.895 1187.88 547.328Z" fill="white"/>
<path opacity="0.8" d="M1141.69 408.151C1141.69 410.648 1139.56 412.671 1136.94 412.671C1134.31 412.671 1132.19 410.648 1132.19 408.151C1132.19 405.654 1134.31 403.633 1136.94 403.633C1139.56 403.633 1141.69 405.654 1141.69 408.151Z" fill="white"/>
<path opacity="0.75" d="M87.3022 159.122C87.3022 163.931 83.202 167.83 78.1473 167.83C73.0905 167.83 68.9902 163.931 68.9902 159.122C68.9902 154.315 73.0905 150.411 78.1473 150.411C83.202 150.411 87.3022 154.315 87.3022 159.122Z" fill="white"/>
<path d="M-9.75977 544.335L46.6148 548.629C102.778 552.791 215.527 561.384 328.065 590.648C440.603 619.913 553.352 670.117 665.89 654.412C778.428 638.705 891.177 557.354 1003.72 526.211C1116.25 495.067 1229 514.397 1341.54 529.163C1454.08 543.93 1566.83 554.133 1622.99 559.368L1679.37 564.469V853.087H1622.99C1566.83 853.087 1454.08 853.087 1341.54 853.087C1229 853.087 1116.25 853.087 1003.72 853.087C891.177 853.087 778.428 853.087 665.89 853.087C553.352 853.087 440.603 853.087 328.065 853.087C215.527 853.087 102.778 853.087 46.6148 853.087H-9.75977V544.335Z" fill="url(#paint1_linear_610_566)"/>
<path d="M-28.375 530.132L-27.4164 544.362C29.6281 566.856 164.108 601.419 293.466 605.354C447.61 610.044 565.321 579.768 679.625 544.362C793.928 508.768 908.446 504.855 1022.75 513.656C1137.05 522.458 1251.57 543.97 1365.87 559.031C1480.18 573.896 1594.69 582.501 1651.74 586.609L1709 590.918V853.001H1651.74C1594.69 853.001 1480.18 853.001 1365.87 853.001C1251.57 853.001 1137.05 853.001 1022.75 853.001C908.446 853.001 793.928 853.001 679.625 853.001C565.321 853.001 450.803 853.001 336.5 853.001C222.196 853.001 107.678 853.001 50.6335 853.001H-6.62545L-28.375 530.132Z" fill="#6C6BD1"/>
</g>
<defs>
<linearGradient id="paint0_linear_610_566" x1="1709" y1="492.579" x2="-3" y2="492.579" gradientUnits="userSpaceOnUse">
<stop stop-color="#DDFFFC"/>
<stop offset="0.13" stop-color="#B8EEF4"/>
<stop offset="0.3" stop-color="#BFDAF9"/>
<stop offset="0.51" stop-color="#C8C3FF"/>
</linearGradient>
<linearGradient id="paint1_linear_610_566" x1="1679.37" y1="681.313" x2="-9.75977" y2="681.313" gradientUnits="userSpaceOnUse">
<stop stop-color="#B8EEF4"/>
<stop offset="1" stop-color="#C8C3FF"/>
</linearGradient>
<clipPath id="clip0_610_566">
<rect width="1738" height="1017.57" fill="white" transform="translate(-29)"/>
</clipPath>
</defs>
</svg>
