<svg width="471" height="166" viewBox="0 0 471 166" fill="none" xmlns="http://www.w3.org/2000/svg">
<path d="M285.799 128.275C278.053 120.55 274.18 111.17 274.18 100.135C274.18 89.0996 278.053 79.7196 285.799 71.9949C293.618 64.1967 303.061 60.2976 314.127 60.2976C324.455 60.2976 333.381 63.7185 340.906 70.5604C342.012 71.5903 342.049 72.6203 341.016 73.6502L332.385 82.5888C331.426 83.4716 330.504 83.4716 329.619 82.5888C325.34 78.8368 320.36 76.9608 314.68 76.9608C308.483 76.9608 303.319 79.2046 299.188 83.6923C295.057 88.1064 292.991 93.4401 292.991 99.6934C292.991 105.873 295.057 111.17 299.188 115.584C303.393 119.925 308.594 122.095 314.791 122.095C320.545 122.095 325.487 120.329 329.619 116.798C330.651 115.915 331.61 115.952 332.496 116.908L341.127 126.068C342.086 127.024 342.049 128.017 341.016 129.047C333.639 136.183 324.676 139.751 314.127 139.751C303.061 139.751 293.618 135.926 285.799 128.275ZM374.204 139.751C367.933 139.751 362.696 138.832 358.491 136.992C354.359 135.153 351.298 133.24 349.306 131.254C348.347 130.298 348.2 129.194 348.863 127.944L353.954 119.005C354.396 118.343 354.986 117.975 355.724 117.901C356.536 117.754 357.2 117.901 357.716 118.343C363.691 122.389 368.929 124.412 373.429 124.412C375.642 124.412 377.45 123.787 378.851 122.536C380.327 121.286 381.065 119.704 381.065 117.791C381.065 115.584 380.142 113.671 378.298 112.053C376.454 110.361 373.577 108.558 369.667 106.646C366.347 105.027 363.655 103.629 361.589 102.452C359.523 101.202 357.347 99.583 355.06 97.5967C352.773 95.6103 351.04 93.3665 349.859 90.8652C348.753 88.2903 348.2 85.4211 348.2 82.2577C348.2 76.2987 350.45 71.1489 354.95 66.8084C359.45 62.4679 365.72 60.2976 373.761 60.2976C382.024 60.2976 389.917 63.0564 397.442 68.574C398.032 68.9419 398.364 69.5304 398.438 70.3397C398.511 71.1489 398.401 71.7375 398.106 72.1053L392.462 80.6024C391.356 82.3681 389.733 82.6256 387.593 81.3749C381.839 77.4022 376.86 75.4159 372.655 75.4159C370.441 75.4159 368.745 76.0044 367.564 77.1815C366.458 78.3586 365.905 79.7932 365.905 81.4852C365.905 83.1773 366.864 84.7958 368.782 86.3407C370.7 87.8857 373.761 89.6881 377.966 91.748C384.901 95.1321 389.622 97.8542 392.13 99.9141C397.589 104.402 400.319 110.066 400.319 116.908C400.319 122.941 397.884 128.275 393.015 132.909C388.22 137.471 381.95 139.751 374.204 139.751ZM424.53 136.551V77.6229H408.706C408.116 77.6229 407.599 77.439 407.157 77.0711C406.788 76.6297 406.604 76.1148 406.604 75.5262V63.4978C406.604 62.9093 406.788 62.4311 407.157 62.0632C407.599 61.6218 408.116 61.4011 408.706 61.4011H457.838C458.428 61.4011 458.907 61.6218 459.276 62.0632C459.719 62.4311 459.94 62.9093 459.94 63.4978V75.5262C459.94 76.1148 459.719 76.6297 459.276 77.0711C458.907 77.439 458.428 77.6229 457.838 77.6229H442.014V136.551C442.014 137.066 441.792 137.544 441.35 137.986C440.907 138.427 440.428 138.648 439.911 138.648H426.632C426.116 138.648 425.636 138.427 425.194 137.986C424.751 137.544 424.53 137.066 424.53 136.551Z" fill="black"/>
<path d="M15.9344 128.275C8.18841 120.55 4.31543 111.17 4.31543 100.135C4.31543 89.0996 8.18841 79.7196 15.9344 71.9949C23.7541 64.1967 33.1968 60.2976 44.2625 60.2976C54.5904 60.2976 63.5167 63.7185 71.0414 70.5604C72.1479 71.5903 72.1848 72.6203 71.152 73.6502L62.5208 82.5888C61.5618 83.4716 60.6397 83.4716 59.7544 82.5888C55.4757 78.8368 50.4961 76.9608 44.8158 76.9608C38.619 76.9608 33.455 79.2046 29.3238 83.6923C25.1926 88.1064 23.1271 93.4401 23.1271 99.6934C23.1271 105.873 25.1926 111.17 29.3238 115.584C33.5288 119.925 38.7296 122.095 44.9264 122.095C50.6806 122.095 55.6232 120.329 59.7544 116.798C60.7872 115.915 61.7462 115.952 62.6315 116.908L71.2627 126.068C72.2217 127.024 72.1848 128.017 71.152 129.047C63.7749 136.183 54.8117 139.751 44.2625 139.751C33.1968 139.751 23.7541 135.926 15.9344 128.275ZM104.987 139.751C98.7169 139.751 93.4792 138.832 89.2743 136.992C85.1431 135.153 82.0816 133.24 80.0898 131.254C79.1308 130.298 78.9832 129.194 79.6471 127.944L84.7374 119.005C85.18 118.343 85.7701 117.975 86.5079 117.901C87.3193 117.754 87.9833 117.901 88.4997 118.343C94.4751 122.389 99.7128 124.412 104.213 124.412C106.426 124.412 108.233 123.787 109.635 122.536C111.11 121.286 111.848 119.704 111.848 117.791C111.848 115.584 110.926 113.671 109.082 112.053C107.237 110.361 104.36 108.558 100.451 106.646C97.1308 105.027 94.4382 103.629 92.3727 102.452C90.3071 101.202 88.1308 99.583 85.8439 97.5967C83.557 95.6103 81.8234 93.3665 80.6431 90.8652C79.5365 88.2903 78.9832 85.4211 78.9832 82.2577C78.9832 76.2987 81.2332 71.1489 85.7333 66.8084C90.2333 62.4679 96.5037 60.2976 104.545 60.2976C112.807 60.2976 120.701 63.0564 128.225 68.574C128.815 68.9419 129.147 69.5304 129.221 70.3397C129.295 71.1489 129.184 71.7375 128.889 72.1053L123.246 80.6024C122.139 82.3681 120.516 82.6256 118.377 81.3749C112.623 77.4022 107.643 75.4159 103.438 75.4159C101.225 75.4159 99.5284 76.0044 98.348 77.1815C97.2415 78.3586 96.6882 79.7932 96.6882 81.4852C96.6882 83.1773 97.6472 84.7958 99.5652 86.3407C101.483 87.8857 104.545 89.6881 108.75 91.748C115.684 95.1321 120.406 97.8542 122.914 99.9141C128.373 104.402 131.102 110.066 131.102 116.908C131.102 122.941 128.668 128.275 123.799 132.909C119.004 137.471 112.733 139.751 104.987 139.751ZM145.143 136.551V63.4978C145.143 62.9093 145.328 62.4311 145.697 62.0632C146.139 61.6218 146.656 61.4011 147.246 61.4011H193.058C193.648 61.4011 194.127 61.6218 194.496 62.0632C194.939 62.4311 195.16 62.9093 195.16 63.4978V75.5262C195.16 76.1148 194.939 76.6297 194.496 77.0711C194.127 77.439 193.648 77.6229 193.058 77.6229H162.406V91.3066H187.636C188.152 91.3066 188.632 91.5273 189.074 91.9687C189.517 92.3366 189.738 92.8147 189.738 93.4033V105.432C189.738 106.02 189.517 106.535 189.074 106.977C188.705 107.344 188.226 107.528 187.636 107.528H162.406V122.426H193.058C193.648 122.426 194.127 122.647 194.496 123.088C194.939 123.456 195.16 123.934 195.16 124.523V136.551C195.16 137.14 194.939 137.655 194.496 138.096C194.127 138.464 193.648 138.648 193.058 138.648H147.246C146.656 138.648 146.139 138.464 145.697 138.096C145.328 137.655 145.143 137.14 145.143 136.551Z" fill="black"/>
<path d="M234.067 42.3646V145.25" stroke="#FBAF1A" stroke-width="8.4"/>
<path d="M119.69 13.437C118.994 13.437 118.368 13.3185 117.81 13.0814C117.252 12.8444 116.778 12.507 116.384 12.0694C115.991 11.6318 115.689 11.0984 115.479 10.4693C115.269 9.8402 115.164 9.1336 115.164 8.3495C115.164 7.58364 115.269 6.88616 115.479 6.25705C115.698 5.62795 116.01 5.09003 116.412 4.64327C116.814 4.1874 117.299 3.83638 117.865 3.59021C118.441 3.33492 119.086 3.20728 119.799 3.20728C120.348 3.20728 120.85 3.28021 121.308 3.42609C121.774 3.57198 122.181 3.78167 122.528 4.0552C122.875 4.32872 123.159 4.6615 123.378 5.05355C123.607 5.44561 123.757 5.8878 123.831 6.38014H122.528C122.381 5.69633 122.066 5.18119 121.582 4.83474C121.106 4.47916 120.508 4.30137 119.785 4.30137C119.291 4.30137 118.839 4.3971 118.428 4.58856C118.025 4.77091 117.678 5.03532 117.386 5.38178C117.093 5.71913 116.865 6.13397 116.7 6.62631C116.544 7.10953 116.466 7.65202 116.466 8.25377C116.466 8.89199 116.539 9.46642 116.686 9.97696C116.841 10.4785 117.06 10.9069 117.344 11.2625C117.636 11.6089 117.989 11.8779 118.401 12.0694C118.812 12.2517 119.278 12.3429 119.799 12.3429C120.211 12.3429 120.581 12.2746 120.91 12.1378C121.248 12.001 121.541 11.8096 121.787 11.5634C122.034 11.3081 122.226 11.0072 122.363 10.6608C122.51 10.3143 122.597 9.93593 122.624 9.52565H123.927C123.79 10.8021 123.355 11.7731 122.624 12.4387C121.892 13.1043 120.914 13.437 119.69 13.437ZM128.464 13.3686C127.943 13.3686 127.467 13.2821 127.037 13.1088C126.617 12.9355 126.255 12.6894 125.954 12.3703C125.661 12.0421 125.432 11.65 125.268 11.1941C125.103 10.7383 125.021 10.2323 125.021 9.67609C125.021 9.11081 125.1 8.60023 125.255 8.14436C125.419 7.68849 125.648 7.301 125.94 6.98189C126.242 6.65366 126.603 6.40294 127.023 6.2297C127.454 6.05647 127.933 5.96986 128.464 5.96986C128.994 5.96986 129.469 6.06103 129.89 6.24338C130.319 6.41661 130.681 6.66278 130.973 6.98189C131.275 7.301 131.503 7.68849 131.659 8.14436C131.823 8.60023 131.905 9.11081 131.905 9.67609C131.905 10.214 131.823 10.7109 131.659 11.1668C131.503 11.6136 131.275 12.001 130.973 12.3293C130.681 12.6575 130.319 12.9128 129.89 13.0951C129.469 13.2774 128.994 13.3686 128.464 13.3686ZM128.464 12.3429C128.783 12.3429 129.077 12.2791 129.341 12.1515C129.616 12.0239 129.848 11.8461 130.04 11.6181C130.242 11.3811 130.397 11.0984 130.507 10.7702C130.616 10.442 130.671 10.0772 130.671 9.67609C130.671 9.27492 130.616 8.91022 130.507 8.582C130.397 8.25377 130.246 7.97569 130.054 7.74775C129.862 7.5107 129.629 7.32835 129.355 7.20071C129.08 7.06395 128.779 6.99556 128.449 6.99556C128.139 6.99556 127.846 7.06395 127.572 7.20071C127.307 7.32835 127.074 7.5107 126.873 7.74775C126.681 7.9848 126.53 8.26745 126.42 8.59567C126.31 8.9239 126.255 9.28404 126.255 9.67609C126.255 10.0682 126.31 10.4283 126.42 10.7565C126.53 11.0847 126.681 11.3674 126.873 11.6044C127.065 11.8414 127.294 12.0239 127.559 12.1515C127.833 12.2791 128.135 12.3429 128.464 12.3429ZM134.434 6.13397V7.17335H134.462C134.991 6.37102 135.755 5.96986 136.752 5.96986C137.794 5.96986 138.443 6.37102 138.699 7.17335C138.936 6.79042 139.247 6.4941 139.631 6.28441C140.025 6.07471 140.459 5.96986 140.935 5.96986C141.739 5.96986 142.329 6.14764 142.703 6.50322C143.087 6.8588 143.279 7.35114 143.279 7.98025V13.2045H142.114V8.51362C142.114 7.99392 142.008 7.61099 141.798 7.36482C141.588 7.11865 141.236 6.99556 140.743 6.99556C140.194 6.99556 139.746 7.15968 139.399 7.48791C139.06 7.80701 138.891 8.23097 138.891 8.75979V13.2045H137.726V8.51362C137.726 7.99392 137.62 7.61099 137.41 7.36482C137.2 7.11865 136.861 6.99556 136.395 6.99556C136.056 6.99556 135.751 7.07307 135.477 7.22806C135.202 7.37394 134.973 7.60644 134.791 7.92554C134.599 8.23554 134.502 8.51817 134.502 8.77346V13.2045H133.337V6.13397H134.434ZM146.182 6.13397V7.17335H146.209C146.74 6.37102 147.503 5.96986 148.5 5.96986C149.542 5.96986 150.191 6.37102 150.447 7.17335C150.685 6.79042 150.996 6.4941 151.38 6.28441C151.773 6.07471 152.208 5.96986 152.682 5.96986C153.487 5.96986 154.077 6.14764 154.452 6.50322C154.836 6.8588 155.028 7.35114 155.028 7.98025V13.2045H153.862V8.51362C153.862 7.99392 153.757 7.61099 153.547 7.36482C153.337 7.11865 152.984 6.99556 152.49 6.99556C151.942 6.99556 151.494 7.15968 151.146 7.48791C150.809 7.80701 150.639 8.23097 150.639 8.75979V13.2045H149.473V8.51362C149.473 7.99392 149.368 7.61099 149.158 7.36482C148.948 7.11865 148.61 6.99556 148.144 6.99556C147.805 6.99556 147.499 7.07307 147.224 7.22806C146.95 7.37394 146.722 7.60644 146.539 7.92554C146.347 8.23554 146.251 8.51817 146.251 8.77346V13.2045H145.085V6.13397H146.182ZM159.274 13.3686C157.648 13.3686 156.833 12.5299 156.833 10.8522V6.13397H158V10.948C158 11.3583 158.127 11.6956 158.384 11.96C158.639 12.2153 158.992 12.3429 159.439 12.3429C160.125 12.3429 160.646 12.1469 161.002 11.7549C161.359 11.3537 161.538 10.8249 161.538 10.1684V6.13397H162.703V13.2045H161.606V12.0831H161.578C161.104 12.9402 160.336 13.3686 159.274 13.3686ZM165.607 6.13397V7.25541H165.635C166.138 6.39837 166.906 5.96986 167.939 5.96986C169.566 5.96986 170.38 6.81322 170.38 8.49994V13.2045H169.215V8.37685C169.215 7.9848 169.091 7.65658 168.844 7.39217C168.597 7.12777 168.237 6.99556 167.761 6.99556C167.093 6.99556 166.577 7.19615 166.211 7.59732C165.854 7.98937 165.676 8.51362 165.676 9.17007V13.2045H164.51V6.13397H165.607ZM173.422 3.43977V4.86209H172.256V3.43977H173.422ZM173.422 6.13397V13.2045H172.256V6.13397H173.422ZM178.219 13.3686C177.708 13.3686 177.245 13.2866 176.834 13.1225C176.432 12.9584 176.085 12.7213 175.792 12.4113C175.509 12.0922 175.289 11.7093 175.133 11.2625C174.978 10.8157 174.901 10.3143 174.901 9.75814C174.901 9.17463 174.978 8.65038 175.133 8.18539C175.289 7.71128 175.509 7.31012 175.792 6.98189C176.085 6.65366 176.437 6.40294 176.848 6.2297C177.259 6.05647 177.726 5.96986 178.247 5.96986C179.107 5.96986 179.806 6.17044 180.345 6.5716C180.885 6.97277 181.204 7.58364 181.305 8.40421H180.098C179.897 7.46511 179.312 6.99556 178.342 6.99556C177.621 6.99556 177.072 7.23718 176.697 7.7204C176.322 8.19451 176.135 8.87375 176.135 9.75814C176.135 10.5332 176.313 11.1576 176.669 11.6318C177.035 12.1059 177.547 12.3429 178.205 12.3429C178.781 12.3429 179.23 12.1925 179.549 11.8916C179.878 11.5907 180.08 11.1668 180.153 10.6197H181.346C181.219 11.5042 180.885 12.1833 180.345 12.6575C179.815 13.1316 179.107 13.3686 178.219 13.3686ZM184.668 13.3686C183.927 13.3686 183.351 13.2 182.94 12.8626C182.528 12.5162 182.323 12.0239 182.323 11.3856C182.323 10.7474 182.528 10.246 182.94 9.88123C183.361 9.50745 184.316 9.22478 185.806 9.03331C186.318 8.96948 186.661 8.87375 186.835 8.74611C187.018 8.60935 187.109 8.41333 187.109 8.15804C187.109 7.38305 186.584 6.99556 185.532 6.99556C184.956 6.99556 184.522 7.10497 184.229 7.32379C183.946 7.53349 183.79 7.87084 183.763 8.33583H182.597C182.698 6.75852 183.704 5.96986 185.615 5.96986C187.379 5.96986 188.261 6.60351 188.261 7.87084V11.9463C188.261 12.2107 188.385 12.3429 188.632 12.3429C188.732 12.3429 188.851 12.3201 188.988 12.2746V13.1772C188.751 13.3048 188.472 13.3686 188.151 13.3686C187.493 13.3686 187.164 13.0039 187.164 12.2746C186.542 13.0039 185.71 13.3686 184.668 13.3686ZM184.929 12.3429C185.248 12.3429 185.542 12.3019 185.806 12.2198C186.071 12.1378 186.3 12.0239 186.492 11.8779C186.684 11.732 186.831 11.5679 186.931 11.3856C187.041 11.1941 187.096 10.989 187.096 10.7702V9.553C186.995 9.62591 186.876 9.68524 186.739 9.73079C186.602 9.77635 186.447 9.81285 186.273 9.8402L185.079 10.018C184.558 10.0909 184.174 10.2277 183.927 10.4283C183.68 10.6289 183.557 10.9206 183.557 11.3035C183.557 11.6318 183.677 11.8871 183.914 12.0694C184.151 12.2517 184.49 12.3429 184.929 12.3429ZM192.201 13.2045C191.899 13.2045 191.643 13.1817 191.433 13.1361C191.232 13.0906 191.067 13.0131 190.939 12.9037C190.811 12.7942 190.72 12.6438 190.665 12.4523C190.61 12.2609 190.583 12.0192 190.583 11.7275V7.15968H189.376V6.13397H190.583V4.01417H191.748V6.13397H193.161V7.15968H191.748V11.5907C191.748 11.8004 191.79 11.9509 191.872 12.0421C191.954 12.1333 192.159 12.1788 192.488 12.1788H193.161V13.2045H192.201ZM195.747 3.43977V4.86209H194.581V3.43977H195.747ZM195.747 6.13397V13.2045H194.581V6.13397H195.747ZM200.668 13.3686C200.146 13.3686 199.671 13.2821 199.241 13.1088C198.82 12.9355 198.459 12.6894 198.157 12.3703C197.865 12.0421 197.636 11.65 197.472 11.1941C197.307 10.7383 197.225 10.2323 197.225 9.67609C197.225 9.11081 197.302 8.60023 197.459 8.14436C197.623 7.68849 197.851 7.301 198.144 6.98189C198.446 6.65366 198.806 6.40294 199.227 6.2297C199.657 6.05647 200.137 5.96986 200.668 5.96986C201.197 5.96986 201.673 6.06103 202.094 6.24338C202.523 6.41661 202.885 6.66278 203.177 6.98189C203.478 7.301 203.707 7.68849 203.862 8.14436C204.027 8.60023 204.109 9.11081 204.109 9.67609C204.109 10.214 204.027 10.7109 203.862 11.1668C203.707 11.6136 203.478 12.001 203.177 12.3293C202.885 12.6575 202.523 12.9128 202.094 13.0951C201.673 13.2774 201.197 13.3686 200.668 13.3686ZM200.668 12.3429C200.987 12.3429 201.28 12.2791 201.545 12.1515C201.82 12.0239 202.052 11.8461 202.244 11.6181C202.446 11.3811 202.601 11.0984 202.71 10.7702C202.82 10.442 202.875 10.0772 202.875 9.67609C202.875 9.27492 202.82 8.91022 202.71 8.582C202.601 8.25377 202.45 7.97569 202.258 7.74775C202.066 7.5107 201.833 7.32835 201.559 7.20071C201.284 7.06395 200.983 6.99556 200.653 6.99556C200.342 6.99556 200.05 7.06395 199.776 7.20071C199.511 7.32835 199.277 7.5107 199.077 7.74775C198.885 7.9848 198.733 8.26745 198.624 8.59567C198.514 8.9239 198.459 9.28404 198.459 9.67609C198.459 10.0682 198.514 10.4283 198.624 10.7565C198.733 11.0847 198.885 11.3674 199.077 11.6044C199.269 11.8414 199.497 12.0239 199.762 12.1515C200.037 12.2791 200.338 12.3429 200.668 12.3429ZM206.637 6.13397V7.25541H206.665C207.168 6.39837 207.936 5.96986 208.969 5.96986C210.596 5.96986 211.41 6.81322 211.41 8.49994V13.2045H210.245V8.37685C210.245 7.9848 210.121 7.65658 209.874 7.39217C209.627 7.12777 209.266 6.99556 208.791 6.99556C208.123 6.99556 207.607 7.19615 207.241 7.59732C206.884 7.98937 206.706 8.51362 206.706 9.17007V13.2045H205.54V6.13397H206.637ZM215.768 13.3686C214.854 13.3686 214.132 13.1727 213.601 12.7806C213.08 12.3794 212.802 11.7777 212.765 10.9753H213.93C213.949 11.413 214.119 11.7503 214.438 11.9874C214.767 12.2244 215.234 12.3429 215.837 12.3429C216.98 12.3429 217.551 11.9919 217.551 11.2899C217.551 10.9708 217.414 10.7246 217.139 10.5514C216.994 10.4602 216.774 10.369 216.481 10.2778C216.189 10.1776 215.81 10.0818 215.343 9.99064C214.475 9.80832 213.853 9.56668 213.478 9.2658C213.104 8.95581 212.915 8.52729 212.915 7.98025C212.915 7.67937 212.975 7.40585 213.094 7.15968C213.222 6.91351 213.401 6.70381 213.629 6.53058C213.867 6.34823 214.146 6.21147 214.466 6.12029C214.795 6.02 215.165 5.96986 215.576 5.96986C216.545 5.96986 217.259 6.15676 217.715 6.53058C218.173 6.89528 218.425 7.44688 218.47 8.18539H217.304V8.17171C217.268 7.78878 217.099 7.49703 216.797 7.29644C216.505 7.09585 216.125 6.99556 215.658 6.99556C215.192 6.99556 214.822 7.07307 214.548 7.22806C214.283 7.38305 214.15 7.60643 214.15 7.89819C214.15 8.16259 214.264 8.37685 214.493 8.54097C214.73 8.69596 215.096 8.82817 215.59 8.93758L216.687 9.18375C217.373 9.33874 217.894 9.56668 218.251 9.86755C218.607 10.1684 218.785 10.5924 218.785 11.1394C218.785 11.8506 218.515 12.4022 217.976 12.7942C217.446 13.1772 216.71 13.3686 215.768 13.3686Z" fill="black"/>
<path d="M119.127 26.4058C118.514 26.4058 117.957 26.3282 117.454 26.1733C116.951 26.0183 116.526 25.7903 116.179 25.4895C115.831 25.1886 115.562 24.8239 115.37 24.3954C115.178 23.9669 115.082 23.4882 115.082 22.9594H116.316C116.325 23.7253 116.591 24.3088 117.112 24.7099C117.633 25.1111 118.319 25.3117 119.169 25.3117C119.973 25.3117 120.586 25.1612 121.006 24.8604C121.436 24.5503 121.65 24.1082 121.65 23.5338C121.65 23.0506 121.445 22.6722 121.034 22.3987C120.823 22.2528 120.54 22.1251 120.184 22.0157C119.827 21.9063 119.397 21.8014 118.894 21.7012C118.181 21.5644 117.596 21.414 117.139 21.2499C116.681 21.0766 116.32 20.8851 116.055 20.6755C115.799 20.4567 115.621 20.215 115.521 19.9506C115.429 19.6771 115.384 19.3717 115.384 19.0343C115.384 18.5967 115.466 18.2046 115.631 17.8582C115.804 17.5026 116.046 17.2017 116.357 16.9556C116.668 16.7094 117.043 16.5179 117.481 16.3812C117.92 16.2444 118.405 16.176 118.935 16.176C119.484 16.176 119.982 16.2489 120.43 16.3948C120.878 16.5316 121.257 16.7322 121.568 16.9966C121.879 17.261 122.117 17.5847 122.281 17.9676C122.455 18.3505 122.542 18.7836 122.542 19.2668H121.308C121.152 17.9357 120.343 17.2701 118.88 17.2701C118.167 17.2701 117.623 17.4114 117.249 17.6941C116.873 17.9767 116.686 18.3916 116.686 18.9386C116.686 19.276 116.828 19.5722 117.112 19.8276C117.386 20.0737 118.291 20.3564 119.827 20.6755C120.878 20.8851 121.66 21.2134 122.172 21.6602C122.693 22.0978 122.954 22.7087 122.954 23.4928C122.954 23.9486 122.853 24.3589 122.652 24.7236C122.451 25.0792 122.176 25.3846 121.829 25.6399C121.481 25.8861 121.075 26.073 120.608 26.2006C120.142 26.3374 119.648 26.4058 119.127 26.4058ZM127.418 26.3374C126.861 26.3374 126.367 26.2417 125.937 26.0502C125.517 25.8496 125.165 25.5807 124.881 25.2433C124.598 24.9059 124.383 24.5093 124.236 24.0535C124.091 23.5976 124.017 23.1098 124.017 22.5901C124.017 22.0704 124.099 21.5872 124.264 21.1405C124.438 20.6937 124.671 20.3062 124.964 19.978C125.256 19.6498 125.608 19.3944 126.019 19.2121C126.43 19.0298 126.874 18.9386 127.35 18.9386C127.853 18.9386 128.3 19.0343 128.694 19.2258C129.096 19.4081 129.434 19.6726 129.709 20.019C129.983 20.3564 130.193 20.7667 130.339 21.2499C130.486 21.7331 130.559 22.2664 130.559 22.85V22.9867H125.251V23.0688C125.251 23.7526 125.448 24.2997 125.841 24.7099C126.235 25.1111 126.774 25.3117 127.46 25.3117C128.474 25.3117 129.087 24.8512 129.297 23.9304H130.449C130.294 24.7328 129.951 25.3345 129.42 25.7356C128.89 26.1368 128.223 26.3374 127.418 26.3374ZM129.325 21.961C129.307 21.6693 129.242 21.4048 129.133 21.1678C129.023 20.9216 128.876 20.712 128.694 20.5387C128.52 20.3564 128.31 20.215 128.063 20.1148C127.826 20.0145 127.56 19.9643 127.268 19.9643C126.719 19.9643 126.257 20.1466 125.882 20.5114C125.517 20.8669 125.306 21.3501 125.251 21.961H129.325ZM134.759 26.3374C134.246 26.3374 133.785 26.2553 133.373 26.0912C132.972 25.9271 132.623 25.6901 132.331 25.3801C132.047 25.061 131.828 24.6781 131.673 24.2313C131.518 23.7845 131.44 23.2831 131.44 22.7269C131.44 22.1433 131.518 21.6191 131.673 21.1541C131.828 20.68 132.047 20.2789 132.331 19.9506C132.623 19.6224 132.976 19.3717 133.388 19.1985C133.799 19.0252 134.265 18.9386 134.786 18.9386C135.645 18.9386 136.345 19.1392 136.884 19.5404C137.423 19.9415 137.744 20.5524 137.844 21.373H136.637C136.436 20.4338 135.851 19.9643 134.882 19.9643C134.159 19.9643 133.611 20.206 133.236 20.6892C132.862 21.1633 132.675 21.8425 132.675 22.7269C132.675 23.5019 132.852 24.1264 133.209 24.6005C133.575 25.0747 134.087 25.3117 134.745 25.3117C135.321 25.3117 135.769 25.1612 136.089 24.8604C136.418 24.5595 136.619 24.1355 136.692 23.5885H137.886C137.757 24.4729 137.423 25.1521 136.884 25.6262C136.354 26.1004 135.645 26.3374 134.759 26.3374ZM141.688 26.3374C140.06 26.3374 139.247 25.4986 139.247 23.821V19.1027H140.412V23.9167C140.412 24.327 140.54 24.6644 140.796 24.9288C141.052 25.1841 141.404 25.3117 141.852 25.3117C142.538 25.3117 143.059 25.1157 143.416 24.7236C143.772 24.3225 143.95 23.7936 143.95 23.1372V19.1027H145.116V26.1733H144.019V25.0518H143.992C143.516 25.9089 142.748 26.3374 141.688 26.3374ZM147.979 19.1027V20.5934H148.007C148.537 19.4902 149.351 18.9386 150.448 18.9386H150.612V20.1695C149.726 20.1695 149.076 20.3974 148.665 20.8533C148.253 21.3091 148.048 22.0294 148.048 23.0141V26.1733H146.882V19.1027H147.979ZM152.781 16.4085V17.8308H151.616V16.4085H152.781ZM152.781 19.1027V26.1733H151.616V19.1027H152.781ZM156.714 26.1733C156.413 26.1733 156.157 26.1505 155.946 26.1049C155.746 26.0593 155.581 25.9818 155.453 25.8724C155.325 25.763 155.233 25.6126 155.179 25.4211C155.124 25.2296 155.096 24.988 155.096 24.6963V20.1284H153.889V19.1027H155.096V16.9829H156.262V19.1027H157.674V20.1284H156.262V24.5595C156.262 24.7692 156.303 24.9196 156.385 25.0108C156.468 25.102 156.674 25.1476 157.003 25.1476H157.674V26.1733H156.714ZM159.753 29.0042C159.452 29.0042 159.182 28.9632 158.944 28.8812V27.8144C159.273 27.9238 159.502 27.9785 159.629 27.9785C160.096 27.9785 160.425 27.7415 160.617 27.2674L161.07 26.1323L158.258 19.1027H159.575L161.646 24.8877H161.673L163.661 19.1027H164.895L161.878 26.9255C161.714 27.354 161.559 27.7005 161.412 27.9649C161.267 28.2384 161.11 28.448 160.946 28.594C160.781 28.7489 160.604 28.8538 160.412 28.9085C160.22 28.9724 160 29.0042 159.753 29.0042ZM176.767 16.4085V17.5026H171.309V20.6071H176.396V21.7012H171.309V25.0792H176.808V26.1733H170.006V16.4085H176.767ZM180.805 26.3374C179.891 26.3374 179.168 26.1414 178.638 25.7493C178.117 25.3482 177.839 24.7464 177.802 23.9441H178.967C178.986 24.3817 179.155 24.7191 179.475 24.9561C179.804 25.1931 180.27 25.3117 180.874 25.3117C182.016 25.3117 182.587 24.9606 182.587 24.2586C182.587 23.9395 182.45 23.6934 182.176 23.5201C182.03 23.4289 181.811 23.3378 181.518 23.2466C181.225 23.1463 180.846 23.0506 180.38 22.9594C179.512 22.7771 178.889 22.5354 178.515 22.2346C178.14 21.9245 177.952 21.496 177.952 20.949C177.952 20.6481 178.012 20.3746 178.131 20.1284C178.258 19.8823 178.437 19.6726 178.665 19.4993C178.903 19.317 179.182 19.1802 179.502 19.089C179.831 18.9888 180.201 18.9386 180.613 18.9386C181.582 18.9386 182.295 19.1255 182.752 19.4993C183.21 19.8641 183.461 20.4156 183.507 21.1541H182.34V21.1405C182.305 20.7575 182.135 20.4658 181.834 20.2652C181.541 20.0646 181.161 19.9643 180.695 19.9643C180.229 19.9643 179.859 20.0418 179.584 20.1968C179.32 20.3518 179.186 20.5752 179.186 20.8669C179.186 21.1313 179.301 21.3456 179.53 21.5097C179.767 21.6647 180.133 21.7969 180.627 21.9063L181.724 22.1525C182.41 22.3075 182.931 22.5354 183.287 22.8363C183.644 23.1372 183.822 23.5611 183.822 24.1082C183.822 24.8193 183.552 25.3709 183.013 25.763C182.482 26.1459 181.747 26.3374 180.805 26.3374ZM187.239 26.1733C186.937 26.1733 186.681 26.1505 186.471 26.1049C186.269 26.0593 186.105 25.9818 185.977 25.8724C185.849 25.763 185.758 25.6126 185.703 25.4211C185.648 25.2296 185.62 24.988 185.62 24.6963V20.1284H184.414V19.1027H185.62V16.9829H186.786V19.1027H188.199V20.1284H186.786V24.5595C186.786 24.7692 186.827 24.9196 186.91 25.0108C186.992 25.102 187.197 25.1476 187.526 25.1476H188.199V26.1733H187.239ZM191.512 26.3374C190.771 26.3374 190.195 26.1688 189.784 25.8314C189.372 25.4849 189.166 24.9926 189.166 24.3544C189.166 23.7161 189.372 23.2147 189.784 22.85C190.204 22.4762 191.159 22.1935 192.649 22.0021C193.161 21.9382 193.504 21.8425 193.679 21.7149C193.861 21.5781 193.953 21.3821 193.953 21.1268C193.953 20.3518 193.427 19.9643 192.375 19.9643C191.799 19.9643 191.365 20.0737 191.073 20.2925C190.789 20.5022 190.634 20.8396 190.607 21.3046H189.44C189.541 19.7273 190.547 18.9386 192.457 18.9386C194.222 18.9386 195.105 19.5722 195.105 20.8396V24.9151C195.105 25.1795 195.228 25.3117 195.475 25.3117C195.575 25.3117 195.694 25.2889 195.831 25.2433V26.1459C195.594 26.2735 195.315 26.3374 194.995 26.3374C194.337 26.3374 194.008 25.9727 194.008 25.2433C193.385 25.9727 192.554 26.3374 191.512 26.3374ZM191.772 25.3117C192.091 25.3117 192.385 25.2707 192.649 25.1886C192.914 25.1065 193.143 24.9926 193.335 24.8467C193.527 24.7008 193.674 24.5367 193.774 24.3544C193.884 24.1629 193.939 23.9577 193.939 23.7389V22.5218C193.838 22.5947 193.719 22.654 193.582 22.6995C193.445 22.7451 193.29 22.7816 193.116 22.809L191.923 22.9867C191.402 23.0596 191.018 23.1964 190.771 23.397C190.524 23.5976 190.4 23.8894 190.4 24.2723C190.4 24.6005 190.52 24.8558 190.757 25.0382C190.994 25.2205 191.333 25.3117 191.772 25.3117ZM200.498 26.3374C200.059 26.3374 199.628 26.2508 199.209 26.0775C198.788 25.8952 198.454 25.6126 198.207 25.2296H198.179V26.1733H197.014V16.4085H198.179V20.06H198.207C198.573 19.3124 199.327 18.9386 200.47 18.9386C200.964 18.9386 201.411 19.0298 201.814 19.2121C202.216 19.3854 202.558 19.6361 202.842 19.9643C203.126 20.2925 203.345 20.6846 203.5 21.1405C203.656 21.5963 203.734 22.1023 203.734 22.6585C203.734 23.2056 203.656 23.707 203.5 24.1629C203.345 24.6187 203.126 25.0063 202.842 25.3254C202.568 25.6444 202.229 25.8952 201.827 26.0775C201.434 26.2508 200.991 26.3374 200.498 26.3374ZM200.374 25.3117C201.059 25.3117 201.585 25.0747 201.951 24.6005C202.316 24.1264 202.5 23.4517 202.5 22.5765C202.5 22.1935 202.449 21.8425 202.348 21.5234C202.248 21.1952 202.102 20.9171 201.91 20.6892C201.718 20.4612 201.485 20.2834 201.211 20.1558C200.936 20.0282 200.63 19.9643 200.291 19.9643C199.962 19.9643 199.665 20.0282 199.4 20.1558C199.135 20.2743 198.907 20.4521 198.715 20.6892C198.531 20.9171 198.389 21.1952 198.289 21.5234C198.189 21.8516 198.139 22.2209 198.139 22.6312C198.139 23.4609 198.331 24.1173 198.715 24.6005C199.107 25.0747 199.661 25.3117 200.374 25.3117ZM206.393 16.4085V26.1733H205.227V16.4085H206.393ZM209.49 16.4085V17.8308H208.324V16.4085H209.49ZM209.49 19.1027V26.1733H208.324V19.1027H209.49ZM213.903 26.3374C212.989 26.3374 212.267 26.1414 211.736 25.7493C211.215 25.3482 210.936 24.7464 210.9 23.9441H212.065C212.083 24.3817 212.253 24.7191 212.573 24.9561C212.902 25.1931 213.369 25.3117 213.972 25.3117C215.115 25.3117 215.686 24.9606 215.686 24.2586C215.686 23.9395 215.549 23.6934 215.275 23.5201C215.128 23.4289 214.909 23.3378 214.616 23.2466C214.324 23.1463 213.945 23.0506 213.478 22.9594C212.609 22.7771 211.988 22.5354 211.613 22.2346C211.238 21.9245 211.051 21.496 211.051 20.949C211.051 20.6481 211.11 20.3746 211.229 20.1284C211.357 19.8823 211.535 19.6726 211.764 19.4993C212.001 19.317 212.28 19.1802 212.601 19.089C212.93 18.9888 213.3 18.9386 213.711 18.9386C214.681 18.9386 215.394 19.1255 215.85 19.4993C216.307 19.8641 216.559 20.4156 216.605 21.1541H215.439V21.1405C215.402 20.7575 215.234 20.4658 214.932 20.2652C214.639 20.0646 214.26 19.9643 213.793 19.9643C213.327 19.9643 212.957 20.0418 212.683 20.1968C212.417 20.3518 212.285 20.5752 212.285 20.8669C212.285 21.1313 212.399 21.3456 212.628 21.5097C212.866 21.6647 213.232 21.7969 213.725 21.9063L214.822 22.1525C215.508 22.3075 216.029 22.5354 216.386 22.8363C216.742 23.1372 216.92 23.5611 216.92 24.1082C216.92 24.8193 216.651 25.3709 216.112 25.763C215.581 26.1459 214.845 26.3374 213.903 26.3374ZM219.432 16.4085V20.1421H219.46C219.624 19.7592 219.912 19.4628 220.323 19.2532C220.735 19.0435 221.191 18.9386 221.694 18.9386C223.322 18.9386 224.136 19.782 224.136 21.4687V26.1733H222.97V21.3456C222.97 20.9535 222.846 20.6253 222.6 20.3609C222.353 20.0965 221.991 19.9643 221.517 19.9643C220.858 19.9643 220.346 20.1649 219.981 20.5661C219.615 20.9581 219.432 21.4824 219.432 22.1388V26.1733H218.266V16.4085H219.432ZM227.04 19.1027V20.1421H227.067C227.598 19.3397 228.361 18.9386 229.358 18.9386C230.4 18.9386 231.049 19.3397 231.306 20.1421C231.543 19.7592 231.854 19.4628 232.238 19.2532C232.631 19.0435 233.066 18.9386 233.54 18.9386C234.345 18.9386 234.935 19.1164 235.31 19.472C235.694 19.8276 235.886 20.3199 235.886 20.949V26.1733H234.72V21.4824C234.72 20.9627 234.615 20.5797 234.405 20.3336C234.194 20.0874 233.842 19.9643 233.348 19.9643C232.8 19.9643 232.353 20.1284 232.004 20.4567C231.667 20.7757 231.498 21.1997 231.498 21.7285V26.1733H230.331V21.4824C230.331 20.9627 230.226 20.5797 230.016 20.3336C229.806 20.0874 229.468 19.9643 229.002 19.9643C228.663 19.9643 228.357 20.0418 228.082 20.1968C227.808 20.3427 227.58 20.5752 227.397 20.8943C227.205 21.2043 227.109 21.4869 227.109 21.7422V26.1733H225.943V19.1027H227.04ZM240.709 26.3374C240.151 26.3374 239.657 26.2417 239.227 26.0502C238.807 25.8496 238.455 25.5807 238.172 25.2433C237.888 24.9059 237.674 24.5093 237.527 24.0535C237.38 23.5976 237.307 23.1098 237.307 22.5901C237.307 22.0704 237.39 21.5872 237.554 21.1405C237.728 20.6937 237.961 20.3062 238.254 19.978C238.546 19.6498 238.898 19.3944 239.31 19.2121C239.721 19.0298 240.165 18.9386 240.64 18.9386C241.143 18.9386 241.591 19.0343 241.984 19.2258C242.386 19.4081 242.725 19.6726 242.999 20.019C243.273 20.3564 243.483 20.7667 243.63 21.2499C243.776 21.7331 243.849 22.2664 243.849 22.85V22.9867H238.542V23.0688C238.542 23.7526 238.738 24.2997 239.132 24.7099C239.524 25.1111 240.064 25.3117 240.75 25.3117C241.765 25.3117 242.377 24.8512 242.588 23.9304H243.74C243.584 24.7328 243.241 25.3345 242.711 25.7356C242.18 26.1368 241.513 26.3374 240.709 26.3374ZM242.615 21.961C242.596 21.6693 242.533 21.4048 242.423 21.1678C242.314 20.9216 242.167 20.712 241.984 20.5387C241.81 20.3564 241.6 20.215 241.354 20.1148C241.115 20.0145 240.85 19.9643 240.558 19.9643C240.01 19.9643 239.547 20.1466 239.173 20.5114C238.807 20.8669 238.597 21.3501 238.542 21.961H242.615ZM246.211 19.1027V20.2242H246.239C246.742 19.3671 247.51 18.9386 248.542 18.9386C250.17 18.9386 250.984 19.782 250.984 21.4687V26.1733H249.818V21.3456C249.818 20.9535 249.694 20.6253 249.448 20.3609C249.201 20.0965 248.839 19.9643 248.365 19.9643C247.697 19.9643 247.181 20.1649 246.814 20.5661C246.458 20.9581 246.28 21.4824 246.28 22.1388V26.1733H245.114V19.1027H246.211ZM254.862 26.1733C254.56 26.1733 254.304 26.1505 254.094 26.1049C253.893 26.0593 253.728 25.9818 253.6 25.8724C253.472 25.763 253.381 25.6126 253.326 25.4211C253.271 25.2296 253.244 24.988 253.244 24.6963V20.1284H252.037V19.1027H253.244V16.9829H254.409V19.1027H255.822V20.1284H254.409V24.5595C254.409 24.7692 254.451 24.9196 254.533 25.0108C254.615 25.102 254.821 25.1476 255.15 25.1476H255.822V26.1733H254.862Z" fill="black"/>
<path d="M281.608 13.437C280.913 13.437 280.286 13.3185 279.729 13.0815C279.171 12.8444 278.696 12.5071 278.303 12.0694C277.91 11.6318 277.608 11.0984 277.398 10.4693C277.187 9.84021 277.082 9.1336 277.082 8.34951C277.082 7.58364 277.187 6.88616 277.398 6.25706C277.617 5.62796 277.928 5.09003 278.33 4.64327C278.732 4.18741 279.217 3.83638 279.784 3.59021C280.36 3.33492 281.004 3.20728 281.717 3.20728C282.266 3.20728 282.769 3.28022 283.226 3.4261C283.692 3.57198 284.099 3.78168 284.447 4.0552C284.794 4.32872 285.078 4.66151 285.297 5.05356C285.525 5.44561 285.676 5.8878 285.749 6.38014H284.447C284.3 5.69634 283.985 5.1812 283.5 4.83474C283.025 4.47916 282.426 4.30137 281.704 4.30137C281.21 4.30137 280.757 4.3971 280.346 4.58857C279.944 4.77091 279.597 5.03533 279.304 5.38179C279.011 5.71913 278.783 6.13397 278.618 6.62631C278.463 7.10953 278.385 7.65202 278.385 8.25377C278.385 8.892 278.458 9.46642 278.605 9.97697C278.76 10.4785 278.979 10.9069 279.263 11.2625C279.555 11.609 279.907 11.878 280.318 12.0694C280.73 12.2517 281.196 12.3429 281.717 12.3429C282.129 12.3429 282.499 12.2746 282.829 12.1378C283.166 12.001 283.459 11.8096 283.706 11.5634C283.953 11.3081 284.145 11.0072 284.282 10.6608C284.428 10.3143 284.515 9.93594 284.542 9.52565H285.846C285.709 10.8021 285.274 11.7731 284.542 12.4387C283.811 13.1043 282.833 13.437 281.608 13.437ZM290.341 13.3686C289.783 13.3686 289.289 13.2729 288.86 13.0815C288.439 12.8808 288.087 12.6119 287.804 12.2746C287.521 11.9372 287.306 11.5406 287.159 11.0847C287.013 10.6289 286.94 10.1411 286.94 9.62139C286.94 9.1017 287.022 8.61847 287.187 8.17172C287.361 7.72496 287.593 7.33747 287.887 7.00925C288.179 6.68102 288.531 6.42573 288.942 6.24338C289.354 6.06104 289.797 5.96986 290.273 5.96986C290.775 5.96986 291.223 6.06559 291.617 6.25706C292.019 6.4394 292.357 6.70381 292.632 7.05027C292.906 7.38762 293.116 7.79791 293.262 8.28113C293.408 8.76435 293.482 9.29772 293.482 9.88123V10.018H288.174V10.1001C288.174 10.7839 288.371 11.3309 288.764 11.7412C289.157 12.1423 289.697 12.3429 290.383 12.3429C291.397 12.3429 292.009 11.8825 292.22 10.9616H293.372C293.216 11.764 292.874 12.3658 292.343 12.7669C291.813 13.168 291.146 13.3686 290.341 13.3686ZM292.248 8.99229C292.229 8.70053 292.165 8.43612 292.056 8.19907C291.946 7.9529 291.799 7.7432 291.617 7.56997C291.443 7.38762 291.233 7.2463 290.986 7.14601C290.748 7.04572 290.483 6.99557 290.191 6.99557C289.642 6.99557 289.18 7.17791 288.805 7.54261C288.439 7.89819 288.229 8.38142 288.174 8.99229H292.248ZM295.844 6.13397V7.25542H295.871C296.374 6.39838 297.142 5.96986 298.175 5.96986C299.803 5.96986 300.616 6.81322 300.616 8.49994V13.2045H299.451V8.37686C299.451 7.98481 299.327 7.65658 299.08 7.39218C298.833 7.12778 298.472 6.99557 297.997 6.99557C297.329 6.99557 296.813 7.19616 296.447 7.59732C296.09 7.98937 295.913 8.51362 295.913 9.17008V13.2045H294.746V6.13397H295.844ZM304.495 13.2045C304.193 13.2045 303.937 13.1817 303.727 13.1362C303.525 13.0906 303.361 13.0131 303.233 12.9037C303.105 12.7943 303.014 12.6438 302.959 12.4523C302.904 12.2609 302.876 12.0192 302.876 11.7275V7.15968H301.67V6.13397H302.876V4.01417H304.042V6.13397H305.455V7.15968H304.042V11.5908C304.042 11.8004 304.083 11.9509 304.165 12.0421C304.248 12.1333 304.453 12.1788 304.782 12.1788H305.455V13.2045H304.495ZM307.863 6.13397V7.62467H307.89C308.42 6.52146 309.234 5.96986 310.331 5.96986H310.496V7.20071C309.608 7.20071 308.96 7.42865 308.548 7.88452C308.137 8.34039 307.931 9.06067 307.931 10.0453V13.2045H306.765V6.13397H307.863ZM314.206 13.3686C313.648 13.3686 313.154 13.2729 312.725 13.0815C312.304 12.8808 311.952 12.6119 311.668 12.2746C311.386 11.9372 311.17 11.5406 311.024 11.0847C310.878 10.6289 310.805 10.1411 310.805 9.62139C310.805 9.1017 310.887 8.61847 311.052 8.17172C311.225 7.72496 311.458 7.33747 311.751 7.00925C312.044 6.68102 312.396 6.42573 312.807 6.24338C313.219 6.06104 313.662 5.96986 314.137 5.96986C314.64 5.96986 315.088 6.06559 315.481 6.25706C315.884 6.4394 316.221 6.70381 316.496 7.05027C316.77 7.38762 316.981 7.79791 317.126 8.28113C317.273 8.76435 317.346 9.29772 317.346 9.88123V10.018H312.039V10.1001C312.039 10.7839 312.236 11.3309 312.628 11.7412C313.022 12.1423 313.561 12.3429 314.247 12.3429C315.261 12.3429 315.874 11.8825 316.084 10.9616H317.236C317.081 11.764 316.738 12.3658 316.208 12.7669C315.678 13.168 315.01 13.3686 314.206 13.3686ZM316.112 8.99229C316.094 8.70053 316.029 8.43612 315.92 8.19907C315.81 7.9529 315.664 7.7432 315.481 7.56997C315.308 7.38762 315.097 7.2463 314.85 7.14601C314.613 7.04572 314.348 6.99557 314.055 6.99557C313.506 6.99557 313.044 7.17791 312.67 7.54261C312.304 7.89819 312.094 8.38142 312.039 8.99229H316.112ZM325.365 13.3686C324.872 13.3686 324.423 13.2821 324.021 13.1088C323.628 12.9265 323.284 12.6712 322.992 12.3429C322.708 12.0147 322.489 11.6226 322.334 11.1668C322.179 10.711 322.101 10.2049 322.101 9.64874C322.101 9.09257 322.174 8.59112 322.321 8.14437C322.476 7.6885 322.691 7.301 322.965 6.98189C323.249 6.65367 323.586 6.40294 323.98 6.22971C324.382 6.05647 324.83 5.96986 325.324 5.96986C325.79 5.96986 326.233 6.06559 326.654 6.25706C327.084 6.44852 327.408 6.72205 327.628 7.07763H327.655V3.43977H328.821V13.2045H327.655V12.2472H327.628C327.445 12.6119 327.152 12.89 326.75 13.0815C326.356 13.2729 325.895 13.3686 325.365 13.3686ZM325.53 12.3429C326.197 12.3429 326.722 12.1013 327.106 11.6181C327.5 11.1258 327.697 10.4785 327.697 9.67609C327.697 8.87376 327.5 8.22642 327.106 7.73408C326.722 7.24174 326.169 6.99557 325.447 6.99557C324.762 6.99557 324.236 7.23718 323.87 7.72041C323.513 8.20363 323.336 8.87376 323.336 9.7308C323.336 10.1137 323.386 10.4693 323.486 10.7975C323.596 11.1166 323.747 11.3901 323.939 11.6181C324.131 11.8461 324.359 12.0239 324.625 12.1515C324.899 12.2791 325.201 12.3429 325.53 12.3429ZM333.688 13.3686C333.13 13.3686 332.636 13.2729 332.207 13.0815C331.786 12.8808 331.434 12.6119 331.151 12.2746C330.868 11.9372 330.652 11.5406 330.506 11.0847C330.36 10.6289 330.287 10.1411 330.287 9.62139C330.287 9.1017 330.369 8.61847 330.534 8.17172C330.707 7.72496 330.941 7.33747 331.233 7.00925C331.526 6.68102 331.878 6.42573 332.289 6.24338C332.701 6.06104 333.144 5.96986 333.619 5.96986C334.122 5.96986 334.571 6.06559 334.963 6.25706C335.366 6.4394 335.704 6.70381 335.978 7.05027C336.252 7.38762 336.463 7.79791 336.609 8.28113C336.755 8.76435 336.828 9.29772 336.828 9.88123V10.018H331.521V10.1001C331.521 10.7839 331.718 11.3309 332.111 11.7412C332.504 12.1423 333.043 12.3429 333.729 12.3429C334.744 12.3429 335.356 11.8825 335.566 10.9616H336.718C336.563 11.764 336.22 12.3658 335.69 12.7669C335.16 13.168 334.492 13.3686 333.688 13.3686ZM335.594 8.99229C335.576 8.70053 335.512 8.43612 335.402 8.19907C335.292 7.9529 335.146 7.7432 334.963 7.56997C334.79 7.38762 334.579 7.2463 334.332 7.14601C334.095 7.04572 333.83 6.99557 333.537 6.99557C332.988 6.99557 332.527 7.17791 332.152 7.54261C331.786 7.89819 331.576 8.38142 331.521 8.99229H335.594ZM343.201 3.43977V13.2045H342.036V3.43977H343.201ZM347.025 13.3686C346.284 13.3686 345.708 13.2 345.297 12.8626C344.885 12.5162 344.68 12.0239 344.68 11.3856C344.68 10.7474 344.885 10.246 345.297 9.88123C345.718 9.50745 346.673 9.22478 348.163 9.03331C348.675 8.96949 349.018 8.87376 349.191 8.74611C349.375 8.60935 349.466 8.41333 349.466 8.15804C349.466 7.38306 348.941 6.99557 347.889 6.99557C347.313 6.99557 346.879 7.10498 346.586 7.3238C346.303 7.53349 346.147 7.87084 346.119 8.33583H344.954C345.055 6.75852 346.061 5.96986 347.971 5.96986C349.736 5.96986 350.618 6.60352 350.618 7.87084V11.9463C350.618 12.2107 350.742 12.3429 350.988 12.3429C351.089 12.3429 351.208 12.3201 351.345 12.2746V13.1772C351.108 13.3048 350.829 13.3686 350.508 13.3686C349.85 13.3686 349.521 13.0039 349.521 12.2746C348.899 13.0039 348.067 13.3686 347.025 13.3686ZM347.286 12.3429C347.605 12.3429 347.898 12.3019 348.163 12.2199C348.428 12.1378 348.657 12.0239 348.849 11.878C349.041 11.732 349.188 11.5679 349.288 11.3856C349.398 11.1941 349.452 10.989 349.452 10.7702V9.55301C349.352 9.62592 349.233 9.68524 349.096 9.7308C348.959 9.77635 348.804 9.81285 348.63 9.84021L347.436 10.018C346.915 10.0909 346.531 10.2277 346.284 10.4283C346.037 10.6289 345.914 10.9206 345.914 11.3036C345.914 11.6318 346.033 11.8871 346.271 12.0694C346.508 12.2517 346.847 12.3429 347.286 12.3429ZM358.911 13.3686C357.997 13.3686 357.274 13.1727 356.744 12.7806C356.223 12.3794 355.944 11.7777 355.907 10.9753H357.074C357.091 11.413 357.261 11.7503 357.58 11.9874C357.91 12.2244 358.376 12.3429 358.979 12.3429C360.122 12.3429 360.694 11.9919 360.694 11.2899C360.694 10.9708 360.557 10.7246 360.283 10.5514C360.136 10.4602 359.917 10.369 359.624 10.2778C359.331 10.1776 358.952 10.0818 358.486 9.99064C357.617 9.80833 356.995 9.56668 356.62 9.26581C356.246 8.95581 356.059 8.5273 356.059 7.98025C356.059 7.67938 356.117 7.40585 356.237 7.15968C356.364 6.91351 356.543 6.70381 356.772 6.53058C357.009 6.34824 357.288 6.21147 357.608 6.1203C357.937 6.02001 358.308 5.96986 358.719 5.96986C359.688 5.96986 360.401 6.15677 360.859 6.53058C361.315 6.89528 361.567 7.44688 361.612 8.18539H360.447V8.17172C360.41 7.78878 360.241 7.49703 359.939 7.29644C359.647 7.09586 359.268 6.99557 358.801 6.99557C358.335 6.99557 357.964 7.07307 357.69 7.22806C357.425 7.38306 357.293 7.60644 357.293 7.89819C357.293 8.1626 357.406 8.37686 357.635 8.54097C357.873 8.69597 358.239 8.82817 358.732 8.93758L359.83 9.18375C360.515 9.33875 361.036 9.56668 361.393 9.86756C361.749 10.1684 361.928 10.5924 361.928 11.1394C361.928 11.8506 361.658 12.4022 361.119 12.7943C360.588 13.1772 359.852 13.3686 358.911 13.3686ZM366.291 13.3686C365.733 13.3686 365.239 13.2729 364.81 13.0815C364.389 12.8808 364.037 12.6119 363.754 12.2746C363.47 11.9372 363.255 11.5406 363.11 11.0847C362.963 10.6289 362.89 10.1411 362.89 9.62139C362.89 9.1017 362.972 8.61847 363.137 8.17172C363.31 7.72496 363.544 7.33747 363.836 7.00925C364.128 6.68102 364.481 6.42573 364.892 6.24338C365.304 6.06104 365.746 5.96986 366.222 5.96986C366.725 5.96986 367.173 6.06559 367.566 6.25706C367.968 6.4394 368.307 6.70381 368.581 7.05027C368.855 7.38762 369.065 7.79791 369.212 8.28113C369.358 8.76435 369.431 9.29772 369.431 9.88123V10.018H364.124V10.1001C364.124 10.7839 364.32 11.3309 364.714 11.7412C365.107 12.1423 365.646 12.3429 366.332 12.3429C367.347 12.3429 367.959 11.8825 368.169 10.9616H369.321C369.166 11.764 368.823 12.3658 368.293 12.7669C367.763 13.168 367.095 13.3686 366.291 13.3686ZM368.197 8.99229C368.179 8.70053 368.115 8.43612 368.005 8.19907C367.895 7.9529 367.749 7.7432 367.566 7.56997C367.392 7.38762 367.182 7.2463 366.935 7.14601C366.698 7.04572 366.432 6.99557 366.14 6.99557C365.591 6.99557 365.13 7.17791 364.755 7.54261C364.389 7.89819 364.179 8.38142 364.124 8.99229H368.197ZM366.88 3.1936H368.074L366.606 5.14929H365.413L366.88 3.1936ZM373.631 13.3686C373.119 13.3686 372.657 13.2866 372.246 13.1225C371.844 12.9584 371.496 12.7213 371.204 12.4113C370.92 12.0922 370.7 11.7093 370.545 11.2625C370.39 10.8157 370.313 10.3143 370.313 9.75815C370.313 9.17463 370.39 8.65038 370.545 8.18539C370.7 7.71128 370.92 7.31012 371.204 6.98189C371.496 6.65367 371.849 6.40294 372.26 6.22971C372.671 6.05647 373.138 5.96986 373.659 5.96986C374.518 5.96986 375.217 6.17045 375.757 6.57161C376.296 6.97277 376.616 7.58364 376.717 8.40421H375.51C375.308 7.46511 374.724 6.99557 373.754 6.99557C373.032 6.99557 372.483 7.23718 372.109 7.72041C371.734 8.19451 371.547 8.87376 371.547 9.75815C371.547 10.5332 371.725 11.1576 372.081 11.6318C372.447 12.1059 372.959 12.3429 373.617 12.3429C374.193 12.3429 374.641 12.1925 374.961 11.8916C375.29 11.5908 375.492 11.1668 375.565 10.6197H376.758C376.629 11.5042 376.296 12.1834 375.757 12.6575C375.226 13.1316 374.518 13.3686 373.631 13.3686ZM380.56 13.3686C378.932 13.3686 378.119 12.5299 378.119 10.8522V6.13397H379.284V10.948C379.284 11.3583 379.413 11.6956 379.668 11.96C379.925 12.2153 380.276 12.3429 380.725 12.3429C381.41 12.3429 381.932 12.1469 382.288 11.7549C382.645 11.3537 382.822 10.8249 382.822 10.1684V6.13397H383.989V13.2045H382.892V12.0831H382.864C382.388 12.9402 381.62 13.3686 380.56 13.3686ZM386.852 6.13397V7.62467H386.879C387.41 6.52146 388.223 5.96986 389.32 5.96986H389.485V7.20071C388.598 7.20071 387.949 7.42865 387.537 7.88452C387.126 8.34039 386.921 9.06067 386.921 10.0453V13.2045H385.754V6.13397H386.852ZM391.653 3.43977V4.86209H390.488V3.43977H391.653ZM391.653 6.13397V13.2045H390.488V6.13397H391.653ZM395.587 13.2045C395.285 13.2045 395.03 13.1817 394.819 13.1362C394.618 13.0906 394.454 13.0131 394.325 12.9037C394.197 12.7943 394.106 12.6438 394.051 12.4523C393.996 12.2609 393.969 12.0192 393.969 11.7275V7.15968H392.762V6.13397H393.969V4.01417H395.135V6.13397H396.547V7.15968H395.135V11.5908C395.135 11.8004 395.175 11.9509 395.258 12.0421C395.34 12.1333 395.546 12.1788 395.875 12.1788H396.547V13.2045H395.587ZM400.755 13.3686C400.197 13.3686 399.704 13.2729 399.274 13.0815C398.853 12.8808 398.502 12.6119 398.218 12.2746C397.934 11.9372 397.719 11.5406 397.574 11.0847C397.427 10.6289 397.354 10.1411 397.354 9.62139C397.354 9.1017 397.437 8.61847 397.601 8.17172C397.774 7.72496 398.008 7.33747 398.3 7.00925C398.592 6.68102 398.945 6.42573 399.357 6.24338C399.768 6.06104 400.211 5.96986 400.686 5.96986C401.19 5.96986 401.637 6.06559 402.03 6.25706C402.432 6.4394 402.771 6.70381 403.045 7.05027C403.319 7.38762 403.529 7.79791 403.676 8.28113C403.823 8.76435 403.895 9.29772 403.895 9.88123V10.018H398.589V10.1001C398.589 10.7839 398.784 11.3309 399.178 11.7412C399.571 12.1423 400.11 12.3429 400.796 12.3429C401.811 12.3429 402.424 11.8825 402.634 10.9616H403.786C403.631 11.764 403.287 12.3658 402.758 12.7669C402.227 13.168 401.559 13.3686 400.755 13.3686ZM402.661 8.99229C402.643 8.70053 402.579 8.43612 402.469 8.19907C402.36 7.9529 402.213 7.7432 402.03 7.56997C401.856 7.38762 401.646 7.2463 401.4 7.14601C401.162 7.04572 400.896 6.99557 400.604 6.99557C400.056 6.99557 399.594 7.17791 399.22 7.54261C398.854 7.89819 398.644 8.38142 398.589 8.99229H402.661ZM401.345 3.1936H402.538L401.07 5.14929H399.878L401.345 3.1936Z" fill="black"/>
<path d="M281.197 26.3374C280.704 26.3374 280.255 26.2508 279.854 26.0776C279.46 25.8952 279.118 25.6399 278.825 25.3117C278.542 24.9835 278.322 24.5914 278.166 24.1355C278.011 23.6797 277.934 23.1737 277.934 22.6175C277.934 22.0613 278.006 21.5599 278.153 21.1131C278.308 20.6573 278.523 20.2697 278.797 19.9506C279.081 19.6224 279.419 19.3717 279.812 19.1985C280.215 19.0252 280.662 18.9386 281.156 18.9386C281.622 18.9386 282.066 19.0343 282.487 19.2258C282.916 19.4173 283.24 19.6908 283.46 20.0464H283.487V16.4085H284.653V26.1733H283.487V25.216H283.46C283.277 25.5807 282.985 25.8587 282.582 26.0502C282.19 26.2417 281.727 26.3374 281.197 26.3374ZM281.362 25.3117C282.029 25.3117 282.555 25.07 282.939 24.5869C283.332 24.0945 283.529 23.4472 283.529 22.6448C283.529 21.8425 283.332 21.1952 282.939 20.7028C282.555 20.2105 282.001 19.9643 281.28 19.9643C280.594 19.9643 280.068 20.206 279.702 20.6892C279.346 21.1723 279.168 21.8425 279.168 22.6995C279.168 23.0825 279.218 23.4381 279.318 23.7663C279.428 24.0854 279.579 24.3589 279.771 24.5869C279.963 24.8148 280.191 24.9926 280.457 25.1202C280.731 25.2478 281.033 25.3117 281.362 25.3117ZM289.52 26.3374C288.962 26.3374 288.469 26.2417 288.039 26.0502C287.618 25.8496 287.267 25.5807 286.983 25.2433C286.7 24.9059 286.485 24.5093 286.339 24.0535C286.192 23.5976 286.119 23.1098 286.119 22.5901C286.119 22.0704 286.202 21.5873 286.366 21.1405C286.54 20.6937 286.773 20.3062 287.065 19.978C287.358 19.6498 287.71 19.3944 288.122 19.2121C288.533 19.0298 288.977 18.9386 289.451 18.9386C289.955 18.9386 290.403 19.0343 290.795 19.2258C291.198 19.4081 291.536 19.6726 291.81 20.019C292.084 20.3564 292.295 20.7667 292.441 21.2499C292.588 21.7331 292.66 22.2664 292.66 22.85V22.9867H287.354V23.0688C287.354 23.7526 287.55 24.2997 287.943 24.7099C288.336 25.1111 288.875 25.3117 289.561 25.3117C290.576 25.3117 291.189 24.8512 291.399 23.9304H292.551C292.396 24.7328 292.053 25.3345 291.523 25.7356C290.992 26.1368 290.325 26.3374 289.52 26.3374ZM291.426 21.961C291.408 21.6693 291.344 21.4048 291.234 21.1678C291.124 20.9217 290.979 20.712 290.795 20.5387C290.622 20.3564 290.411 20.215 290.164 20.1148C289.927 20.0145 289.662 19.9643 289.369 19.9643C288.821 19.9643 288.359 20.1466 287.984 20.5114C287.618 20.8669 287.408 21.3501 287.354 21.961H291.426ZM296.477 26.3374C295.562 26.3374 294.84 26.1414 294.31 25.7493C293.789 25.3482 293.51 24.7464 293.474 23.9441H294.639C294.657 24.3817 294.826 24.7191 295.147 24.9561C295.476 25.1931 295.942 25.3117 296.546 25.3117C297.688 25.3117 298.259 24.9606 298.259 24.2586C298.259 23.9395 298.122 23.6934 297.848 23.5201C297.701 23.4289 297.482 23.3378 297.19 23.2466C296.898 23.1463 296.518 23.0506 296.052 22.9594C295.183 22.7771 294.561 22.5354 294.187 22.2346C293.811 21.9245 293.624 21.496 293.624 20.949C293.624 20.6481 293.684 20.3746 293.803 20.1284C293.931 19.8823 294.108 19.6726 294.337 19.4993C294.575 19.317 294.854 19.1803 295.174 19.089C295.503 18.9888 295.873 18.9386 296.285 18.9386C297.254 18.9386 297.967 19.1255 298.424 19.4993C298.881 19.8641 299.132 20.4156 299.179 21.1541H298.013V21.1405C297.976 20.7575 297.807 20.4658 297.506 20.2652C297.212 20.0646 296.833 19.9643 296.367 19.9643C295.901 19.9643 295.531 20.0418 295.257 20.1968C294.991 20.3518 294.858 20.5752 294.858 20.8669C294.858 21.1313 294.973 21.3456 295.202 21.5097C295.439 21.6647 295.805 21.7969 296.299 21.9063L297.396 22.1525C298.082 22.3075 298.603 22.5354 298.959 22.8363C299.316 23.1372 299.494 23.5611 299.494 24.1082C299.494 24.8193 299.224 25.3709 298.685 25.763C298.154 26.1459 297.419 26.3374 296.477 26.3374ZM306.784 26.1733C306.482 26.1733 306.227 26.1505 306.016 26.1049C305.815 26.0594 305.651 25.9818 305.522 25.8724C305.394 25.763 305.303 25.6126 305.248 25.4211C305.193 25.2296 305.166 24.988 305.166 24.6963V20.1284H303.959V19.1027H305.166V16.9829H306.332V19.1027H307.744V20.1284H306.332V24.5595C306.332 24.7692 306.372 24.9196 306.455 25.0108C306.537 25.102 306.743 25.1476 307.072 25.1476H307.744V26.1733H306.784ZM311.952 26.3374C311.394 26.3374 310.901 26.2417 310.471 26.0502C310.051 25.8496 309.699 25.5807 309.415 25.2433C309.131 24.9059 308.917 24.5093 308.771 24.0535C308.624 23.5976 308.551 23.1098 308.551 22.5901C308.551 22.0704 308.634 21.5873 308.798 21.1405C308.971 20.6937 309.205 20.3062 309.497 19.978C309.789 19.6498 310.142 19.3944 310.554 19.2121C310.965 19.0298 311.408 18.9386 311.883 18.9386C312.387 18.9386 312.834 19.0343 313.227 19.2258C313.629 19.4081 313.968 19.6726 314.242 20.019C314.516 20.3564 314.726 20.7667 314.873 21.2499C315.02 21.7331 315.092 22.2664 315.092 22.85V22.9867H309.786V23.0688C309.786 23.7526 309.981 24.2997 310.375 24.7099C310.768 25.1111 311.307 25.3117 311.993 25.3117C313.008 25.3117 313.621 24.8512 313.831 23.9304H314.983C314.828 24.7328 314.484 25.3345 313.955 25.7356C313.424 26.1368 312.756 26.3374 311.952 26.3374ZM313.858 21.961C313.84 21.6693 313.776 21.4048 313.666 21.1678C313.557 20.9217 313.41 20.712 313.227 20.5387C313.053 20.3564 312.843 20.215 312.597 20.1148C312.359 20.0145 312.093 19.9643 311.801 19.9643C311.253 19.9643 310.791 20.1466 310.417 20.5114C310.05 20.8669 309.841 21.3501 309.786 21.961H313.858ZM312.542 16.1624H313.735L312.267 18.118H311.075L312.542 16.1624ZM317.592 16.4085V26.1733H316.426V16.4085H317.592ZM322.471 26.3374C321.913 26.3374 321.42 26.2417 320.99 26.0502C320.569 25.8496 320.218 25.5807 319.934 25.2433C319.651 24.9059 319.436 24.5093 319.29 24.0535C319.143 23.5976 319.07 23.1098 319.07 22.5901C319.07 22.0704 319.153 21.5873 319.317 21.1405C319.491 20.6937 319.724 20.3062 320.016 19.978C320.309 19.6498 320.661 19.3944 321.073 19.2121C321.484 19.0298 321.928 18.9386 322.402 18.9386C322.906 18.9386 323.354 19.0343 323.746 19.2258C324.149 19.4081 324.487 19.6726 324.761 20.019C325.035 20.3564 325.246 20.7667 325.392 21.2499C325.539 21.7331 325.611 22.2664 325.611 22.85V22.9867H320.305V23.0688C320.305 23.7526 320.501 24.2997 320.894 24.7099C321.287 25.1111 321.826 25.3117 322.512 25.3117C323.527 25.3117 324.14 24.8512 324.35 23.9304H325.502C325.347 24.7328 325.004 25.3345 324.474 25.7356C323.943 26.1368 323.276 26.3374 322.471 26.3374ZM324.377 21.961C324.359 21.6693 324.295 21.4048 324.185 21.1678C324.076 20.9217 323.93 20.712 323.746 20.5387C323.573 20.3564 323.362 20.215 323.116 20.1148C322.878 20.0145 322.613 19.9643 322.32 19.9643C321.772 19.9643 321.31 20.1466 320.936 20.5114C320.57 20.8669 320.36 21.3501 320.305 21.961H324.377ZM323.061 16.1624H324.254L322.786 18.118H321.594L323.061 16.1624ZM329.812 26.3374C329.3 26.3374 328.838 26.2553 328.427 26.0912C328.024 25.9271 327.677 25.6901 327.385 25.3801C327.101 25.061 326.882 24.6781 326.727 24.2313C326.57 23.7845 326.493 23.2831 326.493 22.7269C326.493 22.1434 326.57 21.6191 326.727 21.1541C326.882 20.68 327.101 20.2789 327.385 19.9506C327.677 19.6224 328.029 19.3717 328.44 19.1985C328.852 19.0252 329.318 18.9386 329.839 18.9386C330.699 18.9386 331.398 19.1392 331.938 19.5404C332.477 19.9415 332.797 20.5524 332.898 21.373H331.691C331.489 20.4338 330.904 19.9643 329.936 19.9643C329.213 19.9643 328.664 20.206 328.29 20.6892C327.914 21.1633 327.727 21.8425 327.727 22.7269C327.727 23.5019 327.906 24.1264 328.262 24.6005C328.628 25.0747 329.14 25.3117 329.798 25.3117C330.374 25.3117 330.822 25.1613 331.142 24.8604C331.472 24.5595 331.672 24.1355 331.746 23.5885H332.938C332.811 24.4729 332.477 25.1521 331.938 25.6262C331.407 26.1004 330.699 26.3374 329.812 26.3374ZM337.358 26.3374C336.837 26.3374 336.361 26.2508 335.932 26.0776C335.511 25.9043 335.15 25.6581 334.848 25.339C334.556 25.0108 334.327 24.6187 334.162 24.1629C333.998 23.7071 333.915 23.201 333.915 22.6448C333.915 22.0796 333.993 21.569 334.149 21.1131C334.314 20.6573 334.542 20.2697 334.835 19.9506C335.136 19.6224 335.497 19.3717 335.918 19.1985C336.347 19.0252 336.828 18.9386 337.358 18.9386C337.888 18.9386 338.363 19.0298 338.784 19.2121C339.214 19.3854 339.575 19.6316 339.867 19.9506C340.169 20.2697 340.398 20.6573 340.553 21.1131C340.718 21.569 340.8 22.0796 340.8 22.6448C340.8 23.1827 340.718 23.6797 340.553 24.1355C340.398 24.5823 340.169 24.9698 339.867 25.298C339.575 25.6262 339.214 25.8816 338.784 26.0639C338.363 26.2462 337.888 26.3374 337.358 26.3374ZM337.358 25.3117C337.678 25.3117 337.97 25.2478 338.236 25.1202C338.51 24.9926 338.743 24.8148 338.935 24.5869C339.136 24.3498 339.291 24.0672 339.401 23.7389C339.511 23.4107 339.566 23.046 339.566 22.6448C339.566 22.2437 339.511 21.879 339.401 21.5508C339.291 21.2225 339.141 20.9445 338.949 20.7165C338.757 20.4795 338.523 20.2971 338.249 20.1695C337.975 20.0327 337.673 19.9643 337.344 19.9643C337.033 19.9643 336.74 20.0327 336.466 20.1695C336.201 20.2971 335.968 20.4795 335.767 20.7165C335.575 20.9535 335.424 21.2362 335.314 21.5644C335.205 21.8927 335.15 22.2528 335.15 22.6448C335.15 23.0369 335.205 23.397 335.314 23.7253C335.424 24.0535 335.575 24.3362 335.767 24.5732C335.959 24.8102 336.187 24.9926 336.453 25.1202C336.727 25.2478 337.029 25.3117 337.358 25.3117ZM343.328 19.1027V20.1421H343.355C343.886 19.3397 344.649 18.9386 345.646 18.9386C346.688 18.9386 347.337 19.3397 347.593 20.1421C347.831 19.7592 348.142 19.4628 348.526 19.2532C348.918 19.0435 349.353 18.9386 349.828 18.9386C350.633 18.9386 351.222 19.1164 351.598 19.472C351.982 19.8276 352.174 20.3199 352.174 20.949V26.1733H351.008V21.4824C351.008 20.9627 350.903 20.5797 350.693 20.3336C350.482 20.0874 350.13 19.9643 349.636 19.9643C349.088 19.9643 348.64 20.1284 348.292 20.4567C347.955 20.7757 347.785 21.1997 347.785 21.7285V26.1733H346.619V21.4824C346.619 20.9627 346.514 20.5797 346.304 20.3336C346.093 20.0874 345.756 19.9643 345.289 19.9643C344.951 19.9643 344.644 20.0418 344.37 20.1968C344.096 20.3427 343.868 20.5752 343.684 20.8943C343.492 21.2043 343.397 21.4869 343.397 21.7422V26.1733H342.231V19.1027H343.328ZM355.076 19.1027V20.1421H355.104C355.634 19.3397 356.398 18.9386 357.395 18.9386C358.437 18.9386 359.086 19.3397 359.342 20.1421C359.579 19.7592 359.89 19.4628 360.274 19.2532C360.667 19.0435 361.101 18.9386 361.577 18.9386C362.382 18.9386 362.971 19.1164 363.346 19.472C363.73 19.8276 363.922 20.3199 363.922 20.949V26.1733H362.756V21.4824C362.756 20.9627 362.651 20.5797 362.441 20.3336C362.23 20.0874 361.878 19.9643 361.385 19.9643C360.836 19.9643 360.388 20.1284 360.041 20.4567C359.702 20.7757 359.534 21.1997 359.534 21.7285V26.1733H358.368V21.4824C358.368 20.9627 358.263 20.5797 358.053 20.3336C357.842 20.0874 357.504 19.9643 357.038 19.9643C356.699 19.9643 356.393 20.0418 356.119 20.1968C355.844 20.3427 355.616 20.5752 355.433 20.8943C355.241 21.2043 355.145 21.4869 355.145 21.7422V26.1733H353.979V19.1027H355.076ZM368.169 26.3374C366.541 26.3374 365.728 25.4986 365.728 23.821V19.1027H366.893V23.9167C366.893 24.327 367.022 24.6644 367.277 24.9288C367.533 25.1841 367.885 25.3117 368.333 25.3117C369.019 25.3117 369.54 25.1157 369.897 24.7236C370.253 24.3225 370.431 23.7936 370.431 23.1372V19.1027H371.597V26.1733H370.5V25.0518H370.473C369.997 25.9089 369.229 26.3374 368.169 26.3374ZM374.502 19.1027V20.2242H374.529C375.032 19.3671 375.8 18.9386 376.833 18.9386C378.461 18.9386 379.274 19.782 379.274 21.4687V26.1733H378.109V21.3456C378.109 20.9535 377.985 20.6253 377.738 20.3609C377.491 20.0966 377.13 19.9643 376.655 19.9643C375.988 19.9643 375.471 20.1649 375.105 20.5661C374.749 20.9582 374.571 21.4824 374.571 22.1388V26.1733H373.405V19.1027H374.502ZM382.316 16.4085V17.8308H381.151V16.4085H382.316ZM382.316 19.1027V26.1733H381.151V19.1027H382.316ZM387.114 26.3374C386.601 26.3374 386.14 26.2553 385.728 26.0912C385.326 25.9271 384.978 25.6901 384.686 25.3801C384.402 25.061 384.183 24.6781 384.028 24.2313C383.873 23.7845 383.795 23.2831 383.795 22.7269C383.795 22.1434 383.873 21.6191 384.028 21.1541C384.183 20.68 384.402 20.2789 384.686 19.9506C384.978 19.6224 385.331 19.3717 385.742 19.1985C386.154 19.0252 386.62 18.9386 387.141 18.9386C388 18.9386 388.7 19.1392 389.239 19.5404C389.778 19.9415 390.099 20.5524 390.199 21.373H388.992C388.791 20.4338 388.206 19.9643 387.237 19.9643C386.514 19.9643 385.966 20.206 385.591 20.6892C385.217 21.1633 385.029 21.8425 385.029 22.7269C385.029 23.5019 385.207 24.1264 385.564 24.6005C385.93 25.0747 386.441 25.3117 387.1 25.3117C387.676 25.3117 388.124 25.1613 388.444 24.8604C388.773 24.5595 388.974 24.1355 389.047 23.5885H390.241C390.112 24.4729 389.778 25.1521 389.239 25.6262C388.708 26.1004 388 26.3374 387.114 26.3374ZM393.562 26.3374C392.822 26.3374 392.246 26.1688 391.834 25.8314C391.423 25.485 391.218 24.9926 391.218 24.3544C391.218 23.7161 391.423 23.2147 391.834 22.85C392.255 22.4762 393.21 22.1935 394.701 22.0021C395.213 21.9382 395.555 21.8425 395.729 21.7149C395.912 21.5781 396.003 21.3821 396.003 21.1268C396.003 20.3518 395.477 19.9643 394.427 19.9643C393.851 19.9643 393.416 20.0737 393.123 20.2925C392.84 20.5022 392.685 20.8396 392.657 21.3046H391.492C391.592 19.7273 392.598 18.9386 394.509 18.9386C396.273 18.9386 397.155 19.5722 397.155 20.8396V24.9151C397.155 25.1795 397.279 25.3117 397.526 25.3117C397.626 25.3117 397.745 25.2889 397.883 25.2433V26.1459C397.644 26.2735 397.365 26.3374 397.046 26.3374C396.387 26.3374 396.058 25.9727 396.058 25.2433C395.437 25.9727 394.604 26.3374 393.562 26.3374ZM393.823 25.3117C394.143 25.3117 394.435 25.2707 394.701 25.1886C394.966 25.1065 395.195 24.9926 395.387 24.8467C395.579 24.7008 395.724 24.5367 395.825 24.3544C395.935 24.1629 395.99 23.9578 395.99 23.7389V22.5218C395.889 22.5947 395.771 22.654 395.633 22.6995C395.496 22.7451 395.34 22.7816 395.167 22.809L393.974 22.9867C393.453 23.0597 393.069 23.1964 392.822 23.397C392.575 23.5976 392.452 23.8894 392.452 24.2723C392.452 24.6005 392.57 24.8558 392.808 25.0382C393.046 25.2205 393.384 25.3117 393.823 25.3117ZM401.094 26.1733C400.793 26.1733 400.537 26.1505 400.326 26.1049C400.126 26.0594 399.961 25.9818 399.833 25.8724C399.705 25.763 399.613 25.6126 399.558 25.4211C399.504 25.2296 399.476 24.988 399.476 24.6963V20.1284H398.269V19.1027H399.476V16.9829H400.642V19.1027H402.054V20.1284H400.642V24.5595C400.642 24.7692 400.683 24.9196 400.765 25.0108C400.848 25.102 401.054 25.1476 401.383 25.1476H402.054V26.1733H401.094ZM404.64 16.4085V17.8308H403.475V16.4085H404.64ZM404.64 19.1027V26.1733H403.475V19.1027H404.64ZM409.561 26.3374C409.04 26.3374 408.565 26.2508 408.135 26.0776C407.715 25.9043 407.354 25.6581 407.052 25.339C406.759 25.0108 406.531 24.6187 406.366 24.1629C406.202 23.7071 406.119 23.201 406.119 22.6448C406.119 22.0796 406.197 21.569 406.352 21.1131C406.517 20.6573 406.745 20.2697 407.038 19.9506C407.339 19.6224 407.701 19.3717 408.122 19.1985C408.551 19.0252 409.031 18.9386 409.561 18.9386C410.092 18.9386 410.567 19.0298 410.987 19.2121C411.418 19.3854 411.778 19.6316 412.071 19.9506C412.373 20.2697 412.601 20.6573 412.757 21.1131C412.921 21.569 413.004 22.0796 413.004 22.6448C413.004 23.1827 412.921 23.6797 412.757 24.1355C412.601 24.5823 412.373 24.9698 412.071 25.298C411.778 25.6262 411.418 25.8816 410.987 26.0639C410.567 26.2462 410.092 26.3374 409.561 26.3374ZM409.561 25.3117C409.882 25.3117 410.174 25.2478 410.439 25.1202C410.713 24.9926 410.947 24.8148 411.139 24.5869C411.339 24.3498 411.495 24.0672 411.605 23.7389C411.715 23.4107 411.769 23.046 411.769 22.6448C411.769 22.2437 411.715 21.879 411.605 21.5508C411.495 21.2225 411.344 20.9445 411.152 20.7165C410.96 20.4795 410.727 20.2971 410.453 20.1695C410.179 20.0327 409.877 19.9643 409.548 19.9643C409.237 19.9643 408.944 20.0327 408.67 20.1695C408.404 20.2971 408.172 20.4795 407.97 20.7165C407.778 20.9535 407.628 21.2362 407.518 21.5644C407.408 21.8927 407.354 22.2528 407.354 22.6448C407.354 23.0369 407.408 23.397 407.518 23.7253C407.628 24.0535 407.778 24.3362 407.97 24.5732C408.162 24.8102 408.391 24.9926 408.656 25.1202C408.93 25.2478 409.232 25.3117 409.561 25.3117ZM415.532 19.1027V20.2242H415.559C416.062 19.3671 416.83 18.9386 417.863 18.9386C419.491 18.9386 420.304 19.782 420.304 21.4687V26.1733H419.138V21.3456C419.138 20.9535 419.015 20.6253 418.768 20.3609C418.521 20.0966 418.16 19.9643 417.684 19.9643C417.018 19.9643 416.501 20.1649 416.135 20.5661C415.779 20.9582 415.6 21.4824 415.6 22.1388V26.1733H414.435V19.1027H415.532ZM424.662 26.3374C423.748 26.3374 423.026 26.1414 422.496 25.7493C421.974 25.3482 421.695 24.7464 421.66 23.9441H422.825C422.843 24.3817 423.012 24.7191 423.333 24.9561C423.662 25.1931 424.128 25.3117 424.731 25.3117C425.874 25.3117 426.445 24.9606 426.445 24.2586C426.445 23.9395 426.308 23.6934 426.034 23.5201C425.887 23.4289 425.668 23.3378 425.376 23.2466C425.083 23.1463 424.704 23.0506 424.238 22.9594C423.369 22.7771 422.747 22.5354 422.373 22.2346C421.997 21.9245 421.81 21.496 421.81 20.949C421.81 20.6481 421.869 20.3746 421.989 20.1284C422.116 19.8823 422.294 19.6726 422.523 19.4993C422.76 19.317 423.039 19.1803 423.36 19.089C423.689 18.9888 424.059 18.9386 424.47 18.9386C425.44 18.9386 426.153 19.1255 426.61 19.4993C427.067 19.8641 427.318 20.4156 427.365 21.1541H426.198V21.1405C426.161 20.7575 425.993 20.4658 425.691 20.2652C425.398 20.0646 425.019 19.9643 424.553 19.9643C424.086 19.9643 423.717 20.0418 423.442 20.1968C423.177 20.3518 423.044 20.5752 423.044 20.8669C423.044 21.1313 423.159 21.3456 423.387 21.5097C423.625 21.6647 423.991 21.7969 424.485 21.9063L425.582 22.1525C426.267 22.3075 426.789 22.5354 427.145 22.8363C427.502 23.1372 427.679 23.5611 427.679 24.1082C427.679 24.8193 427.41 25.3709 426.871 25.763C426.34 26.1459 425.604 26.3374 424.662 26.3374Z" fill="black"/>
<mask id="mask0_1239_1190" style="mask-type:luminance" maskUnits="userSpaceOnUse" x="43" y="3" width="52" height="23">
<path d="M94.6889 3.45825H43.5566V25.9374H94.6889V3.45825Z" fill="white"/>
</mask>
<g mask="url(#mask0_1239_1190)">
<path d="M43.5566 3.45825H56.3398L56.867 3.92188H81.3785L81.9059 3.45825H94.6888V25.9375H81.9059L81.3785 25.4738H56.867L56.3398 25.9375H43.5566V3.45825Z" fill="#FF0000"/>
<path d="M56.3394 3.45825H81.9055V25.9375H56.3394V3.45825ZM69.6018 24.2046L69.3621 20.1631C69.3586 20.0966 69.3722 20.0303 69.4017 19.969C69.4312 19.9078 69.476 19.8531 69.5327 19.809C69.5894 19.7651 69.6566 19.7327 69.7295 19.7146C69.8023 19.6964 69.8788 19.6928 69.9533 19.7042L74.5287 20.4113L73.9108 18.9126C73.8857 18.853 73.8825 18.788 73.9016 18.7267C73.9207 18.6654 73.9612 18.6109 74.0173 18.5708L79.0294 15.0022L77.9002 14.5386C77.8239 14.5069 77.7634 14.4519 77.73 14.3838C77.6967 14.3156 77.6928 14.2391 77.7191 14.1686L78.7098 11.4899L75.8229 12.0284C75.7446 12.0428 75.6632 12.0329 75.5924 12.0004C75.5215 11.968 75.4655 11.915 75.4341 11.8505L74.8748 10.6937L72.6219 12.8199C72.5703 12.8677 72.5026 12.8995 72.4287 12.9105C72.355 12.9215 72.279 12.9114 72.2124 12.8813C72.1459 12.8512 72.0921 12.8029 72.0593 12.7438C72.0265 12.6845 72.0165 12.6176 72.0306 12.5529L73.1172 7.62626L71.3755 8.51138C71.3346 8.53245 71.2892 8.54592 71.2422 8.55094C71.1951 8.55596 71.1474 8.55244 71.1019 8.54059C71.0565 8.52873 71.0143 8.5088 70.978 8.48203C70.9417 8.45525 70.912 8.42221 70.8908 8.38493L69.1225 5.33151L67.3541 8.38493C67.3329 8.42221 67.3032 8.45525 67.2669 8.48203C67.2306 8.5088 67.1884 8.52873 67.1429 8.54059C67.0975 8.55244 67.0498 8.55596 67.0028 8.55094C66.9557 8.54592 66.9104 8.53245 66.8694 8.51138L65.1278 7.62626L66.2143 12.5529C66.2285 12.6176 66.2183 12.6845 66.1856 12.7438C66.1528 12.8029 66.0991 12.8512 66.0325 12.8813C65.9659 12.9114 65.89 12.9215 65.8162 12.9105C65.7423 12.8995 65.6746 12.8677 65.6231 12.8199L63.3701 10.6937L62.8108 11.8505C62.7793 11.915 62.7234 11.968 62.6526 12.0004C62.5816 12.0329 62.5002 12.0428 62.422 12.0284L59.5352 11.4899L60.5259 14.1686C60.5521 14.2391 60.5482 14.3156 60.5148 14.3838C60.4815 14.4519 60.421 14.5069 60.3447 14.5386L59.2156 15.0022L64.2276 18.5708C64.2837 18.6109 64.3242 18.6654 64.3433 18.7267C64.3624 18.788 64.3592 18.853 64.3342 18.9126L63.7163 20.4113L68.2916 19.7042C68.3661 19.6928 68.4426 19.6964 68.5155 19.7146C68.5882 19.7327 68.6554 19.7651 68.7122 19.809C68.7689 19.8531 68.8137 19.9078 68.8432 19.969C68.8728 20.0303 68.8862 20.0966 68.8828 20.1631L68.643 24.2046H69.6018Z" fill="white"/>
</g>
</svg>
